<svg width="24" height="24" viewBox="0 0 24 24" fill="none" xmlns="http://www.w3.org/2000/svg">
<g clip-path="url(#clip0_382_19294)">
<path d="M20.2082 8.66666V8.45333C20.1627 6.64732 19.4046 4.93264 18.0994 3.6836C16.7942 2.43457 15.0478 1.75263 13.2415 1.78666C11.8963 1.77568 10.5766 2.15367 9.44115 2.87515C8.30572 3.59662 7.40297 4.63083 6.84152 5.85333C5.24101 6.04269 3.76987 6.8259 2.71916 8.04799C1.66845 9.27009 1.11472 10.842 1.16752 12.4529C1.22032 14.0637 1.8758 15.596 3.00429 16.7467C4.13277 17.8973 5.65204 18.5825 7.26152 18.6667C7.10901 18.2353 7.10901 17.7647 7.26152 17.3333C5.97644 17.2314 4.77764 16.6465 3.9063 15.6965C3.03496 14.7464 2.55573 13.5016 2.56503 12.2125C2.57432 10.9235 3.07144 9.68571 3.95639 8.74831C4.84133 7.81091 6.04843 7.24342 7.33486 7.15999H7.78152L7.93486 6.73999C8.34833 5.66608 9.08151 4.74498 10.0353 4.10117C10.9891 3.45735 12.1176 3.12184 13.2682 3.13999C14.7209 3.10586 16.1282 3.6473 17.1834 4.64632C18.2386 5.64533 18.8562 7.02094 18.9015 8.47333C18.9107 8.65099 18.9107 8.829 18.9015 9.00666L18.8482 9.48666L19.2815 9.68666C20.1196 10.0642 20.8021 10.719 21.2142 11.5407C21.6262 12.3624 21.7426 13.301 21.5439 14.1985C21.3451 15.096 20.8433 15.8976 20.1229 16.4686C19.4025 17.0395 18.5074 17.3449 17.5882 17.3333H16.7282C16.8807 17.7647 16.8807 18.2353 16.7282 18.6667H17.5815C18.7672 18.6752 19.9218 18.2883 20.8631 17.5673C21.8043 16.8463 22.4785 15.8321 22.779 14.6852C23.0795 13.5382 22.9892 12.3238 22.5224 11.2339C22.0557 10.1439 21.239 9.24062 20.2015 8.66666H20.2082Z" fill="#3D414B"/>
<path d="M14.8521 17.38C14.7643 17.3795 14.6774 17.3963 14.5961 17.4295C14.5149 17.4627 14.441 17.5116 14.3787 17.5733L12.6654 19.2933V11.12C12.6654 10.9432 12.5952 10.7736 12.4701 10.6486C12.3451 10.5236 12.1755 10.4533 11.9987 10.4533C11.8219 10.4533 11.6524 10.5236 11.5273 10.6486C11.4023 10.7736 11.3321 10.9432 11.3321 11.12V19.2933L9.61873 17.58C9.49408 17.4536 9.32432 17.3819 9.14678 17.3806C8.96925 17.3794 8.79849 17.4487 8.67207 17.5733C8.54565 17.698 8.47392 17.8678 8.47267 18.0453C8.47142 18.2228 8.54075 18.3936 8.6654 18.52L11.9987 21.8533L15.3321 18.52C15.4261 18.4268 15.4902 18.3076 15.5163 18.1778C15.5423 18.048 15.5291 17.9133 15.4783 17.791C15.4275 17.6687 15.3415 17.5643 15.2311 17.4911C15.1208 17.4179 14.9912 17.3792 14.8587 17.38H14.8521Z" fill="#3D414B"/>
</g>
<defs>
<clipPath id="clip0_382_19294">
<rect width="24" height="24" fill="white"/>
</clipPath>
</defs>
</svg>
