<svg width="64" height="64" viewBox="0 0 64 64" fill="none" xmlns="http://www.w3.org/2000/svg">
<rect y="3" width="64" height="58" rx="5" fill="#AEFFC5"/>
<path d="M35.5807 31.3504L24.5117 29.4004V43.8094C24.5119 43.9659 24.5428 44.1209 24.6028 44.2655C24.6629 44.41 24.7508 44.5414 24.8616 44.652C24.9723 44.7626 25.1038 44.8503 25.2485 44.91C25.3932 44.9698 25.5482 45.0005 25.7047 45.0004H44.8047C44.9614 45.0008 45.1167 44.9703 45.2616 44.9106C45.4065 44.8509 45.5382 44.7633 45.6492 44.6527C45.7602 44.5421 45.8483 44.4106 45.9084 44.2659C45.9686 44.1212 45.9996 43.9661 45.9997 43.8094V38.5004L35.5807 31.3504Z" fill="#185C37"/>
<path d="M35.5807 19H25.7047C25.5482 18.9999 25.3932 19.0306 25.2485 19.0904C25.1038 19.1501 24.9723 19.2378 24.8616 19.3484C24.7508 19.459 24.6629 19.5903 24.6028 19.7349C24.5428 19.8795 24.5119 20.0345 24.5117 20.191V25.5L35.5807 32L41.4417 33.95L45.9997 32V25.5L35.5807 19Z" fill="#21A366"/>
<path d="M24.5117 25.5H35.5807V32H24.5117V25.5Z" fill="#107C41"/>
<path opacity="0.1" d="M32.4337 24.2002H24.5117V40.4502H32.4337C32.7494 40.4486 33.0517 40.3227 33.2752 40.0998C33.4987 39.8769 33.6254 39.5749 33.6277 39.2592V25.3912C33.6254 25.0755 33.4987 24.7735 33.2752 24.5506C33.0517 24.3277 32.7494 24.2018 32.4337 24.2002Z" fill="black"/>
<path opacity="0.2" d="M31.7827 24.8496H24.5117V41.0996H31.7827C32.0984 41.098 32.4007 40.9721 32.6242 40.7492C32.8477 40.5263 32.9744 40.2243 32.9767 39.9086V26.0406C32.9744 25.7249 32.8477 25.4229 32.6242 25.2C32.4007 24.9771 32.0984 24.8512 31.7827 24.8496Z" fill="black"/>
<path opacity="0.2" d="M31.7827 24.8496H24.5117V39.7996H31.7827C32.0984 39.798 32.4007 39.6722 32.6242 39.4492C32.8477 39.2263 32.9744 38.9243 32.9767 38.6086V26.0406C32.9744 25.7249 32.8477 25.4229 32.6242 25.2C32.4007 24.9771 32.0984 24.8512 31.7827 24.8496Z" fill="black"/>
<path opacity="0.2" d="M31.1317 24.8496H24.5117V39.7996H31.1317C31.4474 39.798 31.7497 39.6722 31.9732 39.4492C32.1967 39.2263 32.3234 38.9243 32.3257 38.6086V26.0406C32.3234 25.7249 32.1967 25.4229 31.9732 25.2C31.7497 24.9771 31.4474 24.8512 31.1317 24.8496Z" fill="black"/>
<path d="M19.194 24.8496H31.132C31.4482 24.8493 31.7516 24.9746 31.9755 25.198C32.1994 25.4213 32.3255 25.7244 32.326 26.0406V37.9586C32.3255 38.2748 32.1994 38.5779 31.9755 38.8013C31.7516 39.0246 31.4482 39.1499 31.132 39.1496H19.194C19.0374 39.1499 18.8822 39.1193 18.7375 39.0595C18.5927 38.9998 18.4611 38.9122 18.3502 38.8015C18.2393 38.6909 18.1513 38.5596 18.0912 38.4149C18.0311 38.2703 18.0001 38.1152 18 37.9586V26.0406C18.0001 25.884 18.0311 25.7289 18.0912 25.5843C18.1513 25.4397 18.2393 25.3083 18.3502 25.1977C18.4611 25.0871 18.5927 24.9994 18.7375 24.9397C18.8822 24.88 19.0374 24.8493 19.194 24.8496Z" fill="url(#paint0_linear_4097_4229)"/>
<path d="M21.7002 35.873L24.2112 31.989L21.9112 28.127H23.7582L25.0132 30.6C25.1292 30.834 25.2132 31.008 25.2512 31.124H25.2682C25.3502 30.936 25.4372 30.755 25.5282 30.578L26.8702 28.131H28.5702L26.2112 31.971L28.6302 35.876H26.8212L25.3712 33.165C25.3039 33.0484 25.2467 32.9263 25.2002 32.8H25.1762C25.1339 32.923 25.0775 33.0408 25.0082 33.151L23.5152 35.873H21.7002Z" fill="white"/>
<path d="M44.8061 19H35.5811V25.5H46.0001V20.191C45.9999 20.0344 45.9689 19.8793 45.9088 19.7347C45.8488 19.5901 45.7608 19.4587 45.6499 19.3481C45.539 19.2375 45.4074 19.1498 45.2626 19.0901C45.1178 19.0303 44.9627 18.9997 44.8061 19Z" fill="#33C481"/>
<path d="M35.5811 32H46.0001V38.5H35.5811V32Z" fill="#107C41"/>
<defs>
<linearGradient id="paint0_linear_4097_4229" x1="20.494" y1="23.9136" x2="29.832" y2="40.0856" gradientUnits="userSpaceOnUse">
<stop stop-color="#18884F"/>
<stop offset="0.5" stop-color="#117E43"/>
<stop offset="1" stop-color="#0B6631"/>
</linearGradient>
</defs>
</svg>
