<svg width="64" height="64" viewBox="0 0 64 64" fill="none" xmlns="http://www.w3.org/2000/svg">
<rect y="3" width="64" height="58" rx="5" fill="#FEF5E4"/>
<path d="M41.5003 22H31.7571C31.4612 22.001 31.1717 21.9139 30.9253 21.75L29.1878 20.5881C28.6124 20.2034 27.9355 19.9987 27.2434 20H22.5003C21.5723 20.001 20.6827 20.3701 20.0265 21.0262C19.3703 21.6824 19.0013 22.5721 19.0003 23.5V25H45.0003C45.0003 23.07 43.4303 22 41.5003 22ZM42.4846 44H21.5159C20.5975 43.999 19.7164 43.637 19.0624 42.9922C18.4085 42.3474 18.0342 41.4714 18.0203 40.5531L17.0115 30.2569V30.2394C16.9785 29.8267 17.0312 29.4117 17.1664 29.0204C17.3016 28.6291 17.5163 28.27 17.7971 27.9657C18.0778 27.6614 18.4185 27.4185 18.7976 27.2524C19.1768 27.0862 19.5863 27.0002 20.0003 27H44.0065C44.4204 27.0004 44.8297 27.0865 45.2088 27.2527C45.5878 27.419 45.9283 27.6619 46.2089 27.9662C46.4895 28.2704 46.7041 28.6294 46.8392 29.0207C46.9743 29.4119 47.027 29.8268 46.994 30.2394V30.2569L45.9803 40.5531C45.9663 41.4714 45.592 42.3474 44.9381 42.9922C44.2842 43.637 43.403 43.999 42.4846 44Z" fill="#FEBD63"/>
</svg>
