<svg width="32" height="32" viewBox="0 0 32 32" fill="none" xmlns="http://www.w3.org/2000/svg">
<path d="M25.5003 6.00001H15.7571C15.4612 6.00095 15.1717 5.91394 14.9253 5.75001L13.1878 4.58813C12.6124 4.20339 11.9355 3.99865 11.2434 4.00001H6.50027C5.57232 4.001 4.68265 4.37007 4.02649 5.02623C3.37033 5.68239 3.00126 6.57205 3.00027 7.50001V9.00001H29.0003C29.0003 7.07001 27.4303 6.00001 25.5003 6.00001ZM26.4846 28H5.51589C4.59753 27.999 3.71636 27.637 3.06243 26.9922C2.4085 26.3474 2.03421 25.4714 2.02027 24.5531L1.01152 14.2569V14.2394C0.978485 13.8267 1.03122 13.4117 1.16641 13.0204C1.3016 12.6291 1.51632 12.27 1.79705 11.9657C2.07779 11.6614 2.41846 11.4185 2.79763 11.2524C3.1768 11.0862 3.58627 11.0002 4.00027 11H28.0065C28.4204 11.0004 28.8297 11.0865 29.2088 11.2527C29.5878 11.419 29.9283 11.6619 30.2089 11.9662C30.4895 12.2704 30.7041 12.6294 30.8392 13.0207C30.9743 13.4119 31.027 13.8268 30.994 14.2394V14.2569L29.9803 24.5531C29.9663 25.4714 29.592 26.3474 28.9381 26.9922C28.2842 27.637 27.403 27.999 26.4846 28Z" fill="#FEBD63"/>
</svg>
