<svg width="64" height="64" viewBox="0 0 64 64" fill="none" xmlns="http://www.w3.org/2000/svg">
<rect y="3" width="64" height="58" rx="5" fill="#F1F3F9"/>
<path d="M26.6667 40.0003H42.6667C43.3739 40.0003 44.0522 39.7194 44.5523 39.2193C45.0524 38.7192 45.3333 38.0409 45.3333 37.3337V21.3337C45.3333 20.6264 45.0524 19.9481 44.5523 19.448C44.0522 18.9479 43.3739 18.667 42.6667 18.667H26.6667C25.9594 18.667 25.2811 18.9479 24.781 19.448C24.281 19.9481 24 20.6264 24 21.3337V37.3337C24 38.0409 24.281 38.7192 24.781 39.2193C25.2811 39.7194 25.9594 40.0003 26.6667 40.0003ZM26.6667 37.3337V21.3337H42.6667V37.3337H26.6667Z" fill="#9747FF"/>
<path d="M18.667 26.667H21.3337V42.667H37.3337V45.3337H21.3337C20.6264 45.3337 19.9481 45.0527 19.448 44.5526C18.9479 44.0525 18.667 43.3742 18.667 42.667V26.667Z" fill="#9747FF"/>
<path d="M29.333 34.6663H41.333L36.333 27.4077L33.333 31.5543L32.333 30.5183L29.333 34.6663ZM30.333 26.889C30.333 27.7477 31.005 28.4437 31.833 28.4437C32.661 28.4437 33.333 27.7477 33.333 26.889C33.333 26.029 32.661 25.333 31.833 25.333C31.005 25.333 30.333 26.029 30.333 26.889Z" fill="#9747FF"/>
</svg>
