<svg width="32" height="32" viewBox="0 0 32 32" fill="none" xmlns="http://www.w3.org/2000/svg">
<path d="M25.3333 28H6.66667C5.95942 28 5.28115 27.719 4.78105 27.219C4.28095 26.7189 4 26.0406 4 25.3333V6.66667C4 5.95942 4.28095 5.28115 4.78105 4.78105C5.28115 4.28095 5.95942 4 6.66667 4H25.3333C26.0406 4 26.7189 4.28095 27.219 4.78105C27.719 5.28115 28 5.95942 28 6.66667V25.3333C28 26.0406 27.719 26.7189 27.219 27.219C26.7189 27.719 26.0406 28 25.3333 28ZM6.66667 6.66667V25.3333H25.3333V6.66667H6.66667ZM24 22.6667H8L12 17.3333L13.3333 18.6667L17.3333 13.3333L24 22.6667ZM11.3333 14.6667C10.8029 14.6667 10.2942 14.456 9.91912 14.0809C9.54405 13.7058 9.33333 13.1971 9.33333 12.6667C9.33333 12.1362 9.54405 11.6275 9.91912 11.2525C10.2942 10.8774 10.8029 10.6667 11.3333 10.6667C11.8638 10.6667 12.3725 10.8774 12.7475 11.2525C13.1226 11.6275 13.3333 12.1362 13.3333 12.6667C13.3333 13.1971 13.1226 13.7058 12.7475 14.0809C12.3725 14.456 11.8638 14.6667 11.3333 14.6667Z" fill="#3D414B"/>
</svg>
