<svg width="184" height="182" viewBox="0 0 184 182" fill="none" xmlns="http://www.w3.org/2000/svg">
<path d="M26.9434 165.858C-8.98113 145.117 -8.98113 111.485 26.9434 90.759C62.8679 70.0332 121.116 70.0173 157.052 90.759C192.989 111.501 192.977 145.133 157.052 165.858C121.128 186.584 62.8719 186.604 26.9434 165.858Z" fill="#F5F5F5"/>
<path d="M55.6956 166.86C71.2854 166.86 83.9234 159.564 83.9234 150.564C83.9234 141.565 71.2854 134.269 55.6956 134.269C40.1058 134.269 27.4678 141.565 27.4678 150.564C27.4678 159.564 40.1058 166.86 55.6956 166.86Z" fill="#E0E0E0"/>
<path d="M120.939 142.948C140.512 132.391 152.121 115.937 146.868 106.196C141.614 96.4559 121.488 97.1178 101.914 107.675C82.3403 118.232 70.7315 134.686 75.985 144.427C81.2384 154.167 101.365 153.505 120.939 142.948Z" fill="#E0E0E0"/>
<path d="M140.415 119.809C144.329 115.144 150.46 112.105 157.354 110.309C164.165 108.54 165.385 104.348 160.871 102.993C155.757 101.452 149.375 104.281 145.259 108.219C138.09 115.081 137.188 120.322 137.188 120.322L140.415 119.809Z" fill="#1ADA9A"/>
<path opacity="0.15" d="M140.415 119.809C144.329 115.144 150.46 112.105 157.354 110.309C164.165 108.54 165.385 104.348 160.871 102.993C155.757 101.452 149.375 104.281 145.259 108.219C138.09 115.081 137.188 120.322 137.188 120.322L140.415 119.809Z" fill="black"/>
<path d="M138.4 119.527C138.371 119.533 138.342 119.533 138.313 119.527C138.289 119.516 138.268 119.5 138.251 119.48C138.234 119.461 138.22 119.438 138.212 119.413C138.203 119.388 138.2 119.362 138.202 119.336C138.203 119.31 138.21 119.284 138.222 119.261C144.031 107.34 156.897 104.408 160.012 104.631C160.064 104.635 160.113 104.659 160.147 104.698C160.181 104.738 160.198 104.789 160.195 104.841C160.19 104.893 160.165 104.942 160.125 104.976C160.085 105.01 160.033 105.027 159.98 105.024C156.929 104.793 144.297 107.698 138.579 119.436C138.56 119.465 138.533 119.489 138.502 119.505C138.47 119.521 138.435 119.528 138.4 119.527Z" fill="white"/>
<path d="M137.188 121.049C137.189 121.241 137.24 121.429 137.336 121.594C137.433 121.76 137.572 121.897 137.738 121.991C137.905 122.086 138.094 122.135 138.286 122.132C138.477 122.13 138.665 122.077 138.83 121.979C142.469 119.861 147.778 118.689 156.369 121.137C160.938 122.436 163.187 121.566 164.149 119.706C165.222 117.64 162.957 115.641 160.374 114.699C151.581 111.485 143.645 113.678 137.188 120.092V121.049Z" fill="#1ADA9A"/>
<path d="M137.693 121.22C137.665 121.22 137.637 121.215 137.611 121.204C137.585 121.193 137.562 121.177 137.543 121.156C137.506 121.119 137.485 121.068 137.485 121.015C137.485 120.963 137.506 120.912 137.543 120.874C145.136 114.087 156.897 115.411 161.348 118.057C161.393 118.084 161.426 118.127 161.439 118.177C161.453 118.228 161.445 118.282 161.419 118.327C161.392 118.373 161.348 118.405 161.297 118.419C161.246 118.432 161.191 118.425 161.145 118.399C156.774 115.804 145.251 114.513 137.809 121.18C137.775 121.204 137.735 121.218 137.693 121.22Z" fill="white"/>
<path d="M52.2314 136.872C48.8936 131.778 43.1638 128.035 36.5281 125.44C29.9797 122.881 29.2605 118.578 33.9016 117.759C39.1625 116.833 45.1665 120.397 48.7903 124.792C55.1003 132.453 55.3744 137.774 55.3744 137.774L52.2314 136.872Z" fill="#1ADA9A"/>
<path opacity="0.15" d="M52.2314 136.872C48.8936 131.778 43.1638 128.035 36.5281 125.44C29.9797 122.881 29.2605 118.578 33.9016 117.759C39.1625 116.833 45.1665 120.397 48.7903 124.792C55.1003 132.453 55.3744 137.774 55.3744 137.774L52.2314 136.872Z" fill="black"/>
<path d="M54.2492 136.84C54.2781 136.846 54.3078 136.846 54.3366 136.84C54.3862 136.822 54.4269 136.785 54.4499 136.738C54.4729 136.69 54.4764 136.636 54.4598 136.586C50.0889 124.065 37.6757 119.635 34.5446 119.499C34.4925 119.497 34.4417 119.516 34.4031 119.551C34.3644 119.585 34.341 119.634 34.3379 119.686C34.3368 119.739 34.3559 119.79 34.3914 119.829C34.4268 119.869 34.476 119.893 34.5287 119.897C37.5883 120.024 49.787 124.399 54.0823 136.729C54.0978 136.76 54.1214 136.787 54.1507 136.807C54.18 136.826 54.214 136.838 54.2492 136.84Z" fill="white"/>
<path d="M55.4019 137.531C55.3707 137.814 55.2673 138.083 55.1016 138.314C54.9359 138.545 54.7136 138.729 54.456 138.849C54.1984 138.969 53.9143 139.02 53.631 138.998C53.3478 138.976 53.075 138.881 52.839 138.723C49.4694 136.466 44.4509 135 36.2297 136.339C31.5409 137.09 29.4111 135.942 28.68 133.999C27.8614 131.821 30.3489 130.109 33.023 129.477C42.1343 127.323 49.7555 130.439 55.4098 137.563L55.4019 137.531Z" fill="#1ADA9A"/>
<path d="M54.7743 138.6C54.802 138.604 54.8303 138.602 54.8571 138.594C54.8839 138.585 54.9085 138.571 54.9292 138.552C54.9659 138.515 54.9864 138.464 54.9864 138.411C54.9864 138.359 54.9659 138.308 54.9292 138.27C48.1743 130.637 36.3531 130.562 31.6206 132.664C31.5721 132.685 31.5342 132.725 31.5152 132.775C31.4962 132.824 31.4977 132.879 31.5193 132.928C31.5409 132.976 31.5809 133.014 31.6304 133.033C31.68 133.052 31.735 133.051 31.7835 133.029C36.4206 130.967 48.0233 131.042 54.6312 138.533C54.6485 138.554 54.6703 138.571 54.6951 138.583C54.7198 138.594 54.7469 138.6 54.7743 138.6Z" fill="white"/>
<path d="M143.979 46.0848L143.916 46.053L128.769 37.3351L128.677 37.2914C121.6 33.7153 112.159 34.7921 102.003 41.3563C81.603 54.5484 66.0586 84.914 67.2824 109.18C67.8904 121.272 72.5553 129.564 79.6003 133.212L79.6599 133.244L94.8109 141.966L94.8825 142.005C101.959 145.582 111.408 144.521 121.573 137.948C141.973 124.756 157.517 94.3908 156.293 70.1246C155.693 58.0252 151.028 49.7325 143.979 46.0848Z" fill="#37474F"/>
<path d="M94.2908 141.684L79.6802 133.236L79.6087 133.192C72.5637 129.537 67.9027 121.244 67.2908 109.168C66.7464 98.3445 69.5398 86.3167 74.6021 75.1471L74.7014 74.9008L89.7531 83.865C84.6829 95.0345 81.8974 107.062 82.4418 117.886C83.018 129.723 87.4961 137.917 94.2908 141.684Z" fill="#263238"/>
<path d="M121.58 137.941C141.98 124.748 157.524 94.3829 156.301 70.1166C155.077 45.8504 137.546 36.8782 117.146 50.0702C96.7456 63.2623 81.1972 93.6279 82.4211 117.89C83.6449 142.152 101.18 151.133 121.58 137.941Z" fill="#455A64"/>
<path d="M138.857 44.2014L113.287 96.8782L107.784 90.918C106.143 89.2095 103.898 88.2127 101.53 88.1417C99.1619 88.0708 96.8607 88.9312 95.1204 90.5384C93.38 92.1455 92.3394 94.3711 92.2221 96.737C92.1047 99.103 92.9199 101.421 94.4926 103.192L108.992 118.899C110.586 120.632 112.796 121.67 115.147 121.792C115.314 121.792 115.481 121.792 115.648 121.792C116.086 121.792 116.525 121.76 116.959 121.697C118.418 121.484 119.804 120.918 120.994 120.046C122.184 119.175 123.142 118.025 123.785 116.698L153.11 56.3007C150.102 49.5934 145.095 45.4371 138.857 44.2014Z" fill="#37474F"/>
<path d="M159.623 26.853C159.464 26.7616 159.297 26.6742 159.13 26.5947C157.256 25.6866 155.098 25.559 153.13 26.2398C151.162 26.9207 149.544 28.3544 148.632 30.2265L116.097 97.2438L114.245 95.257C113.711 94.6731 113.089 94.1758 112.402 93.7829C111.432 93.2266 107.308 90.8385 106.64 90.4531C105.013 89.5117 103.102 89.1851 101.255 89.5324C99.4074 89.8797 97.7458 90.8779 96.5716 92.3459C95.3974 93.8138 94.7886 95.6542 94.8556 97.5328C94.9226 99.4113 95.661 101.204 96.9368 102.584L111.436 118.288C111.98 118.877 112.611 119.38 113.308 119.778C114.253 120.314 118.362 122.698 119.037 123.088C119.972 123.629 121.008 123.971 122.08 124.094C123.153 124.217 124.239 124.117 125.272 123.801C126.304 123.486 127.261 122.96 128.081 122.259C128.901 121.557 129.568 120.693 130.04 119.722L168.532 40.4385C169.397 38.6516 169.555 36.6035 168.973 34.7052C168.392 32.8068 167.114 31.1984 165.396 30.2027L159.623 26.853Z" fill="#1ADA9A"/>
<path opacity="0.15" d="M159.623 26.853C159.464 26.7616 159.297 26.6742 159.13 26.5947C157.256 25.6866 155.098 25.559 153.13 26.2398C151.162 26.9207 149.544 28.3544 148.632 30.2265L116.097 97.2438L114.245 95.257C113.711 94.6731 113.089 94.1758 112.402 93.7829C111.432 93.2266 107.308 90.8385 106.64 90.4531C105.013 89.5117 103.102 89.1851 101.255 89.5324C99.4074 89.8797 97.7458 90.8779 96.5716 92.3459C95.3974 93.8138 94.7886 95.6542 94.8556 97.5328C94.9226 99.4113 95.661 101.204 96.9368 102.584L111.436 118.288C111.98 118.877 112.611 119.38 113.308 119.778C114.253 120.314 118.362 122.698 119.037 123.088C119.972 123.629 121.008 123.971 122.08 124.094C123.153 124.217 124.239 124.117 125.272 123.801C126.304 123.486 127.261 122.96 128.081 122.259C128.901 121.557 129.568 120.693 130.04 119.722L168.532 40.4385C169.397 38.6516 169.555 36.6035 168.973 34.7052C168.392 32.8068 167.114 31.1984 165.396 30.2027L159.623 26.853Z" fill="black"/>
<path opacity="0.15" d="M119.018 123.072C118.35 122.674 114.249 120.29 113.292 119.762C112.595 119.364 111.964 118.861 111.42 118.272L96.9209 102.568C96.2815 101.871 95.774 101.063 95.4229 100.184L101.188 103.51C101.538 104.391 102.049 105.2 102.694 105.894L117.19 121.597C117.723 122.176 118.339 122.673 119.018 123.072Z" fill="black"/>
<path opacity="0.15" d="M156.221 31.1404C155.464 31.8202 154.846 32.6407 154.401 33.5563L120.936 102.489L116.097 97.2438L148.632 30.2265C149.075 29.3092 149.695 28.4883 150.456 27.8106L156.221 31.1404Z" fill="black"/>
<path d="M164.9 29.9245C163.026 29.0186 160.869 28.8921 158.901 29.5727C156.934 30.2534 155.316 31.6857 154.402 33.5563L120.937 102.489L114.25 95.2411C112.819 93.7874 110.878 92.9477 108.838 92.8998C106.799 92.852 104.821 93.5998 103.323 94.9849C101.826 96.3701 100.926 98.2837 100.814 100.321C100.703 102.358 101.389 104.358 102.727 105.898L117.222 121.605C118.09 122.544 119.173 123.257 120.379 123.682C121.585 124.107 122.876 124.231 124.141 124.044C125.405 123.857 126.605 123.364 127.636 122.608C128.667 121.852 129.498 120.856 130.056 119.706L168.548 40.4226C169.455 38.5465 169.58 36.3871 168.896 34.4188C168.212 32.4504 166.775 30.834 164.9 29.9245Z" fill="#1ADA9A"/>
<path d="M55.1353 37.6729C52.1035 37.6729 50.0293 38.4676 47.8757 41.5272C45.8889 44.3404 40.469 53.7179 40.469 53.7179C40.469 53.7179 36.4955 45.5643 36.0982 43.9391C35.7008 42.314 35.7247 41.5908 36.0982 40.8835C36.6451 40.0475 36.988 39.0948 37.0995 38.102C37.2545 36.1471 37.7313 34.4742 37.2942 34.4186C36.0823 34.351 36.0346 35.9087 35.3988 36.8265C35.3181 36.9151 35.2176 36.9835 35.1055 37.026C34.9934 37.0685 34.8729 37.084 34.7537 37.0712C34.6345 37.0585 34.52 37.0178 34.4194 36.9525C34.3189 36.8872 34.2351 36.7991 34.175 36.6954C33.9088 36.151 34.0518 35.257 33.9247 34.6133C33.9591 34.2551 34.0162 33.8994 34.0955 33.5484C34.5545 33.631 35.0233 33.6444 35.4862 33.5881C36.0108 34.4106 36.3684 34.7563 37.0995 34.4226C37.1949 34.2716 36.7856 33.2305 36.3048 32.4358C36.2326 32.3142 36.1156 32.2258 35.979 32.1894C35.0975 31.9662 34.1775 31.9404 33.2849 32.1139C33.2174 32.1209 33.152 32.1413 33.0926 32.1741C33.0333 32.2069 32.9811 32.2513 32.9392 32.3047C32.6038 32.7962 32.3364 33.3308 32.1445 33.8941C32.0929 34.0649 31.9339 34.061 31.8942 33.9139C31.4968 31.9947 31.4968 29.2689 31.4968 27.9934C31.4968 26.9881 30.0306 26.8292 29.979 28.2676C29.8918 30.1976 29.925 32.1311 30.0783 34.057C30.0783 34.2318 29.9035 34.3153 29.8319 34.1245C29.5776 33.4451 28.9538 31.3908 28.6915 27.8464C28.62 26.8928 27.0783 26.7378 27.1021 28.0769C27.1625 30.451 27.4715 32.8122 28.024 35.1219C28.0717 35.2888 27.9167 35.4358 27.8015 35.2451C27.0781 33.8512 26.5002 32.3865 26.077 30.8742C25.7472 29.7219 24.2094 30.0159 24.4876 31.4504C24.9684 34.0212 25.7313 37.2716 26.8717 39.5961C28.0876 42.0795 29.1366 43.3232 29.7405 45.2742C30.3445 47.2252 32.8439 58.2756 35.518 62.5828C37.6121 65.9603 40.0081 65.6464 42.5869 63.8663C45.1657 62.0862 54.3803 49.2477 54.3803 49.2477L55.1353 37.6729Z" fill="#9E6767"/>
<path d="M40.4688 53.714C40.4688 53.714 41.7601 55.9034 41.9588 57.6557C42.2871 55.9543 41.9607 54.1916 41.0449 52.7206L40.4688 53.714Z" fill="#874C4C"/>
<path d="M55.7794 37.6729C54.2377 37.514 52.3185 37.4623 50.1807 38.8093C48.043 40.1563 47.296 42.0318 46.2589 43.6729C45.2218 45.314 41.6377 51.1272 41.6377 51.1272C41.6377 51.1272 42.9529 56.6464 48.1821 57.7828L56.0139 47.1577L55.7794 37.6729Z" fill="#455A64"/>
<path d="M62.7998 134.718C63.1971 134.666 63.7256 136.021 63.7335 136.462C63.7415 136.903 63.2965 137.853 62.7123 138.743C61.9316 139.803 61.2844 140.955 60.7852 142.172C60.3362 143.396 59.9229 144.199 58.6713 145.8C57.2806 147.584 54.0143 150.568 49.0554 149.273C47.8435 148.955 47.2395 148.574 46.7984 148.133C46.6049 147.937 46.47 147.691 46.4089 147.423C46.3478 147.155 46.363 146.875 46.4527 146.615L62.7998 134.718Z" fill="#263238"/>
<path d="M53.0576 133.168V133.212C53.0007 133.583 53.0115 133.961 53.0894 134.329C53.2257 135.423 53.1286 136.534 52.8047 137.588C52.4808 138.642 51.9372 139.615 51.2099 140.444C50.5191 141.165 49.7393 141.795 48.8894 142.319C46.3781 143.909 46.1079 144.994 46.4615 146.615C47.3039 148.502 52.998 149.65 56.2721 146.841C57.6849 145.745 58.7649 144.277 59.3914 142.601C59.8665 141.402 60.4187 140.234 61.0443 139.105C61.6761 137.913 62.8761 136.57 62.9119 135.342C62.9318 134.666 62.2642 133.411 61.6165 132.378C61.0205 131.428 60.4046 130.526 59.8682 130.629L60.0192 131.166C59.5702 131.631 58.9225 131.805 58.5331 132.358C58.0483 133.029 58.0642 133.947 57.7662 134.702C57.7565 134.741 57.7382 134.777 57.7128 134.808C57.6874 134.839 57.6554 134.864 57.6192 134.881C57.5772 134.888 57.5341 134.881 57.4962 134.862C57.4583 134.843 57.4276 134.812 57.4086 134.774C57.3761 134.696 57.3612 134.612 57.3649 134.527L57.3291 133.371C57.347 133.149 57.2881 132.927 57.1622 132.743C56.8523 132.393 56.0894 132.433 55.6642 132.417C55.0919 132.422 54.5203 132.456 53.9516 132.521C53.7545 132.501 53.557 132.553 53.3953 132.668C53.2329 132.795 53.1147 132.97 53.0576 133.168Z" fill="#37474F"/>
<path d="M44.6411 110.066C45.9643 114.417 52.1511 129.481 52.5206 130.387L53.7524 133.375C54.5636 133.642 55.4327 133.679 56.2637 133.482C56.3948 134.925 56.6133 137.186 56.6968 138.326C56.7286 139.649 56.8438 141.286 56.5577 142.594C56.3153 143.706 56.0332 144.874 55.8226 145.991C55.7312 146.484 55.6398 146.98 55.5643 147.477C55.4361 147.997 55.4793 148.545 55.6875 149.039C55.8142 149.254 55.9816 149.443 56.1802 149.595C57.0628 150.288 58.1782 150.615 59.2954 150.509C59.8862 150.48 60.4578 150.291 60.9484 149.96C61.91 149.273 62.2478 148.077 62.7365 147.06C63.269 145.959 63.0981 145.836 63.1339 144.656C63.1656 143.829 63.3961 141.731 63.7259 139.538C64.0557 137.345 65.4782 129.636 66.1617 121.955C66.4402 118.544 66.4402 115.115 66.1617 111.703C71.5895 96.9578 74.0054 88.1882 74.7166 83.2928C75.4359 78.318 75.0902 76.5379 74.9988 73.6809L48.6027 74.3167C46.4888 87.9617 42.865 104.233 44.6411 110.066Z" fill="#9E6767"/>
<path d="M44.2278 99.1789C44.7721 94.1644 48.5231 74.8889 48.5231 74.8889H75.1139C75.1139 74.8889 75.2847 78.5882 75.2371 80.2889C75.1894 81.9895 74.641 85.0928 73.6914 89.0306C72.7417 92.9683 69.2212 104.082 68.5258 105.719C67.8304 107.356 66.539 112.105 66.539 112.105C67.1907 121.021 65.494 129.024 64.2225 139.661C64.2225 139.661 63.8529 141.096 60.0861 140.813C56.4225 140.535 55.6834 139.184 55.6834 139.184L55.441 130.009C55.441 130.009 53.4543 130.621 52.2622 130.343C52.2622 130.343 44.3907 110.909 44.0092 109.741C43.6278 108.572 43.6834 104.194 44.2278 99.1789Z" fill="#1ADA9A"/>
<path opacity="0.45" d="M44.2278 99.1789C44.7721 94.1644 48.5231 74.8889 48.5231 74.8889H75.1139C75.1139 74.8889 75.2847 78.5882 75.2371 80.2889C75.1894 81.9895 74.641 85.0928 73.6914 89.0306C72.7417 92.9683 69.2212 104.082 68.5258 105.719C67.8304 107.356 66.539 112.105 66.539 112.105C67.1907 121.021 65.494 129.024 64.2225 139.661C64.2225 139.661 63.8529 141.096 60.0861 140.813C56.4225 140.535 55.6834 139.184 55.6834 139.184L55.441 130.009C55.441 130.009 53.4543 130.621 52.2622 130.343C52.2622 130.343 44.3907 110.909 44.0092 109.741C43.6278 108.572 43.6834 104.194 44.2278 99.1789Z" fill="black"/>
<path opacity="0.2" d="M55.5086 87.4531C51.7417 84.0597 50.9033 81.3577 50.9033 81.3577C52.7972 83.4913 55.0397 85.2877 57.5351 86.6703C57.5351 86.6703 53.9589 105.552 54.2212 109.435C54.4835 113.317 55.4411 130.009 55.4411 130.009C55.4411 130.168 52.906 112.355 52.8305 110.937C52.6596 107.182 55.5086 87.4531 55.5086 87.4531Z" fill="black"/>
<path d="M63.7858 149.114C64.1554 149.221 64.1077 150.326 63.9408 150.739C63.5273 151.46 62.9416 152.068 62.2362 152.507C61.2023 153.212 60.34 154.139 59.713 155.221C58.6927 156.782 57.3433 158.1 55.7593 159.084C53.6496 160.281 51.163 160.629 48.8057 160.057C46.3103 159.35 46.0798 158.738 46.0997 157.796L63.7858 149.114Z" fill="#263238"/>
<path d="M56.0766 143.337C55.421 146.515 54.2805 148.852 51.6382 150.815C49.5322 152.38 48.0064 153.175 46.3256 154.57C45.6143 155.166 45.5547 156.433 46.0991 157.8C47.2355 158.71 48.8488 159.235 51.0143 159.231C53.4382 159.231 54.368 158.798 55.7587 157.848C56.4419 157.381 57.078 156.849 57.658 156.258C58.8223 155.09 59.6448 153.648 60.4713 152.722C61.2978 151.796 63.1296 150.85 63.6501 149.734C63.9362 149.122 63.817 147.703 63.6263 146.496C63.4514 145.387 63.7892 143.44 63.2567 143.317L63.1812 144.111C63.1375 144.29 63.0263 144.382 62.6527 144.509C62.317 144.582 61.9707 144.591 61.6316 144.537C61.511 144.493 61.3798 144.488 61.2565 144.523C61.1331 144.558 61.0239 144.631 60.9441 144.731C60.5865 145.152 60.4912 145.749 60.0302 146.098C60.0004 146.124 59.9651 146.143 59.9269 146.154C59.9092 146.164 59.8891 146.169 59.8687 146.168C59.8484 146.167 59.8287 146.161 59.8117 146.15C59.7994 146.131 59.7912 146.109 59.7878 146.086C59.7844 146.064 59.7857 146.041 59.7918 146.019L59.9229 144.827C59.9388 144.708 59.9388 144.588 59.9229 144.469C59.898 144.358 59.8496 144.254 59.7811 144.164C59.7126 144.073 59.6254 143.999 59.5256 143.945C59.1909 143.75 58.8313 143.601 58.4567 143.503C58.0668 143.398 57.6676 143.33 57.2647 143.301C56.8692 143.25 56.4683 143.262 56.0766 143.337Z" fill="#455A64"/>
<path d="M72.7143 38.8133C72.7143 38.8133 73.807 40.3153 74.701 43.4107C75.7893 48.4943 76.3486 53.6768 76.3699 58.8756C76.3699 65.8968 75.4242 77.2729 75.4242 77.2729C67.2745 81.3577 54.1302 78.9418 48.3447 74.9564C48.5792 73.6928 48.7778 67.0491 49.2348 62.6663C49.5408 55.1484 49.7951 51.2107 49.8467 47.865C49.954 41.1815 53.2798 37.7285 55.807 37.6769L62.1884 37.7762L72.7143 38.8133Z" fill="#1ADA9A"/>
<path d="M74.7246 75.2107C73.5127 76.208 71.1484 78.1233 70.6994 79.0888C70.1988 80.1935 69.9047 81.8703 69.567 82.4981C69.2292 83.1259 69.7378 83.4438 70.4372 83.2173C71.1365 82.9908 71.5537 82.3988 72.0941 80.9524C72.6345 79.5061 74.1365 78.3736 74.1365 78.3736L74.7246 75.2107Z" fill="#874C4C"/>
<path d="M70.2985 88.216C70.5886 88.7762 71.2641 88.7802 71.888 88.8279C72.6485 88.9151 73.419 88.8282 74.1409 88.5736C75.0086 88.323 75.7696 87.7938 76.3065 87.0676C76.9184 86.1855 77.0774 85.0809 77.427 84.0676C78.1582 81.9418 80.3356 80.408 80.6933 78.1551C80.8403 77.2253 80.8403 76.1286 81.0906 75.5524C81.2456 75.2107 84.8257 69.0478 86.1052 66.3776C87.329 63.8107 88.2469 62.6027 87.1343 59.5193C86.0217 56.4358 82.235 45.5842 79.5529 41.8133C78.035 39.6755 75.6231 39.0636 72.6985 38.8133C70.4734 44.6067 73.0601 50.5948 73.0601 50.5948L78.9648 61.9511C78.9648 61.9511 76.676 69.7709 75.2456 74.118C74.8482 75.31 74.0535 76.0729 73.1436 77.412C72.7462 77.9921 71.8482 79.0014 71.5303 79.6332C71.133 80.4279 71.133 80.9524 70.9343 82.0769C70.6244 83.869 70.1436 87.9498 70.2985 88.216Z" fill="#9E6767"/>
<path d="M72.3999 38.7815C73.9376 38.8411 76.1469 39.1033 77.4661 39.7709C78.7853 40.4384 79.7032 41.261 81.2211 44.3047C82.739 47.3484 84.9602 53.261 84.9602 53.261C84.9602 53.261 84.2251 57.7232 77.1681 58.8795L72.3999 50.0861C72.3999 50.0861 70.2741 44.6067 72.3999 38.7815Z" fill="#455A64"/>
<path d="M54.0663 24.5802C54.2748 24.9572 54.4554 25.349 54.6067 25.7524C54.8418 26.2793 55.1421 26.7745 55.5007 27.2265C56.4146 28.2795 57.6981 29.0504 58.8703 29.7974C59.5776 30.2504 60.3882 30.6756 61.2544 30.5524C62.1206 30.4292 63.0862 30.6159 63.9802 30.6954L67.1074 30.9775L66.9325 34.2636C66.9325 34.2636 67.3299 33.3934 67.8504 32.3524C68.3034 31.4583 70.2027 26.9246 70.2107 26.9047C71.1524 24.6597 72.269 21.6636 71.1445 19.3034C70.8888 18.7221 70.4618 18.2328 69.9206 17.9007C70.0295 17.5378 70.0646 17.1568 70.0239 16.7802C69.9614 16.2454 69.7797 15.7315 69.4923 15.2763C69.2048 14.821 68.8189 14.4361 68.363 14.1497C67.473 13.5483 66.4698 13.1345 65.4146 12.9338C64.0152 12.6119 62.5831 12.4532 61.1471 12.461C59.7401 12.5039 58.3391 12.6647 56.959 12.9418C56.1891 13.084 55.4092 13.165 54.6266 13.1841C54.2894 13.2062 53.9508 13.1902 53.6173 13.1365C53.2027 13.0126 52.7954 12.8653 52.3974 12.6954C52.3628 12.6809 52.3257 12.6734 52.2881 12.6734C52.2506 12.6734 52.2135 12.6809 52.1789 12.6954C52.1473 12.7164 52.1207 12.7439 52.1008 12.7761C52.0809 12.8084 52.0682 12.8446 52.0636 12.8822C51.9603 13.3782 51.9646 13.8907 52.0764 14.3849C52.1881 14.8792 52.4046 15.3437 52.7113 15.7471C52.5326 15.7227 52.3585 15.6718 52.1948 15.5961C52.0089 15.51 51.8296 15.4104 51.6583 15.2981C51.3667 15.1025 51.1113 14.8578 50.9034 14.5749C50.8747 14.5305 50.8309 14.4981 50.7802 14.4835C50.7007 14.4835 50.6371 14.5391 50.5895 14.6027C50.375 14.9216 50.229 15.2815 50.1606 15.6597C50.0922 16.0379 50.1029 16.4262 50.1921 16.8C50.3674 17.5504 50.7219 18.2471 51.2252 18.8305C50.9797 19.2273 50.8379 19.6794 50.8129 20.1453C50.7879 20.6113 50.8805 21.076 51.0822 21.4967C51.2589 21.8699 51.4966 22.211 51.7855 22.506C52.1431 22.8716 52.5802 23.1696 52.9418 23.5113C53.3564 23.8232 53.7337 24.1819 54.0663 24.5802Z" fill="#37474F"/>
<path d="M63.5907 19.1047C63.5791 19.6981 63.6554 20.2899 63.8172 20.861C64.0057 21.3626 64.3092 21.813 64.7033 22.1762C65.149 22.5544 65.5612 22.9705 65.935 23.4199C66.3386 24.1194 66.5752 24.9027 66.6264 25.7086C66.6287 25.946 66.6842 26.1799 66.7887 26.3931C66.8932 26.6062 67.0441 26.7933 67.2304 26.9404C68.0807 27.4689 68.5893 26.4477 69.0423 25.9471C69.6264 25.4067 71.3629 24.755 72.1655 26.5908C72.996 28.4981 71.4622 31.0252 70.0675 31.4146C67.6635 32.0861 67.139 30.449 67.139 30.449L66.6781 39.0318C65.3231 41.6027 62.1364 42.4212 60.0423 42.012C58.2344 41.6583 57.241 40.3908 58.9417 38.555L59.033 35.9404C59.033 35.9404 56.8635 36.1987 55.8185 36C54.0741 35.6742 53.2119 34.1921 52.739 32.2808C51.988 29.2093 51.6423 25.9788 52.5761 19.061C53.0013 18.8265 54.7218 20.1656 57.3443 20.3444C59.4998 20.4963 61.6566 20.0683 63.5907 19.1047Z" fill="#9E6767"/>
<path d="M59.0172 35.9325C59.0172 35.9325 62.951 35.2729 64.3417 34.5894C65.1578 34.1964 65.8364 33.5663 66.2887 32.7815C66.0565 33.574 65.6673 34.3118 65.1444 34.951C64.1033 36.1947 58.9814 36.9735 58.9814 36.9735L59.0172 35.9325Z" fill="#874C4C"/>
<path d="M61.0635 22.1762L62.8953 22.7365C62.9653 22.4862 62.9358 22.2186 62.8128 21.9897C62.6898 21.7608 62.483 21.5884 62.2357 21.5087C62.1149 21.4733 61.9882 21.4626 61.8631 21.4772C61.7381 21.4918 61.6173 21.5314 61.5079 21.5937C61.3985 21.656 61.3028 21.7397 61.2265 21.8398C61.1501 21.9398 61.0947 22.0543 61.0635 22.1762Z" fill="#263238"/>
<path d="M60.4275 30.8544L57.7295 31.7683C57.782 31.9486 57.8702 32.1166 57.9889 32.2621C58.1076 32.4077 58.2542 32.528 58.4203 32.6159C58.5863 32.7037 58.7683 32.7573 58.9554 32.7734C59.1425 32.7896 59.331 32.768 59.5096 32.71C59.8727 32.5791 60.171 32.3128 60.3421 31.9669C60.5132 31.621 60.5438 31.2223 60.4275 30.8544Z" fill="#874C4C"/>
<path d="M60.2096 31.514C59.8575 31.5142 59.5154 31.6315 59.237 31.8472C58.9587 32.063 58.7599 32.3651 58.6719 32.706C58.9442 32.7955 59.238 32.7955 59.5103 32.706C59.7616 32.6171 59.984 32.4614 60.1534 32.2555C60.3228 32.0497 60.4329 31.8016 60.4719 31.5378C60.3853 31.522 60.2976 31.5141 60.2096 31.514Z" fill="#F28F8F"/>
<path d="M52.8858 22.4663L54.7494 22.2239C54.7353 22.1032 54.6971 21.9866 54.6372 21.881C54.5772 21.7753 54.4968 21.6827 54.4005 21.6086C54.3042 21.5346 54.194 21.4805 54.0765 21.4497C53.959 21.4189 53.8365 21.4119 53.7163 21.4292C53.4706 21.461 53.2468 21.5869 53.092 21.7803C52.9371 21.9737 52.8632 22.2195 52.8858 22.4663Z" fill="#263238"/>
<path d="M64.3418 23.261L70.4888 25.355C70.1444 25.359 69.8055 25.442 69.4982 25.5977C69.1909 25.7534 68.9235 25.9776 68.7166 26.253L64.3656 24.6001L64.3418 23.261Z" fill="#263238"/>
<path d="M53.8046 25.661C53.7976 25.7599 53.8105 25.8592 53.8424 25.953C53.8744 26.0469 53.9248 26.1334 53.9907 26.2074C54.0566 26.2815 54.1367 26.3416 54.2262 26.3842C54.3157 26.4269 54.4128 26.4512 54.5119 26.4557C54.6105 26.4567 54.7084 26.4384 54.7999 26.4016C54.8914 26.3648 54.9748 26.3104 55.0452 26.2414C55.1157 26.1724 55.1719 26.0902 55.2106 25.9994C55.2493 25.9087 55.2698 25.8113 55.2708 25.7127C55.2778 25.6138 55.2649 25.5145 55.233 25.4206C55.201 25.3268 55.1506 25.2403 55.0847 25.1662C55.0188 25.0922 54.9387 25.032 54.8492 24.9894C54.7597 24.9468 54.6626 24.9225 54.5635 24.918C54.4649 24.9169 54.367 24.9353 54.2755 24.9721C54.184 25.0088 54.1006 25.0633 54.0302 25.1323C53.9597 25.2013 53.9035 25.2835 53.8648 25.3742C53.8261 25.4649 53.8056 25.5624 53.8046 25.661Z" fill="#263238"/>
<path d="M60.8252 25.661C60.8261 25.8052 60.8693 25.9459 60.9495 26.0657C61.0298 26.1855 61.1435 26.2791 61.2765 26.3347C61.4095 26.3904 61.5559 26.4057 61.6976 26.3788C61.8392 26.3519 61.9698 26.2839 62.0731 26.1833C62.1764 26.0827 62.2479 25.9539 62.2786 25.813C62.3092 25.6722 62.2978 25.5254 62.2457 25.3909C62.1936 25.2565 62.1031 25.1403 61.9854 25.0569C61.8678 24.9736 61.7282 24.9266 61.5841 24.9219C61.3856 24.9198 61.1944 24.9963 61.0521 25.1348C60.9099 25.2733 60.8283 25.4625 60.8252 25.661Z" fill="#263238"/>
<path d="M50.1762 23.706C50.2212 24.0274 50.3594 24.3285 50.5736 24.5722C50.6474 24.6629 50.7003 24.7687 50.7286 24.8822C50.8716 25.4742 50.9948 26.5948 51.2769 27.2226C51.4685 27.7286 51.8146 28.1614 52.2661 28.4595C52.7176 28.7577 53.2515 28.906 53.7921 28.8835C54.0801 28.8943 54.3682 28.8703 54.6504 28.812H54.714C54.9589 28.7543 55.1944 28.662 55.4133 28.5378L55.4531 28.51L55.5127 28.4742L55.5882 28.4226L55.6557 28.3669L55.7312 28.3073C55.7577 28.2893 55.7817 28.268 55.8027 28.2438C55.8508 28.2004 55.8959 28.1539 55.9378 28.1047C56.1723 27.8424 56.3617 27.5429 56.4981 27.2186C56.8637 26.4001 56.7683 25.2557 57.3643 25.1206H57.4358H57.5153C58.31 25.1206 58.2385 26.3802 58.7074 27.2702C59.1762 28.1603 59.8994 29.0305 61.6756 29.0544H61.9021C61.9629 29.0584 62.024 29.0584 62.0849 29.0544C62.2279 29.0456 62.3701 29.0257 62.51 28.9948L62.6411 28.963C62.6842 28.9534 62.7266 28.9415 62.7683 28.9272L62.8517 28.9034C63.0182 28.8447 63.178 28.7688 63.3286 28.6769C63.3839 28.6448 63.437 28.609 63.4875 28.5696C63.5862 28.4974 63.6779 28.4163 63.7617 28.3272C63.9882 28.0858 64.1699 27.8059 64.2981 27.5007C64.5723 26.8848 64.6438 25.7643 64.7789 25.1802C64.8026 25.0602 64.8484 24.9457 64.914 24.8424C65.1262 24.6098 65.2645 24.3194 65.3113 24.008C65.3209 23.8485 65.2778 23.6902 65.1888 23.5574C65.0998 23.4247 64.9698 23.3247 64.8186 23.2729L64.3855 23.2173C62.9948 23.0464 61.1829 22.9749 60.0981 23.2689C58.7392 23.6385 58.2663 24.0636 57.5074 24.0636C56.7484 24.0636 56.3392 23.5947 55.0478 23.1736C54.0226 22.8398 52.3259 22.8517 51.0305 22.9709L50.6332 23.0106C50.4919 23.0612 50.3708 23.1564 50.2884 23.2819C50.206 23.4073 50.1666 23.5562 50.1762 23.706ZM59.1246 24.5603C59.2318 24.4272 59.3676 24.3199 59.5219 24.2464C59.5431 24.231 59.5657 24.2177 59.5895 24.2067H59.6292C59.6888 24.1749 59.7524 24.1431 59.82 24.1153L59.9988 24.0438C60.1884 23.9717 60.3821 23.9106 60.5789 23.861L60.8094 23.8053C61.008 23.7656 61.2067 23.7338 61.4054 23.714C61.453 23.7102 61.5008 23.7102 61.5484 23.714C62.8557 23.6067 63.6743 23.9166 63.9723 24.1828C64.2703 24.4491 64.1392 25.6729 64.016 26.2888V26.3325C64.016 26.3325 64.016 26.3643 64.016 26.3802C64.016 26.4557 63.9842 26.5391 63.9604 26.6305C63.9365 26.7219 63.9325 26.7298 63.9166 26.7815C63.8888 26.8649 63.861 26.9484 63.8292 27.0358C63.8176 27.0657 63.8044 27.0949 63.7895 27.1232C63.7839 27.1408 63.7773 27.1581 63.7696 27.1749L63.7418 27.2345L63.706 27.306L63.6623 27.3895C63.6623 27.4173 63.6266 27.4451 63.6067 27.4729C63.5905 27.5035 63.5719 27.5327 63.5511 27.5603C63.3461 27.8501 63.0698 28.0822 62.7489 28.2339C62.428 28.3857 62.0734 28.452 61.7193 28.4265C61.3635 28.446 61.0077 28.3902 60.675 28.2628C60.3422 28.1355 60.04 27.9394 59.7882 27.6875C59.4745 27.3354 59.2569 26.9084 59.1564 26.4477C58.9617 25.7524 58.8703 24.9338 59.1246 24.5603ZM51.4239 23.9206C51.5185 23.8366 51.6258 23.7682 51.7418 23.7179H51.7656L51.9087 23.6623L51.9961 23.6345H52.0676H52.1153H52.1352H52.2067C52.2981 23.6345 52.3974 23.5987 52.5087 23.5828H52.6716H53.2001C53.3908 23.5828 53.5974 23.6106 53.8041 23.6385C54.7378 23.7736 55.7153 24.2067 55.9696 24.5921C56.2239 24.9775 56.1683 25.7842 56.0451 26.4557C56.0184 26.6124 55.9785 26.7666 55.9259 26.9166C55.9247 26.9285 55.9247 26.9405 55.9259 26.9524C55.9259 26.9524 55.9259 26.9802 55.9259 26.9961V27.0279L55.9021 27.0835L55.8544 27.1948C55.8544 27.2265 55.8226 27.2623 55.8027 27.2941C55.8034 27.3047 55.8034 27.3153 55.8027 27.3259L55.763 27.3934L55.7272 27.4491C55.5152 27.7614 55.2216 28.0096 54.8783 28.1665C54.5349 28.3235 54.1551 28.3832 53.7802 28.3391C53.4409 28.3318 53.1073 28.2505 52.8027 28.1007C51.8729 27.6318 51.6345 26.5868 51.5272 26.114C51.3286 25.4027 51.1458 24.1828 51.4239 23.9166V23.9206Z" fill="#263238"/>
<path d="M57.7303 25.1404L57.5912 30.2504L54.7422 29.4239L57.4005 25.0967C57.5123 25.0861 57.6251 25.101 57.7303 25.1404Z" fill="#874C4C"/>
<path d="M97.5685 25.7881C105.699 25.7881 112.29 20.0152 112.29 12.894C112.29 5.77286 105.699 0 97.5685 0C89.4379 0 82.8467 5.77286 82.8467 12.894C82.8467 20.0152 89.4379 25.7881 97.5685 25.7881Z" fill="#1ADA9A"/>
<path d="M85.8189 20.3524C85.7354 22.0808 84.2732 25.1722 81.6308 26.3126C81.5955 26.3276 81.5658 26.3534 81.5459 26.3862C81.5261 26.419 81.517 26.4573 81.5201 26.4955C81.5232 26.5337 81.5382 26.57 81.5631 26.5993C81.5879 26.6285 81.6214 26.6491 81.6586 26.6583C83.1691 26.9931 84.7445 26.8796 86.1915 26.3319C87.6385 25.7842 88.8941 24.826 89.8043 23.5749L85.8189 20.3524Z" fill="#1ADA9A"/>
<path d="M87.5867 11.8728C87.62 11.3077 87.7546 10.7532 87.9841 10.2357C88.2004 9.72946 88.5229 9.27552 88.9298 8.90461C89.3596 8.51129 89.8616 8.20499 90.4079 8.00263C91.7182 7.55756 93.1388 7.55756 94.449 8.00263C95.0006 8.20406 95.5079 8.51035 95.943 8.90461C96.3481 9.28313 96.6678 9.74371 96.8808 10.2556C97.1103 10.7731 97.2449 11.3276 97.2781 11.8927C97.298 12.3377 97.306 12.8026 97.306 13.2874C97.306 13.7722 97.306 14.2291 97.2781 14.6503C97.2449 15.2154 97.1103 15.7699 96.8808 16.2874C96.6621 16.7946 96.34 17.2507 95.9351 17.6265C95.5028 18.0245 94.9946 18.3313 94.4411 18.5285C93.129 18.9628 91.712 18.9628 90.4 18.5285C89.8486 18.3316 89.343 18.0247 88.9139 17.6265C88.5077 17.2519 88.1854 16.7955 87.9682 16.2874C87.7387 15.7699 87.6041 15.2154 87.5709 14.6503C87.551 14.2291 87.5391 13.7722 87.5391 13.2874C87.5391 12.8026 87.5669 12.3179 87.5867 11.8728ZM94.3815 14.5549C94.3815 14.3682 94.4013 14.1576 94.4132 13.9351C94.4252 13.7126 94.4132 13.4742 94.4132 13.2357C94.4132 12.9973 94.4132 12.7669 94.4132 12.5443C94.4132 12.3218 94.3894 12.147 94.3815 11.9483C94.3643 11.7042 94.3094 11.4643 94.2185 11.2371C94.133 11.0247 94.006 10.8316 93.845 10.6689C93.6752 10.5024 93.4721 10.3737 93.249 10.2914C92.7068 10.1061 92.1184 10.1061 91.5762 10.2914C91.3523 10.3746 91.1481 10.5031 90.9761 10.6689C90.8163 10.8317 90.6907 11.0249 90.6066 11.2371C90.5158 11.4643 90.4608 11.7042 90.4437 11.9483C90.4192 12.1461 90.406 12.3451 90.404 12.5443C90.404 12.7669 90.404 12.9973 90.404 13.2357C90.404 13.4742 90.404 13.7046 90.404 13.9351C90.406 14.1423 90.4193 14.3492 90.4437 14.5549C90.4678 15.0326 90.6558 15.4873 90.9761 15.8424C91.1666 16.0225 91.3926 16.1608 91.6396 16.2484C91.8866 16.336 92.1492 16.3709 92.4106 16.351C92.6708 16.3718 92.9325 16.3372 93.1783 16.2495C93.4242 16.1619 93.6487 16.0231 93.8371 15.8424C94.1546 15.4844 94.3458 15.0321 94.3815 14.5549Z" fill="#FAFAFA"/>
<path d="M108.289 18.1669C108.322 18.2175 108.337 18.2775 108.332 18.3377C108.333 18.3822 108.324 18.4262 108.307 18.4672C108.29 18.5082 108.265 18.5453 108.233 18.5762C108.202 18.6086 108.165 18.6345 108.124 18.6523C108.083 18.67 108.039 18.6793 107.995 18.6795H105.507C105.381 18.6841 105.257 18.6509 105.15 18.5841C105.046 18.5087 104.953 18.4206 104.871 18.3218L101.931 14.6265V18.2543C101.929 18.3614 101.888 18.4641 101.814 18.542C101.741 18.62 101.641 18.6676 101.534 18.6755H99.4993C99.4442 18.6759 99.3895 18.6648 99.3389 18.6429C99.2883 18.621 99.2428 18.5888 99.2053 18.5483C99.1656 18.5105 99.1341 18.4648 99.1129 18.4142C99.0917 18.3636 99.0812 18.3092 99.0821 18.2543V8.24502C99.0812 8.19016 99.0917 8.13571 99.1129 8.0851C99.1341 8.0345 99.1656 7.98883 99.2053 7.95098C99.2428 7.91054 99.2883 7.87835 99.3389 7.85646C99.3895 7.83456 99.4442 7.82345 99.4993 7.82383H101.534C101.641 7.83175 101.741 7.87936 101.814 7.9573C101.888 8.03525 101.929 8.13788 101.931 8.24502V11.5152L104.661 8.16555C104.723 8.0907 104.79 8.01909 104.86 7.95098C104.978 7.85493 105.129 7.80926 105.281 7.82383H107.697C107.742 7.82346 107.787 7.83245 107.829 7.85022C107.87 7.868 107.908 7.89418 107.939 7.92714C107.971 7.95801 107.996 7.99508 108.013 8.03608C108.03 8.07708 108.039 8.12114 108.038 8.16555C108.042 8.22628 108.026 8.28658 107.991 8.33641L104.176 13.0371L108.289 18.1669Z" fill="#FAFAFA"/>
<path d="M135.555 25.0848L133.326 25.7564L131.717 20.3802L133.938 19.7126L135.555 25.0848Z" fill="#E0E0E0"/>
<path d="M142.513 20.3126C142.531 20.5307 142.48 20.749 142.367 20.9361C142.253 21.1232 142.083 21.2695 141.881 21.3537C142.026 21.518 142.133 21.7119 142.195 21.9219C142.322 22.3193 141.984 22.8954 141.313 23.114L136.215 24.6477L134.717 19.653C134.717 19.653 135.579 17.4477 135.623 17.1139C135.666 16.7802 135.158 15.5563 135.086 15.3259C135.015 15.0954 135.841 14.7934 136.493 15.0557C136.644 15.1231 136.78 15.2219 136.89 15.3457C137.125 15.5953 137.321 15.8778 137.474 16.1841C137.691 16.6208 137.797 17.1037 137.784 17.5908L140.872 16.649C141.085 16.572 141.318 16.572 141.531 16.649C141.671 16.7042 141.794 16.7944 141.888 16.911C141.982 17.0276 142.045 17.1666 142.07 17.3146C142.095 17.4625 142.081 17.6143 142.03 17.7553C141.978 17.8963 141.892 18.0217 141.778 18.1192C141.961 18.1059 142.144 18.1547 142.297 18.2577C142.45 18.3608 142.564 18.5121 142.62 18.6875C142.667 18.8913 142.642 19.1053 142.55 19.2929C142.457 19.4805 142.302 19.6302 142.111 19.7166C142.318 19.8557 142.461 20.0694 142.513 20.3126Z" fill="#E0E0E0"/>
<path d="M167.494 80.8292L164.637 80.1418L166.302 73.2517L169.159 73.9391L167.494 80.8292Z" fill="#E0E0E0"/>
<path d="M178.131 80.0544C178.012 80.304 177.817 80.5096 177.575 80.6416C177.332 80.7737 177.054 80.8255 176.78 80.7895C176.831 81.0607 176.824 81.3397 176.76 81.608C176.633 82.1445 175.906 82.5378 175.047 82.3272L168.507 80.7378L170.049 74.3365C170.049 74.3365 172.397 72.4809 172.655 72.1431C172.913 71.8054 173.136 70.1564 173.208 69.8504C173.279 69.5444 174.372 69.7511 174.916 70.4544C175.048 70.6252 175.141 70.8234 175.186 71.0345C175.283 71.4551 175.318 71.8874 175.29 72.318C175.247 72.9331 175.056 73.5287 174.733 74.0544L178.683 75.008C178.963 75.0674 179.214 75.2236 179.39 75.4491C179.488 75.5778 179.558 75.7258 179.594 75.8834C179.63 76.041 179.633 76.2044 179.601 76.363C179.548 76.5719 179.438 76.7618 179.282 76.9114C179.127 77.0609 178.933 77.1641 178.723 77.2094C178.932 77.3117 179.1 77.4814 179.201 77.6911C179.302 77.9009 179.33 78.1384 179.279 78.3657C179.198 78.6168 179.034 78.8327 178.814 78.9774C178.593 79.122 178.33 79.1866 178.067 79.1604C178.204 79.4388 178.227 79.7595 178.131 80.0544Z" fill="#E0E0E0"/>
<path d="M23.1836 76.7087L26.3028 77.6464L28.5598 70.1206L25.4445 69.1829L23.1836 76.7087Z" fill="#E0E0E0"/>
<path d="M13.4369 70.0213C13.4109 70.3269 13.4828 70.6329 13.642 70.895C13.8013 71.1571 14.0398 71.3618 14.323 71.4795C14.1228 71.7105 13.9738 71.9814 13.886 72.2742C13.7071 72.8583 14.184 73.6411 15.1177 73.9193L22.2701 76.0689L24.3601 69.0636C24.3601 69.0636 23.1482 65.9722 23.0886 65.4875C23.029 65.0027 23.7442 63.31 23.8396 62.9842C23.9191 62.7219 22.7827 62.2411 21.8528 62.6107C21.6318 62.6973 21.4334 62.8332 21.2727 63.008C20.9425 63.3628 20.6667 63.7645 20.4542 64.2001C20.1497 64.8171 19.9997 65.4989 20.0171 66.1868L15.7257 64.8915C15.4231 64.7919 15.0949 64.8032 14.7999 64.9232C14.6043 65.0002 14.432 65.1265 14.2998 65.2899C14.1676 65.4533 14.0801 65.6482 14.0457 65.8555C14.0112 66.0629 14.0311 66.2756 14.1034 66.4729C14.1757 66.6703 14.2979 66.8455 14.4581 66.9815C14.1988 66.9593 13.9396 67.0258 13.723 67.1702C13.5064 67.3146 13.3453 67.5283 13.2661 67.7762C13.2 68.0623 13.2347 68.3625 13.3643 68.626C13.4939 68.8895 13.7104 69.1002 13.9773 69.2226C13.7051 69.4133 13.5127 69.6976 13.4369 70.0213Z" fill="#E0E0E0"/>
</svg>
