<svg width="64" height="64" viewBox="0 0 64 64" fill="none" xmlns="http://www.w3.org/2000/svg">
<rect y="3" width="64" height="58" rx="5" fill="#E6E8EF"/>
<path d="M27.9997 38.667H31.9997M21.333 21.3337V42.667C21.333 43.3742 21.614 44.0525 22.1141 44.5526C22.6142 45.0527 23.2924 45.3337 23.9997 45.3337H39.9997C40.7069 45.3337 41.3852 45.0527 41.8853 44.5526C42.3854 44.0525 42.6663 43.3742 42.6663 42.667V27.123C42.6663 26.7677 42.5953 26.4161 42.4574 26.0887C42.3196 25.7612 42.1177 25.4646 41.8637 25.2163L35.9437 19.427C35.4455 18.9399 34.7764 18.6671 34.0797 18.667H23.9997C23.2924 18.667 22.6142 18.9479 22.1141 19.448C21.614 19.9481 21.333 20.6264 21.333 21.3337V21.3337ZM27.9997 33.3337H35.9997H27.9997Z" stroke="#3D414B" stroke-width="2.66667" stroke-linecap="round" stroke-linejoin="round"/>
<path d="M34.666 18.667V24.0003C34.666 24.7076 34.947 25.3858 35.4471 25.8859C35.9472 26.386 36.6254 26.667 37.3327 26.667H42.666" stroke="#3D414B" stroke-width="2.66667" stroke-linejoin="round"/>
</svg>
