<svg width="32" height="32" viewBox="0 0 32 32" fill="none" xmlns="http://www.w3.org/2000/svg">
<path d="M11.9997 22.667H15.9997M5.33301 5.33366V26.667C5.33301 27.3742 5.61396 28.0525 6.11406 28.5526C6.61415 29.0527 7.29243 29.3337 7.99967 29.3337H23.9997C24.7069 29.3337 25.3852 29.0527 25.8853 28.5526C26.3854 28.0525 26.6663 27.3742 26.6663 26.667V11.123C26.6663 10.7677 26.5953 10.4161 26.4574 10.0887C26.3196 9.76123 26.1177 9.46465 25.8637 9.21633L19.9437 3.42699C19.4455 2.93987 18.7764 2.66708 18.0797 2.66699H7.99967C7.29243 2.66699 6.61415 2.94794 6.11406 3.44804C5.61396 3.94814 5.33301 4.62641 5.33301 5.33366V5.33366ZM11.9997 17.3337H19.9997H11.9997Z" stroke="#3D414B" stroke-width="2.66667" stroke-linecap="round" stroke-linejoin="round"/>
<path d="M18.666 2.66699V8.00033C18.666 8.70757 18.947 9.38585 19.4471 9.88594C19.9472 10.386 20.6254 10.667 21.3327 10.667H26.666" stroke="#3D414B" stroke-width="2.66667" stroke-linejoin="round"/>
</svg>
