<svg width="32" height="32" viewBox="0 0 32 32" fill="none" xmlns="http://www.w3.org/2000/svg">
<path d="M24.0999 2.07199L29.6639 7.87199V29.928H8.87891V30H29.7349V7.94499L24.0999 2.07199Z" fill="#909090"/>
<mask id="path-2-inside-1_382_19363" fill="white">
<path d="M24.0316 2H8.80859V29.928H29.6646V7.873L24.0306 2"/>
</mask>
<path d="M24.0316 2H8.80859V29.928H29.6646V7.873L24.0306 2" fill="#F4F4F4"/>
<path d="M8.80859 2V1H7.80859V2H8.80859ZM8.80859 29.928H7.80859V30.928H8.80859V29.928ZM29.6646 29.928V30.928H30.6646V29.928H29.6646ZM29.6646 7.873H30.6646V7.4709L30.3862 7.18073L29.6646 7.873ZM24.0316 1H8.80859V3H24.0316V1ZM7.80859 2V29.928H9.80859V2H7.80859ZM8.80859 30.928H29.6646V28.928H8.80859V30.928ZM30.6646 29.928V7.873H28.6646V29.928H30.6646ZM30.3862 7.18073L24.7522 1.30773L23.309 2.69227L28.943 8.56527L30.3862 7.18073Z" fill="#DC3545" mask="url(#path-2-inside-1_382_19363)"/>
<path d="M8.65562 3.5H2.26562V10.327H22.3656V3.5H8.65562Z" fill="#7A7B7C"/>
<path d="M22 12H2V4H22V12Z" fill="#DD2025"/>
<path d="M7.54251 5.53673H6V11.2016H7.21323V9.29091L7.48114 9.30625C7.74145 9.30177 7.99932 9.25514 8.24472 9.16817C8.45987 9.09417 8.6578 8.97734 8.82655 8.82473C8.99827 8.67936 9.13365 8.49588 9.22191 8.28893C9.34028 7.9449 9.38256 7.57928 9.34583 7.21732C9.33846 6.95875 9.29313 6.70266 9.21129 6.45728C9.13679 6.28014 9.02623 6.12045 8.88664 5.98838C8.74705 5.85631 8.58149 5.75474 8.4005 5.69015C8.24402 5.6335 8.08234 5.59239 7.9178 5.56741C7.79321 5.54819 7.66739 5.53794 7.54132 5.53673M7.31827 8.24408H7.21323V6.4974H7.44101C7.54154 6.49015 7.64241 6.50559 7.73617 6.54256C7.82994 6.57953 7.91419 6.6371 7.98272 6.71102C8.12471 6.90104 8.20057 7.13235 8.19869 7.36956C8.19869 7.65989 8.19869 7.92307 7.93669 8.10836C7.74794 8.21217 7.53309 8.25891 7.31827 8.2429M11.6507 5.52139C11.5197 5.52139 11.3923 5.53083 11.3026 5.53437L11.0217 5.54145H10.1012V11.2064H11.1846C11.5986 11.2177 12.0108 11.1475 12.3978 10.9998C12.7093 10.8763 12.9851 10.6771 13.2003 10.4203C13.4096 10.1612 13.5599 9.85957 13.6405 9.53639C13.7333 9.17037 13.7785 8.79395 13.7751 8.41639C13.798 7.97046 13.7635 7.52344 13.6724 7.08632C13.586 6.76455 13.4242 6.46801 13.2003 6.22124C13.0247 6.02198 12.8097 5.86125 12.5689 5.74916C12.3621 5.65347 12.1446 5.58294 11.921 5.53909C11.8321 5.5244 11.742 5.51769 11.6519 5.51903M11.4371 10.1654H11.3191V6.54933H11.3344C11.5778 6.52134 11.8239 6.56524 12.0426 6.67561C12.2027 6.80346 12.3331 6.96452 12.4249 7.14769C12.524 7.34045 12.5811 7.55202 12.5925 7.76846C12.6031 8.02811 12.5925 8.24054 12.5925 8.41639C12.5973 8.61895 12.5843 8.82155 12.5536 9.02182C12.5172 9.22745 12.45 9.42639 12.3541 9.61192C12.2457 9.78441 12.0991 9.92975 11.9257 10.0368C11.7801 10.131 11.6077 10.1749 11.4348 10.1619M17.4301 5.54145H14.5623V11.2064H15.7755V8.95927H17.3097V7.90655H15.7755V6.59418H17.4278V5.54145" fill="#464648"/>
<path d="M21.7807 22.255C21.7807 22.255 24.9687 21.677 24.9687 22.766C24.9687 23.855 22.9937 23.412 21.7807 22.255ZM19.4237 22.338C18.9172 22.4499 18.4236 22.6138 17.9507 22.827L18.3507 21.927C18.7507 21.027 19.1657 19.8 19.1657 19.8C19.643 20.6033 20.1984 21.3577 20.8237 22.052C20.3521 22.1223 19.8847 22.2185 19.4237 22.34V22.338ZM18.1617 15.838C18.1617 14.889 18.4687 14.63 18.7077 14.63C18.9467 14.63 19.2157 14.745 19.2247 15.569C19.1468 16.3976 18.9733 17.2143 18.7077 18.003C18.3438 17.3408 18.1555 16.5966 18.1607 15.841L18.1617 15.838ZM13.5127 26.354C12.5347 25.769 15.5637 23.968 16.1127 23.91C16.1097 23.911 14.5367 26.966 13.5127 26.354ZM25.8997 22.895C25.8897 22.795 25.7997 21.688 23.8297 21.735C23.0086 21.7218 22.1878 21.7797 21.3767 21.908C20.591 21.1164 19.9143 20.2235 19.3647 19.253C19.711 18.2524 19.9205 17.2097 19.9877 16.153C19.9587 14.953 19.6717 14.265 18.7517 14.275C17.8317 14.285 17.6977 15.09 17.8187 16.288C17.9372 17.0931 18.1608 17.8791 18.4837 18.626C18.4837 18.626 18.0587 19.949 17.4967 21.265C16.9347 22.581 16.5507 23.271 16.5507 23.271C15.5734 23.5891 14.6534 24.0618 13.8257 24.671C13.0017 25.438 12.6667 26.027 13.1007 26.616C13.4747 27.124 14.7837 27.239 15.9537 25.706C16.5753 24.9142 17.1433 24.0817 17.6537 23.214C17.6537 23.214 19.4377 22.725 19.9927 22.591C20.5477 22.457 21.2187 22.351 21.2187 22.351C21.2187 22.351 22.8477 23.99 24.4187 23.932C25.9897 23.874 25.9137 22.993 25.9037 22.897" fill="#DD2025"/>
<path d="M23.9531 2.077V7.95H29.5861L23.9531 2.077Z" fill="#909090"/>
<path d="M24.0312 2V7.873H29.6642L24.0312 2Z" fill="#DD2025"/>
<path d="M7.53209 5.01775H6V10.6444H7.20973V8.74776L7.477 8.763C7.73556 8.75855 7.99169 8.71223 8.23543 8.62585C8.44911 8.55232 8.6457 8.43628 8.81333 8.28473C8.98261 8.13995 9.11585 7.95774 9.20251 7.75254C9.32008 7.41084 9.36207 7.04768 9.32559 6.68817C9.31827 6.43134 9.27325 6.17699 9.19196 5.93325C9.11796 5.75731 9.00814 5.5987 8.8695 5.46752C8.73085 5.33634 8.56641 5.23546 8.38664 5.17131C8.2305 5.11449 8.06912 5.07327 7.90486 5.04823C7.7811 5.02913 7.65614 5.01895 7.53092 5.01775M7.30937 7.70683H7.20504V5.97194H7.43246C7.53231 5.96474 7.6325 5.98007 7.72563 6.01679C7.81876 6.05351 7.90244 6.1107 7.9705 6.18411C8.11154 6.37286 8.18689 6.6026 8.18502 6.83821C8.18502 7.12658 8.18502 7.38798 7.92479 7.57202C7.73731 7.67513 7.52391 7.72156 7.31054 7.70565M11.6126 5.00251C11.4825 5.00251 11.3559 5.01189 11.2668 5.0154L10.9913 5.02244H10.077V10.6491H11.1531C11.5643 10.6604 11.9738 10.5907 12.3581 10.444C12.6675 10.3213 12.9414 10.1235 13.1552 9.8684C13.3632 9.61105 13.5124 9.31141 13.5925 8.99041C13.6846 8.62687 13.7295 8.25298 13.7261 7.87797C13.7489 7.43506 13.7146 6.99105 13.6241 6.55688C13.5383 6.23729 13.3776 5.94274 13.1552 5.69764C12.9808 5.49972 12.7673 5.34008 12.5281 5.22875C12.3227 5.1337 12.1066 5.06365 11.8846 5.02009C11.7962 5.0055 11.7068 4.99884 11.6173 5.00017M11.4039 9.6152H11.2867V6.02352H11.302C11.5436 5.99571 11.7881 6.03932 12.0053 6.14894C12.1643 6.27593 12.2939 6.4359 12.3851 6.61783C12.4835 6.8093 12.5402 7.01944 12.5515 7.23442C12.5621 7.49231 12.5515 7.70331 12.5515 7.87797C12.5563 8.07917 12.5434 8.28039 12.5129 8.47932C12.4767 8.68356 12.4099 8.88116 12.3148 9.06543C12.207 9.23676 12.0615 9.38112 11.8892 9.48743C11.7446 9.58097 11.5734 9.62461 11.4016 9.61169M17.353 5.02244H14.5045V10.6491H15.7095V8.41719H17.2334V7.37157H15.7095V6.06806H17.3506V5.02244" fill="white"/>
</svg>
