<svg width="64" height="64" viewBox="0 0 64 64" fill="none" xmlns="http://www.w3.org/2000/svg">
<rect y="3" width="64" height="58" rx="5" fill="#FECED2"/>
<path d="M40.0999 18.0723L45.6639 23.8723V45.9283H24.8789V46.0003H45.7349V23.9453L40.0999 18.0723Z" fill="#909090"/>
<mask id="path-4-inside-1_4097_4214" fill="white">
<path d="M40.0306 18H24.8076V45.928H45.6636V23.873L40.0296 18"/>
</mask>
<path d="M40.0306 18H24.8076V45.928H45.6636V23.873L40.0296 18" fill="#F4F4F4"/>
<path d="M24.8076 18V17H23.8076V18H24.8076ZM24.8076 45.928H23.8076V46.928H24.8076V45.928ZM45.6636 45.928V46.928H46.6636V45.928H45.6636ZM45.6636 23.873H46.6636V23.4709L46.3853 23.1807L45.6636 23.873ZM40.0306 17H24.8076V19H40.0306V17ZM23.8076 18V45.928H25.8076V18H23.8076ZM24.8076 46.928H45.6636V44.928H24.8076V46.928ZM46.6636 45.928V23.873H44.6636V45.928H46.6636ZM46.3853 23.1807L40.7513 17.3077L39.308 18.6923L44.942 24.5653L46.3853 23.1807Z" fill="#DC3545" mask="url(#path-4-inside-1_4097_4214)"/>
<path d="M24.6546 19.5H18.2646V26.327H38.3646V19.5H24.6546Z" fill="#7A7B7C"/>
<path d="M38 28H18V20H38V28Z" fill="#DD2025"/>
<path d="M23.5425 21.5364H22V27.2013H23.2132V25.2906L23.4811 25.3059C23.7415 25.3015 23.9993 25.2548 24.2447 25.1679C24.4599 25.0939 24.6578 24.977 24.8265 24.8244C24.9983 24.6791 25.1336 24.4956 25.2219 24.2886C25.3403 23.9446 25.3826 23.579 25.3458 23.217C25.3385 22.9584 25.2931 22.7024 25.2113 22.457C25.1368 22.2798 25.0262 22.1201 24.8866 21.9881C24.747 21.856 24.5815 21.7544 24.4005 21.6898C24.244 21.6332 24.0823 21.5921 23.9178 21.5671C23.7932 21.5479 23.6674 21.5376 23.5413 21.5364M23.3183 24.2438H23.2132V22.4971H23.441C23.5415 22.4898 23.6424 22.5053 23.7362 22.5423C23.8299 22.5792 23.9142 22.6368 23.9827 22.7107C24.1247 22.9007 24.2006 23.132 24.1987 23.3693C24.1987 23.6596 24.1987 23.9228 23.9367 24.1081C23.7479 24.2119 23.5331 24.2586 23.3183 24.2426M27.6507 21.5211C27.5197 21.5211 27.3923 21.5305 27.3026 21.5341L27.0217 21.5411H26.1012V27.206H27.1846C27.5986 27.2174 28.0108 27.1472 28.3978 26.9995C28.7093 26.876 28.9851 26.6768 29.2003 26.42C29.4096 26.1609 29.5599 25.8593 29.6405 25.5361C29.7333 25.1701 29.7785 24.7936 29.7751 24.4161C29.798 23.9702 29.7635 23.5231 29.6724 23.086C29.586 22.7642 29.4242 22.4677 29.2003 22.2209C29.0247 22.0217 28.8097 21.8609 28.5689 21.7489C28.3621 21.6532 28.1446 21.5826 27.921 21.5388C27.8321 21.5241 27.742 21.5174 27.6519 21.5187M27.4371 26.1651H27.3191V22.549H27.3344C27.5778 22.521 27.8239 22.5649 28.0426 22.6753C28.2027 22.8032 28.3331 22.9642 28.4249 23.1474C28.524 23.3401 28.5811 23.5517 28.5925 23.7682C28.6031 24.0278 28.5925 24.2402 28.5925 24.4161C28.5973 24.6186 28.5843 24.8212 28.5536 25.0215C28.5172 25.2271 28.45 25.4261 28.3541 25.6116C28.2457 25.7841 28.0991 25.9294 27.9257 26.0365C27.7801 26.1307 27.6077 26.1746 27.4348 26.1616M33.4301 21.5411H30.5623V27.206H31.7755V24.959H33.3097V23.9062H31.7755V22.5939H33.4278V21.5411" fill="#464648"/>
<path d="M37.7807 38.2545C37.7807 38.2545 40.9687 37.6765 40.9687 38.7655C40.9687 39.8545 38.9937 39.4115 37.7807 38.2545ZM35.4237 38.3375C34.9172 38.4494 34.4236 38.6133 33.9507 38.8265L34.3507 37.9265C34.7507 37.0265 35.1657 35.7995 35.1657 35.7995C35.643 36.6029 36.1984 37.3572 36.8237 38.0515C36.3521 38.1218 35.8847 38.218 35.4237 38.3395V38.3375ZM34.1617 31.8375C34.1617 30.8885 34.4687 30.6295 34.7077 30.6295C34.9467 30.6295 35.2157 30.7445 35.2247 31.5685C35.1468 32.3971 34.9733 33.2138 34.7077 34.0025C34.3438 33.3404 34.1555 32.5961 34.1607 31.8405L34.1617 31.8375ZM29.5127 42.3535C28.5347 41.7685 31.5637 39.9675 32.1127 39.9095C32.1097 39.9105 30.5367 42.9655 29.5127 42.3535ZM41.8997 38.8945C41.8897 38.7945 41.7997 37.6875 39.8297 37.7345C39.0086 37.7213 38.1878 37.7792 37.3767 37.9075C36.591 37.1159 35.9143 36.223 35.3647 35.2525C35.711 34.2519 35.9205 33.2092 35.9877 32.1525C35.9587 30.9525 35.6717 30.2645 34.7517 30.2745C33.8317 30.2845 33.6977 31.0895 33.8187 32.2875C33.9372 33.0926 34.1608 33.8786 34.4837 34.6255C34.4837 34.6255 34.0587 35.9485 33.4967 37.2645C32.9347 38.5805 32.5507 39.2705 32.5507 39.2705C31.5734 39.5887 30.6534 40.0613 29.8257 40.6705C29.0017 41.4375 28.6667 42.0265 29.1007 42.6155C29.4747 43.1235 30.7837 43.2385 31.9537 41.7055C32.5753 40.9137 33.1433 40.0812 33.6537 39.2135C33.6537 39.2135 35.4377 38.7245 35.9927 38.5905C36.5477 38.4565 37.2187 38.3505 37.2187 38.3505C37.2187 38.3505 38.8477 39.9895 40.4187 39.9315C41.9897 39.8735 41.9137 38.9925 41.9037 38.8965" fill="#DD2025"/>
<path d="M39.9541 18.0771V23.9501H45.5871L39.9541 18.0771Z" fill="#909090"/>
<path d="M40.0312 18V23.873H45.6642L40.0312 18Z" fill="#DD2025"/>
<path d="M23.5321 21.0177H22V26.6444H23.2097V24.7478L23.477 24.763C23.7356 24.7585 23.9917 24.7122 24.2354 24.6258C24.4491 24.5523 24.6457 24.4363 24.8133 24.2847C24.9826 24.1399 25.1159 23.9577 25.2025 23.7525C25.3201 23.4108 25.3621 23.0477 25.3256 22.6882C25.3183 22.4313 25.2732 22.177 25.192 21.9333C25.118 21.7573 25.0081 21.5987 24.8695 21.4675C24.7308 21.3363 24.5664 21.2355 24.3866 21.1713C24.2305 21.1145 24.0691 21.0733 23.9049 21.0482C23.7811 21.0291 23.6561 21.0189 23.5309 21.0177M23.3094 23.7068H23.205V21.9719H23.4325C23.5323 21.9647 23.6325 21.9801 23.7256 22.0168C23.8188 22.0535 23.9024 22.1107 23.9705 22.1841C24.1115 22.3729 24.1869 22.6026 24.185 22.8382C24.185 23.1266 24.185 23.388 23.9248 23.572C23.7373 23.6751 23.5239 23.7216 23.3105 23.7057M27.6126 21.0025C27.4825 21.0025 27.3559 21.0119 27.2668 21.0154L26.9913 21.0224H26.077V26.6491H27.1531C27.5643 26.6604 27.9738 26.5907 28.3581 26.444C28.6675 26.3213 28.9414 26.1235 29.1552 25.8684C29.3632 25.611 29.5124 25.3114 29.5925 24.9904C29.6846 24.6269 29.7295 24.253 29.7261 23.878C29.7489 23.4351 29.7146 22.9911 29.6241 22.5569C29.5383 22.2373 29.3776 21.9427 29.1552 21.6976C28.9808 21.4997 28.7673 21.3401 28.5281 21.2287C28.3227 21.1337 28.1066 21.0636 27.8846 21.0201C27.7962 21.0055 27.7068 20.9988 27.6173 21.0002M27.4039 25.6152H27.2867V22.0235H27.302C27.5436 21.9957 27.7881 22.0393 28.0053 22.1489C28.1643 22.2759 28.2939 22.4359 28.3851 22.6178C28.4835 22.8093 28.5402 23.0194 28.5515 23.2344C28.5621 23.4923 28.5515 23.7033 28.5515 23.878C28.5563 24.0792 28.5434 24.2804 28.5129 24.4793C28.4767 24.6836 28.4099 24.8812 28.3148 25.0654C28.207 25.2368 28.0615 25.3811 27.8892 25.4874C27.7446 25.581 27.5734 25.6246 27.4016 25.6117M33.353 21.0224H30.5045V26.6491H31.7095V24.4172H33.2334V23.3716H31.7095V22.0681H33.3506V21.0224" fill="white"/>
</svg>
