<svg width="64" height="64" viewBox="0 0 64 64" fill="none" xmlns="http://www.w3.org/2000/svg">
<rect y="3" width="64" height="58" rx="5" fill="#FEECCF"/>
<path d="M34.9301 33.3L32.9771 19H32.8311C29.4216 19.0058 26.153 20.3611 23.7399 22.7698C21.3267 25.1785 19.9653 28.4445 19.9531 31.854V32L34.9301 33.3Z" fill="#ED6C47"/>
<path d="M33.1226 19H32.9766V32L39.4876 34.6L45.9996 32V31.854C45.9874 28.4447 44.6261 25.1788 42.2132 22.7702C39.8002 20.3615 36.5319 19.0061 33.1226 19Z" fill="#FF8F6B"/>
<path d="M46.0001 32V32.143C45.9874 35.553 44.6257 38.8193 42.2123 41.2284C39.7989 43.6375 36.5301 44.9934 33.1201 45H32.8331C29.4233 44.9929 26.1548 43.6368 23.7416 41.2278C21.3283 38.8188 19.9663 35.5528 19.9531 32.143V32H46.0001Z" fill="#D35230"/>
<path opacity="0.1" d="M33.6281 25.3892V39.2602C33.6263 39.4962 33.555 39.7264 33.423 39.9221C33.291 40.1177 33.1043 40.2701 32.8861 40.3602C32.7437 40.4202 32.5907 40.4511 32.4361 40.4512H23.0271C22.8446 40.2418 22.6708 40.0249 22.5061 39.8012C20.8474 37.5932 19.9514 34.9058 19.9531 32.1442V31.8582C19.95 29.3671 20.6792 26.9301 22.0501 24.8502C22.1923 24.6268 22.3445 24.4099 22.5061 24.2002H32.4361C32.7511 24.2023 33.0526 24.3281 33.2756 24.5506C33.4987 24.773 33.6253 25.0742 33.6281 25.3892Z" fill="black"/>
<path opacity="0.2" d="M32.9771 26.0396V39.9106C32.9771 40.0645 32.9461 40.2169 32.8861 40.3586C32.7959 40.5766 32.6435 40.7631 32.4478 40.8949C32.2522 41.0267 32.022 41.0979 31.7861 41.0996H23.6201C23.4141 40.8903 23.2165 40.6736 23.0271 40.4496C22.8446 40.2402 22.6708 40.0234 22.5061 39.7996C20.8474 37.5916 19.9514 34.9042 19.9531 32.1426V31.8566C19.9502 29.3659 20.6794 26.9292 22.0501 24.8496H31.7851C32.1003 24.8517 32.402 24.9777 32.625 25.2003C32.848 25.423 32.9745 25.7245 32.9771 26.0396Z" fill="black"/>
<path opacity="0.2" d="M32.9771 26.0396V38.6106C32.9743 38.9256 32.8476 39.2268 32.6246 39.4492C32.4016 39.6717 32.1001 39.7975 31.7851 39.7996H22.5061C20.8474 37.5916 19.9514 34.9042 19.9531 32.1426V31.8566C19.9502 29.3659 20.6794 26.9292 22.0501 24.8496H31.7851C32.1003 24.8517 32.402 24.9777 32.625 25.2003C32.848 25.423 32.9745 25.7245 32.9771 26.0396Z" fill="black"/>
<path opacity="0.2" d="M32.3261 26.0396V38.6106C32.3233 38.9256 32.1966 39.2268 31.9736 39.4492C31.7506 39.6717 31.4491 39.7975 31.1341 39.7996H22.5061C20.8474 37.5916 19.9514 34.9042 19.9531 32.1426V31.8566C19.9502 29.3659 20.6794 26.9292 22.0501 24.8496H31.1341C31.4493 24.8517 31.751 24.9777 31.974 25.2003C32.197 25.423 32.3235 25.7245 32.3261 26.0396Z" fill="black"/>
<path d="M19.194 24.8496H31.132C31.4482 24.8493 31.7516 24.9746 31.9755 25.198C32.1994 25.4213 32.3255 25.7244 32.326 26.0406V37.9586C32.3255 38.2748 32.1994 38.5779 31.9755 38.8013C31.7516 39.0246 31.4482 39.1499 31.132 39.1496H19.194C19.0374 39.1499 18.8822 39.1193 18.7375 39.0595C18.5927 38.9998 18.4611 38.9122 18.3502 38.8015C18.2393 38.6909 18.1513 38.5596 18.0912 38.4149C18.0311 38.2703 18.0001 38.1152 18 37.9586V26.0406C18.0001 25.884 18.0311 25.7289 18.0912 25.5843C18.1513 25.4397 18.2393 25.3083 18.3502 25.1977C18.4611 25.0871 18.5927 24.9994 18.7375 24.9397C18.8822 24.88 19.0374 24.8493 19.194 24.8496Z" fill="url(#paint0_linear_4097_4246)"/>
<path d="M25.2926 28.0279C26.0698 27.9757 26.8402 28.201 27.4666 28.6639C27.7242 28.8932 27.9261 29.1782 28.0571 29.4972C28.1881 29.8161 28.2447 30.1608 28.2226 30.5049C28.2314 30.9897 28.102 31.4669 27.8496 31.8809C27.5943 32.2883 27.2265 32.613 26.7906 32.8159C26.2926 33.0469 25.7485 33.1611 25.1996 33.1499H23.6866V35.9499H22.1406V28.0279H25.2926ZM23.6856 31.9399H25.0166C25.4386 31.9703 25.8572 31.8455 26.1936 31.5889C26.3312 31.4577 26.4383 31.2979 26.5074 31.1208C26.5765 30.9437 26.606 30.7536 26.5936 30.5639C26.5936 29.6913 26.0853 29.2546 25.0686 29.2539H23.6856V31.9399Z" fill="white"/>
<defs>
<linearGradient id="paint0_linear_4097_4246" x1="20.494" y1="23.9136" x2="29.832" y2="40.0856" gradientUnits="userSpaceOnUse">
<stop stop-color="#CA4C28"/>
<stop offset="0.5" stop-color="#C5401E"/>
<stop offset="1" stop-color="#B62F14"/>
</linearGradient>
</defs>
</svg>
