<svg width="24" height="24" viewBox="0 0 24 24" fill="none" xmlns="http://www.w3.org/2000/svg">
<path d="M2 5.5C2 5.10218 2.15804 4.72064 2.43934 4.43934C2.72064 4.15804 3.10218 4 3.5 4H20.5C20.8978 4 21.2794 4.15804 21.5607 4.43934C21.842 4.72064 22 5.10218 22 5.5C22 5.89782 21.842 6.27936 21.5607 6.56066C21.2794 6.84196 20.8978 7 20.5 7H3.5C3.10218 7 2.72064 6.84196 2.43934 6.56066C2.15804 6.27936 2 5.89782 2 5.5ZM6 11.5C6 11.1022 6.15804 10.7206 6.43934 10.4393C6.72064 10.158 7.10218 10 7.5 10H16.5C16.8978 10 17.2794 10.158 17.5607 10.4393C17.842 10.7206 18 11.1022 18 11.5C18 11.8978 17.842 12.2794 17.5607 12.5607C17.2794 12.842 16.8978 13 16.5 13H7.5C7.10218 13 6.72064 12.842 6.43934 12.5607C6.15804 12.2794 6 11.8978 6 11.5ZM10.5 16C10.1022 16 9.72064 16.158 9.43934 16.4393C9.15804 16.7206 9 17.1022 9 17.5C9 17.8978 9.15804 18.2794 9.43934 18.5607C9.72064 18.842 10.1022 19 10.5 19H13.5C13.8978 19 14.2794 18.842 14.5607 18.5607C14.842 18.2794 15 17.8978 15 17.5C15 17.1022 14.842 16.7206 14.5607 16.4393C14.2794 16.158 13.8978 16 13.5 16H10.5Z" fill="#3D414B"/>
</svg>
