<svg width="24" height="24" viewBox="0 0 24 24" fill="none" xmlns="http://www.w3.org/2000/svg">
<path d="M17.8833 6.0931C16.8375 3.31735 14.589 1.55933 11.1926 1.55933C6.8711 1.55933 3.84748 4.7682 3.58763 8.9547C1.5041 9.62108 0 11.7466 0 14.1541C0 17.1012 2.31675 19.5908 5.05835 19.5908H7.2251C7.6391 19.5908 7.9751 19.2548 7.9751 18.8408C7.9751 18.4265 7.6391 18.0908 7.2251 18.0908H5.05835C3.12935 18.0908 1.47635 16.2882 1.47635 14.1541C1.47635 12.2682 2.7986 10.5668 4.45723 10.2818L5.13785 10.1645L5.07748 9.47708L5.07185 9.46845C5.07185 5.8152 7.47598 3.0597 11.1926 3.0597C14.1716 3.0597 15.8453 4.52745 16.6193 7.03095L16.7797 7.54733L17.3201 7.55895C20.1063 7.61745 22.5491 9.87798 22.5491 12.6864C22.5491 15.2424 20.8552 18.0909 18.2906 18.0909H16.5769C16.1629 18.0909 15.8269 18.4269 15.8269 18.8409C15.8269 19.2552 16.1629 19.5909 16.5769 19.5909L18.285 19.5886C22.035 19.4896 23.9884 15.9073 23.9884 12.6864C23.9884 9.2244 21.2752 6.45802 17.8834 6.09315L17.8833 6.0931ZM12.5621 12.069C12.558 12.0645 12.5565 12.0608 12.5538 12.057L12.3641 11.8587C12.2602 11.7488 12.1218 11.6944 11.9835 11.6952C11.8451 11.694 11.7074 11.7488 11.6017 11.8586L11.412 12.057C11.4082 12.0608 11.4074 12.0653 11.4041 12.069L8.69695 15.063C8.48733 15.282 8.48733 15.6364 8.69695 15.8562L8.88595 15.9844C9.0956 16.2034 9.43533 16.1325 9.64458 15.9135L11.241 14.1338V21.6908C11.241 22.1048 11.577 22.4408 11.991 22.4408C12.405 22.4408 12.741 22.1048 12.741 21.6908V14.1409L14.3902 15.9604C14.5999 16.1794 14.9389 16.2503 15.1481 16.0313L15.3371 15.903C15.5468 15.6833 15.5468 15.3289 15.3371 15.1099L12.5621 12.069Z" fill="#3D414B"/>
</svg>
