<svg width="64" height="64" viewBox="0 0 64 64" fill="none" xmlns="http://www.w3.org/2000/svg">
<rect y="3" width="64" height="58" rx="5" fill="#DFF1FC"/>
<path d="M44.8057 19H25.7047C25.5482 18.9999 25.3932 19.0306 25.2485 19.0904C25.1038 19.1501 24.9723 19.2378 24.8616 19.3484C24.7508 19.459 24.6629 19.5903 24.6028 19.7349C24.5428 19.8795 24.5119 20.0345 24.5117 20.191V25.5L35.5807 28.75L45.9997 25.5V20.191C45.9996 20.0344 45.9686 19.8793 45.9085 19.7347C45.8484 19.5901 45.7604 19.4587 45.6495 19.3481C45.5386 19.2375 45.407 19.1498 45.2623 19.0901C45.1175 19.0303 44.9623 18.9997 44.8057 19Z" fill="#41A5EE"/>
<path d="M45.9997 25.5H24.5117V32L35.5807 33.95L45.9997 32V25.5Z" fill="#2B7CD3"/>
<path d="M24.5117 32V38.5L34.9297 39.8L45.9997 38.5V32H24.5117Z" fill="#185ABD"/>
<path d="M25.7047 45H44.8047C44.9614 45.0004 45.1167 44.9699 45.2616 44.9102C45.4065 44.8506 45.5382 44.7629 45.6492 44.6523C45.7602 44.5417 45.8483 44.4102 45.9084 44.2655C45.9686 44.1208 45.9996 43.9657 45.9997 43.809V38.5H24.5117V43.809C24.5119 43.9655 24.5428 44.1205 24.6028 44.2651C24.6629 44.4097 24.7508 44.541 24.8616 44.6516C24.9723 44.7622 25.1038 44.8499 25.2485 44.9096C25.3932 44.9694 25.5482 45.0001 25.7047 45Z" fill="#103F91"/>
<path opacity="0.1" d="M32.4337 24.2002H24.5117V40.4502H32.4337C32.7494 40.4486 33.0517 40.3227 33.2752 40.0998C33.4987 39.8769 33.6254 39.5749 33.6277 39.2592V25.3912C33.6254 25.0755 33.4987 24.7735 33.2752 24.5506C33.0517 24.3277 32.7494 24.2018 32.4337 24.2002Z" fill="black"/>
<path opacity="0.2" d="M31.7827 24.8496H24.5117V41.0996H31.7827C32.0984 41.098 32.4007 40.9721 32.6242 40.7492C32.8477 40.5263 32.9744 40.2243 32.9767 39.9086V26.0406C32.9744 25.7249 32.8477 25.4229 32.6242 25.2C32.4007 24.9771 32.0984 24.8512 31.7827 24.8496Z" fill="black"/>
<path opacity="0.2" d="M31.7827 24.8496H24.5117V39.7996H31.7827C32.0984 39.798 32.4007 39.6722 32.6242 39.4492C32.8477 39.2263 32.9744 38.9243 32.9767 38.6086V26.0406C32.9744 25.7249 32.8477 25.4229 32.6242 25.2C32.4007 24.9771 32.0984 24.8512 31.7827 24.8496Z" fill="black"/>
<path opacity="0.2" d="M31.1317 24.8496H24.5117V39.7996H31.1317C31.4474 39.798 31.7497 39.6722 31.9732 39.4492C32.1967 39.2263 32.3234 38.9243 32.3257 38.6086V26.0406C32.3234 25.7249 32.1967 25.4229 31.9732 25.2C31.7497 24.9771 31.4474 24.8512 31.1317 24.8496Z" fill="black"/>
<path d="M19.194 24.8496H31.132C31.4482 24.8493 31.7516 24.9746 31.9755 25.198C32.1994 25.4213 32.3255 25.7244 32.326 26.0406V37.9586C32.3255 38.2748 32.1994 38.5779 31.9755 38.8013C31.7516 39.0246 31.4482 39.1499 31.132 39.1496H19.194C19.0374 39.1499 18.8822 39.1193 18.7375 39.0595C18.5927 38.9998 18.4611 38.9122 18.3502 38.8015C18.2393 38.6909 18.1513 38.5596 18.0912 38.4149C18.0311 38.2703 18.0001 38.1152 18 37.9586V26.0406C18.0001 25.884 18.0311 25.7289 18.0912 25.5843C18.1513 25.4397 18.2393 25.3083 18.3502 25.1977C18.4611 25.0871 18.5927 24.9994 18.7375 24.9397C18.8822 24.88 19.0374 24.8493 19.194 24.8496Z" fill="url(#paint0_linear_4097_1157)"/>
<path d="M22.9004 33.9881C22.9234 34.1721 22.9394 34.3321 22.9464 34.4691H22.9744C22.9844 34.3391 23.0064 34.1821 23.0394 33.9991C23.0724 33.8161 23.1014 33.6611 23.1284 33.5341L24.3834 28.1271H26.0074L27.3074 33.4531C27.3832 33.7826 27.4373 34.1166 27.4694 34.4531H27.4914C27.5153 34.1255 27.5604 33.7999 27.6264 33.4781L28.6654 28.1201H30.1424L28.3184 35.8681H26.5914L25.3544 30.7421C25.3184 30.5941 25.2778 30.4015 25.2324 30.1641C25.1871 29.9268 25.1591 29.7535 25.1484 29.6441H25.1274C25.1134 29.7701 25.0854 29.9571 25.0434 30.2051C25.0014 30.4541 24.9684 30.6371 24.9434 30.7571L23.7804 35.8711H22.0244L20.1904 28.1271H21.6904L22.8214 33.5451C22.8552 33.6914 22.8816 33.8392 22.9004 33.9881Z" fill="white"/>
<defs>
<linearGradient id="paint0_linear_4097_1157" x1="20.494" y1="23.9136" x2="29.832" y2="40.0856" gradientUnits="userSpaceOnUse">
<stop stop-color="#2368C4"/>
<stop offset="0.5" stop-color="#1A5DBE"/>
<stop offset="1" stop-color="#1146AC"/>
</linearGradient>
</defs>
</svg>
