<svg width="32" height="32" viewBox="0 0 32 32" fill="none" xmlns="http://www.w3.org/2000/svg">
<path d="M28.8057 3H9.70472C9.54818 2.99987 9.39315 3.03057 9.24848 3.09035C9.10381 3.15014 8.97233 3.23783 8.86155 3.34842C8.75077 3.45902 8.66286 3.59035 8.60284 3.73492C8.54281 3.87949 8.51185 4.03447 8.51172 4.191V9.5L19.5807 12.75L29.9997 9.5V4.191C29.9996 4.03438 29.9686 3.87932 29.9085 3.73469C29.8484 3.59005 29.7604 3.45868 29.6495 3.34807C29.5386 3.23746 29.407 3.14979 29.2623 3.09007C29.1175 3.03034 28.9623 2.99974 28.8057 3Z" fill="#41A5EE"/>
<path d="M29.9997 9.5H8.51172V16L19.5807 17.95L29.9997 16V9.5Z" fill="#2B7CD3"/>
<path d="M8.51172 16V22.5L18.9297 23.8L29.9997 22.5V16H8.51172Z" fill="#185ABD"/>
<path d="M9.70472 29H28.8047C28.9614 29.0004 29.1167 28.9699 29.2616 28.9102C29.4065 28.8506 29.5382 28.7629 29.6492 28.6523C29.7602 28.5417 29.8483 28.4102 29.9084 28.2655C29.9686 28.1208 29.9996 27.9657 29.9997 27.809V22.5H8.51172V27.809C8.51185 27.9655 8.54281 28.1205 8.60284 28.2651C8.66286 28.4097 8.75077 28.541 8.86155 28.6516C8.97233 28.7622 9.10381 28.8499 9.24848 28.9096C9.39315 28.9694 9.54818 29.0001 9.70472 29Z" fill="#103F91"/>
<path opacity="0.1" d="M16.4337 8.2002H8.51172V24.4502H16.4337C16.7494 24.4486 17.0517 24.3227 17.2752 24.0998C17.4987 23.8769 17.6254 23.5749 17.6277 23.2592V9.3912C17.6254 9.07553 17.4987 8.77352 17.2752 8.55059C17.0517 8.32765 16.7494 8.20176 16.4337 8.2002Z" fill="black"/>
<path opacity="0.2" d="M15.7827 8.84961H8.51172V25.0996H15.7827C16.0984 25.098 16.4007 24.9721 16.6242 24.7492C16.8477 24.5263 16.9744 24.2243 16.9767 23.9086V10.0406C16.9744 9.72495 16.8477 9.42293 16.6242 9.2C16.4007 8.97707 16.0984 8.85118 15.7827 8.84961Z" fill="black"/>
<path opacity="0.2" d="M15.7827 8.84961H8.51172V23.7996H15.7827C16.0984 23.798 16.4007 23.6722 16.6242 23.4492C16.8477 23.2263 16.9744 22.9243 16.9767 22.6086V10.0406C16.9744 9.72495 16.8477 9.42293 16.6242 9.2C16.4007 8.97707 16.0984 8.85118 15.7827 8.84961Z" fill="black"/>
<path opacity="0.2" d="M15.1317 8.84961H8.51172V23.7996H15.1317C15.4474 23.798 15.7497 23.6722 15.9732 23.4492C16.1967 23.2263 16.3234 22.9243 16.3257 22.6086V10.0406C16.3234 9.72495 16.1967 9.42293 15.9732 9.2C15.7497 8.97707 15.4474 8.85118 15.1317 8.84961Z" fill="black"/>
<path d="M3.194 8.84961H15.132C15.4482 8.84935 15.7516 8.97464 15.9755 9.19797C16.1994 9.4213 16.3255 9.72438 16.326 10.0406V21.9586C16.3255 22.2748 16.1994 22.5779 15.9755 22.8013C15.7516 23.0246 15.4482 23.1499 15.132 23.1496H3.194C3.03738 23.1499 2.88224 23.1193 2.73746 23.0595C2.59267 22.9998 2.46108 22.9122 2.35019 22.8015C2.2393 22.6909 2.1513 22.5596 2.09121 22.4149C2.03113 22.2703 2.00013 22.1152 2 21.9586V10.0406C2.00013 9.88399 2.03113 9.72893 2.09121 9.5843C2.1513 9.43966 2.2393 9.30829 2.35019 9.19768C2.46108 9.08707 2.59267 8.9994 2.73746 8.93968C2.88224 8.87995 3.03738 8.84935 3.194 8.84961Z" fill="url(#paint0_linear_4097_5766)"/>
<path d="M6.90043 17.9881C6.92343 18.1721 6.93943 18.3321 6.94643 18.4691H6.97443C6.98443 18.3391 7.00643 18.1821 7.03943 17.9991C7.07243 17.8161 7.10143 17.6611 7.12843 17.5341L8.38343 12.1271H10.0074L11.3074 17.4531C11.3832 17.7826 11.4373 18.1166 11.4694 18.4531H11.4914C11.5153 18.1255 11.5604 17.7999 11.6264 17.4781L12.6654 12.1201H14.1424L12.3184 19.8681H10.5914L9.35443 14.7421C9.31843 14.5941 9.27776 14.4015 9.23243 14.1641C9.1871 13.9268 9.1591 13.7535 9.14843 13.6441H9.12743C9.11343 13.7701 9.08543 13.9571 9.04343 14.2051C9.00143 14.4541 8.96843 14.6371 8.94343 14.7571L7.78043 19.8711H6.02443L4.19043 12.1271H5.69043L6.82143 17.5451C6.85519 17.6914 6.88155 17.8392 6.90043 17.9881Z" fill="white"/>
<defs>
<linearGradient id="paint0_linear_4097_5766" x1="4.494" y1="7.91361" x2="13.832" y2="24.0856" gradientUnits="userSpaceOnUse">
<stop stop-color="#2368C4"/>
<stop offset="0.5" stop-color="#1A5DBE"/>
<stop offset="1" stop-color="#1146AC"/>
</linearGradient>
</defs>
</svg>
