<svg width="24" height="24" viewBox="0 0 24 24" fill="none" xmlns="http://www.w3.org/2000/svg">
<g clip-path="url(#clip0_13_8713)">
<path d="M21.6734 18.5533C21.0306 17.9802 20.4678 17.3232 20.0001 16.6C19.4896 15.6017 19.1836 14.5115 19.1001 13.3933V10.1C19.1045 8.34373 18.4675 6.6463 17.3086 5.32663C16.1498 4.00697 14.5489 3.15589 12.8068 2.93332V2.07332C12.8068 1.83728 12.713 1.6109 12.5461 1.44399C12.3792 1.27709 12.1528 1.18332 11.9168 1.18332C11.6807 1.18332 11.4544 1.27709 11.2875 1.44399C11.1205 1.6109 11.0268 1.83728 11.0268 2.07332V2.94665C9.30029 3.18527 7.71876 4.04149 6.57513 5.35672C5.4315 6.67196 4.80327 8.35708 4.80678 10.1V13.3933C4.72328 14.5115 4.4173 15.6017 3.90678 16.6C3.44737 17.3216 2.89358 17.9785 2.26011 18.5533C2.189 18.6158 2.13201 18.6927 2.09293 18.7789C2.05384 18.8651 2.03357 18.9587 2.03345 19.0533V19.96C2.03345 20.1368 2.10369 20.3064 2.22871 20.4314C2.35373 20.5564 2.5233 20.6267 2.70011 20.6267H21.2334C21.4103 20.6267 21.5798 20.5564 21.7049 20.4314C21.8299 20.3064 21.9001 20.1368 21.9001 19.96V19.0533C21.9 18.9587 21.8797 18.8651 21.8406 18.7789C21.8016 18.6927 21.7446 18.6158 21.6734 18.5533ZM3.42011 19.2933C4.04039 18.6941 4.58651 18.0227 5.04678 17.2933C5.68986 16.0876 6.06507 14.7573 6.14678 13.3933V10.1C6.12034 9.31868 6.2514 8.54004 6.53214 7.81043C6.81289 7.08083 7.23759 6.41518 7.78095 5.85312C8.3243 5.29106 8.97521 4.8441 9.6949 4.53884C10.4146 4.23357 11.1884 4.07626 11.9701 4.07626C12.7519 4.07626 13.5256 4.23357 14.2453 4.53884C14.965 4.8441 15.6159 5.29106 16.1593 5.85312C16.7026 6.41518 17.1273 7.08083 17.4081 7.81043C17.6888 8.54004 17.8199 9.31868 17.7935 10.1V13.3933C17.8752 14.7573 18.2504 16.0876 18.8934 17.2933C19.3537 18.0227 19.8998 18.6941 20.5201 19.2933H3.42011Z" fill="black"/>
<path d="M12 22.8533C12.42 22.8437 12.823 22.6858 13.1378 22.4076C13.4525 22.1295 13.6588 21.7489 13.72 21.3333H10.2134C10.2764 21.7602 10.4923 22.1497 10.8209 22.4293C11.1496 22.7089 11.5686 22.8596 12 22.8533Z" fill="black"/>
</g>
<defs>
<clipPath id="clip0_13_8713">
<rect width="24" height="24" fill="white"/>
</clipPath>
</defs>
</svg>
