<svg width="60" height="60" viewBox="0 0 60 60" fill="none" xmlns="http://www.w3.org/2000/svg">
<path d="M48.75 56.25H20.625C19.6307 56.249 18.6775 55.8536 17.9744 55.1506C17.2714 54.4475 16.876 53.4943 16.875 52.5V41.25H20.625V52.5H48.75V11.25H31.875V7.5H48.75C49.7443 7.50099 50.6975 7.8964 51.4006 8.59945C52.1036 9.30249 52.499 10.2557 52.5 11.25V52.5C52.499 53.4943 52.1036 54.4475 51.4006 55.1506C50.6975 55.8536 49.7443 56.249 48.75 56.25Z" fill="#2696F0"/>
<path d="M31.875 18.75H45V22.5H31.875V18.75ZM30 28.125H45V31.875H30V28.125ZM28.125 37.5H45V41.25H28.125V37.5ZM16.875 35.625C14.3894 35.6225 12.0062 34.634 10.2486 32.8764C8.491 31.1188 7.50248 28.7356 7.5 26.25V5.625H11.25V26.25C11.25 27.7418 11.8426 29.1726 12.8975 30.2275C13.9524 31.2824 15.3832 31.875 16.875 31.875C18.3668 31.875 19.7976 31.2824 20.8525 30.2275C21.9074 29.1726 22.5 27.7418 22.5 26.25V9.375C22.5 8.87772 22.3025 8.40081 21.9508 8.04918C21.5992 7.69754 21.1223 7.5 20.625 7.5C20.1277 7.5 19.6508 7.69754 19.2992 8.04918C18.9475 8.40081 18.75 8.87772 18.75 9.375V28.125H15V9.375C15 7.88316 15.5926 6.45242 16.6475 5.39752C17.7024 4.34263 19.1332 3.75 20.625 3.75C22.1168 3.75 23.5476 4.34263 24.6025 5.39752C25.6574 6.45242 26.25 7.88316 26.25 9.375V26.25C26.2475 28.7356 25.259 31.1188 23.5014 32.8764C21.7438 34.634 19.3606 35.6225 16.875 35.625Z" fill="#2696F0"/>
</svg>
