<svg width="61" height="60" viewBox="0 0 61 60" fill="none" xmlns="http://www.w3.org/2000/svg">
<path d="M30.55 5H29.45C28.1239 5 26.8522 5.52678 25.9145 6.46447C24.9768 7.40215 24.45 8.67392 24.45 10V10.45C24.4491 11.3268 24.2176 12.188 23.7789 12.9471C23.3401 13.7062 22.7093 14.3366 21.95 14.775L20.875 15.4C20.1149 15.8388 19.2527 16.0699 18.375 16.0699C17.4973 16.0699 16.6351 15.8388 15.875 15.4L15.5 15.2C14.3527 14.5382 12.9896 14.3586 11.71 14.7008C10.4304 15.0429 9.33888 15.8788 8.675 17.025L8.125 17.975C7.46316 19.1223 7.28361 20.4854 7.62577 21.765C7.96794 23.0446 8.80384 24.1361 9.95 24.8L10.325 25.05C11.0807 25.4863 11.7091 26.1127 12.1476 26.8671C12.5862 27.6214 12.8197 28.4774 12.825 29.35V30.625C12.8285 31.5061 12.5991 32.3724 12.1601 33.1363C11.7211 33.9002 11.088 34.5345 10.325 34.975L9.95 35.2C8.80384 35.8639 7.96794 36.9554 7.62577 38.235C7.28361 39.5146 7.46316 40.8777 8.125 42.025L8.675 42.975C9.33888 44.1212 10.4304 44.9571 11.71 45.2992C12.9896 45.6414 14.3527 45.4618 15.5 44.8L15.875 44.6C16.6351 44.1612 17.4973 43.9301 18.375 43.9301C19.2527 43.9301 20.1149 44.1612 20.875 44.6L21.95 45.225C22.7093 45.6634 23.3401 46.2938 23.7789 47.0529C24.2176 47.812 24.4491 48.6732 24.45 49.55V50C24.45 51.3261 24.9768 52.5979 25.9145 53.5355C26.8522 54.4732 28.1239 55 29.45 55H30.55C31.8761 55 33.1479 54.4732 34.0855 53.5355C35.0232 52.5979 35.55 51.3261 35.55 50V49.55C35.5509 48.6732 35.7824 47.812 36.2212 47.0529C36.66 46.2938 37.2907 45.6634 38.05 45.225L39.125 44.6C39.8851 44.1612 40.7473 43.9301 41.625 43.9301C42.5027 43.9301 43.3649 44.1612 44.125 44.6L44.5 44.8C45.6473 45.4618 47.0104 45.6414 48.29 45.2992C49.5696 44.9571 50.6611 44.1212 51.325 42.975L51.875 42C52.5368 40.8527 52.7164 39.4896 52.3742 38.21C52.0321 36.9304 51.1962 35.8389 50.05 35.175L49.675 34.975C48.912 34.5345 48.2789 33.9002 47.8399 33.1363C47.4009 32.3724 47.1715 31.5061 47.175 30.625V29.375C47.1715 28.4939 47.4009 27.6276 47.8399 26.8637C48.2789 26.0998 48.912 25.4655 49.675 25.025L50.05 24.8C51.1962 24.1361 52.0321 23.0446 52.3742 21.765C52.7164 20.4854 52.5368 19.1223 51.875 17.975L51.325 17.025C50.6611 15.8788 49.5696 15.0429 48.29 14.7008C47.0104 14.3586 45.6473 14.5382 44.5 15.2L44.125 15.4C43.3649 15.8388 42.5027 16.0699 41.625 16.0699C40.7473 16.0699 39.8851 15.8388 39.125 15.4L38.05 14.775C37.2907 14.3366 36.66 13.7062 36.2212 12.9471C35.7824 12.188 35.5509 11.3268 35.55 10.45V10C35.55 8.67392 35.0232 7.40215 34.0855 6.46447C33.1479 5.52678 31.8761 5 30.55 5V5Z" stroke="#2696F0" stroke-width="2.66667" stroke-linecap="round" stroke-linejoin="round"/>
<path d="M30 37.5C34.1421 37.5 37.5 34.1421 37.5 30C37.5 25.8579 34.1421 22.5 30 22.5C25.8579 22.5 22.5 25.8579 22.5 30C22.5 34.1421 25.8579 37.5 30 37.5Z" stroke="#2696F0" stroke-width="2.66667" stroke-linecap="round" stroke-linejoin="round"/>
</svg>
