<svg width="60" height="60" viewBox="0 0 60 60" fill="none" xmlns="http://www.w3.org/2000/svg">
<path d="M41.0509 12.3797H21.0451C20.6225 11.1842 19.7908 10.1767 18.6972 9.53516C17.6035 8.89361 16.3183 8.65933 15.0686 8.87374C13.8189 9.08816 12.6853 9.73745 11.868 10.7069C11.0508 11.6763 10.6025 12.9034 10.6025 14.1713C10.6025 15.4393 11.0508 16.6664 11.868 17.6358C12.6853 18.6052 13.8189 19.2545 15.0686 19.4689C16.3183 19.6833 17.6035 19.4491 18.6972 18.8075C19.7908 18.166 20.6225 17.1584 21.0451 15.963H41.0509C42.4764 15.963 43.8436 16.5293 44.8516 17.5373C45.8596 18.5453 46.4259 19.9125 46.4259 21.338C46.4259 22.7635 45.8596 24.1307 44.8516 25.1387C43.8436 26.1467 42.4764 26.713 41.0509 26.713H35.3749C34.9979 25.676 34.3109 24.7801 33.4071 24.147C32.5034 23.5139 31.4267 23.1743 30.3233 23.1743C29.2198 23.1743 28.1431 23.5139 27.2394 24.147C26.3356 24.7801 25.6486 25.676 25.2717 26.713H19.5509C17.175 26.713 14.8964 27.6568 13.2164 29.3368C11.5364 31.0169 10.5925 33.2954 10.5925 35.6713C10.5925 38.0472 11.5364 40.3258 13.2164 42.0058C14.8964 43.6858 17.175 44.6297 19.5509 44.6297H30.3009V50.0047L37.4675 42.838L30.3009 35.6713V41.0463H19.5509C18.1253 41.0463 16.7582 40.48 15.7502 39.472C14.7422 38.464 14.1759 37.0969 14.1759 35.6713C14.1759 34.2458 14.7422 32.8786 15.7502 31.8706C16.7582 30.8626 18.1253 30.2963 19.5509 30.2963H25.2896C25.67 31.3274 26.3574 32.217 27.259 32.8454C28.1607 33.4737 29.2332 33.8106 30.3322 33.8106C31.4312 33.8106 32.5038 33.4737 33.4054 32.8454C34.3071 32.217 34.9944 31.3274 35.3749 30.2963H41.0509C43.4268 30.2963 45.7053 29.3525 47.3854 27.6725C49.0654 25.9925 50.0092 23.7139 50.0092 21.338C50.0092 18.9621 49.0654 16.6835 47.3854 15.0035C45.7053 13.3235 43.4268 12.3797 41.0509 12.3797ZM15.9675 15.963C15.6132 15.963 15.2668 15.8579 14.9721 15.6611C14.6775 15.4642 14.4479 15.1844 14.3122 14.857C14.1766 14.5296 14.1412 14.1693 14.2103 13.8218C14.2794 13.4743 14.4501 13.155 14.7006 12.9044C14.9512 12.6539 15.2704 12.4832 15.618 12.4141C15.9655 12.345 16.3258 12.3804 16.6532 12.5161C16.9806 12.6517 17.2604 12.8813 17.4572 13.1759C17.6541 13.4706 17.7592 13.817 17.7592 14.1713C17.7592 14.6465 17.5704 15.1022 17.2344 15.4382C16.8984 15.7742 16.4427 15.963 15.9675 15.963ZM30.3009 30.2963C29.9465 30.2963 29.6001 30.1913 29.3055 29.9944C29.0108 29.7975 28.7812 29.5177 28.6456 29.1903C28.51 28.8629 28.4745 28.5027 28.5436 28.1551C28.6128 27.8076 28.7834 27.4883 29.034 27.2378C29.2845 26.9872 29.6038 26.8166 29.9513 26.7474C30.2989 26.6783 30.6591 26.7138 30.9865 26.8494C31.3139 26.985 31.5937 27.2146 31.7906 27.5093C31.9875 27.8039 32.0925 28.1503 32.0925 28.5047C32.0925 28.9798 31.9038 29.4356 31.5678 29.7716C31.2318 30.1076 30.776 30.2963 30.3009 30.2963Z" fill="#2696F0"/>
<path d="M44.8333 38.4583C43.7702 38.4583 42.731 38.7735 41.8471 39.3642C40.9632 39.9548 40.2742 40.7942 39.8674 41.7764C39.4606 42.7585 39.3541 43.8393 39.5615 44.8819C39.7689 45.9246 40.2808 46.8823 41.0326 47.634C41.7843 48.3857 42.742 48.8976 43.7846 49.105C44.8273 49.3124 45.908 49.206 46.8902 48.7992C47.8723 48.3923 48.7118 47.7034 49.3024 46.8195C49.893 45.9356 50.2083 44.8964 50.2083 43.8333C50.2083 42.4078 49.642 41.0406 48.634 40.0326C47.6259 39.0246 46.2588 38.4583 44.8333 38.4583ZM44.8333 45.625C44.4789 45.625 44.1325 45.5199 43.8379 45.323C43.5432 45.1262 43.3136 44.8463 43.178 44.519C43.0424 44.1916 43.0069 43.8313 43.076 43.4838C43.1451 43.1362 43.3158 42.817 43.5664 42.5664C43.8169 42.3158 44.1362 42.1452 44.4837 42.0761C44.8313 42.0069 45.1915 42.0424 45.5189 42.178C45.8463 42.3136 46.1261 42.5433 46.323 42.8379C46.5198 43.1326 46.6249 43.479 46.6249 43.8333C46.6249 44.3085 46.4362 44.7642 46.1002 45.1002C45.7642 45.4362 45.3084 45.625 44.8333 45.625Z" fill="#2696F0"/>
</svg>
