<svg width="60" height="60" viewBox="0 0 60 60" fill="none" xmlns="http://www.w3.org/2000/svg">
<rect width="60" height="60" rx="30" fill="#B8B8B8"/>
<path d="M30 20C29.0111 20 28.0444 20.2932 27.2221 20.8427C26.3999 21.3921 25.759 22.173 25.3806 23.0866C25.0022 24.0002 24.9031 25.0055 25.0961 25.9755C25.289 26.9454 25.7652 27.8363 26.4645 28.5355C27.1637 29.2348 28.0546 29.711 29.0245 29.9039C29.9945 30.0969 30.9998 29.9978 31.9134 29.6194C32.827 29.241 33.6079 28.6001 34.1573 27.7779C34.7068 26.9556 35 25.9889 35 25C35 23.6739 34.4732 22.4021 33.5355 21.4645C32.5979 20.5268 31.3261 20 30 20ZM30 28C29.4067 28 28.8266 27.8241 28.3333 27.4944C27.8399 27.1648 27.4554 26.6962 27.2284 26.1481C27.0013 25.5999 26.9419 24.9967 27.0576 24.4147C27.1734 23.8328 27.4591 23.2982 27.8787 22.8787C28.2982 22.4591 28.8328 22.1734 29.4147 22.0576C29.9967 21.9419 30.5999 22.0013 31.1481 22.2284C31.6962 22.4554 32.1648 22.8399 32.4944 23.3333C32.8241 23.8266 33 24.4067 33 25C33 25.7956 32.6839 26.5587 32.1213 27.1213C31.5587 27.6839 30.7956 28 30 28ZM39 39V38C39 36.1435 38.2625 34.363 36.9497 33.0503C35.637 31.7375 33.8565 31 32 31H28C26.1435 31 24.363 31.7375 23.0503 33.0503C21.7375 34.363 21 36.1435 21 38V39H23V38C23 36.6739 23.5268 35.4021 24.4645 34.4645C25.4021 33.5268 26.6739 33 28 33H32C33.3261 33 34.5979 33.5268 35.5355 34.4645C36.4732 35.4021 37 36.6739 37 38V39H39Z" fill="white"/>
</svg>
