<svg width="60" height="60" viewBox="0 0 60 60" fill="none" xmlns="http://www.w3.org/2000/svg">
<path d="M21.255 9C21.5653 8.12227 22.1402 7.36239 22.9005 6.82508C23.6608 6.28778 24.569 5.99951 25.5 6H34.5C35.431 5.99951 36.3392 6.28778 37.0995 6.82508C37.8598 7.36239 38.4347 8.12227 38.745 9H43.5C44.6935 9 45.8381 9.47411 46.682 10.318C47.5259 11.1619 48 12.3065 48 13.5V44.952C46.7122 45.5928 45.6615 46.6267 45 47.904V13.5C45 13.1022 44.842 12.7206 44.5607 12.4393C44.2794 12.158 43.8978 12 43.5 12H38.745C38.4347 12.8777 37.8598 13.6376 37.0995 14.1749C36.3392 14.7122 35.431 15.0005 34.5 15H25.5C24.569 15.0005 23.6608 14.7122 22.9005 14.1749C22.1402 13.6376 21.5653 12.8777 21.255 12H16.5C16.1022 12 15.7206 12.158 15.4393 12.4393C15.158 12.7206 15 13.1022 15 13.5V49.5C15 49.8978 15.158 50.2794 15.4393 50.5607C15.7206 50.842 16.1022 51 16.5 51H20.25C20.25 52.08 20.502 53.097 20.952 54H16.5C15.3065 54 14.1619 53.5259 13.318 52.682C12.4741 51.8381 12 50.6935 12 49.5V13.5C12 12.3065 12.4741 11.1619 13.318 10.318C14.1619 9.47411 15.3065 9 16.5 9H21.255ZM25.5 9C25.1022 9 24.7206 9.15804 24.4393 9.43934C24.158 9.72065 24 10.1022 24 10.5C24 10.8978 24.158 11.2794 24.4393 11.5607C24.7206 11.842 25.1022 12 25.5 12H34.5C34.8978 12 35.2794 11.842 35.5607 11.5607C35.842 11.2794 36 10.8978 36 10.5C36 10.1022 35.842 9.72065 35.5607 9.43934C35.2794 9.15804 34.8978 9 34.5 9H25.5ZM30.75 51C30.75 51.9946 30.3549 52.9484 29.6516 53.6517C28.9484 54.3549 27.9946 54.75 27 54.75C26.0054 54.75 25.0516 54.3549 24.3483 53.6517C23.6451 52.9484 23.25 51.9946 23.25 51C23.25 50.0054 23.6451 49.0516 24.3483 48.3483C25.0516 47.6451 26.0054 47.25 27 47.25C27.9946 47.25 28.9484 47.6451 29.6516 48.3483C30.3549 49.0516 30.75 50.0054 30.75 51ZM39 54.75C39.9946 54.75 40.9484 54.3549 41.6516 53.6517C42.3549 52.9484 42.75 51.9946 42.75 51C42.75 50.0054 42.3549 49.0516 41.6516 48.3483C40.9484 47.6451 39.9946 47.25 39 47.25C38.0054 47.25 37.0516 47.6451 36.3484 48.3483C35.6451 49.0516 35.25 50.0054 35.25 51C35.25 51.9946 35.6451 52.9484 36.3484 53.6517C37.0516 54.3549 38.0054 54.75 39 54.75ZM51 54.75C51.9946 54.75 52.9484 54.3549 53.6517 53.6517C54.3549 52.9484 54.75 51.9946 54.75 51C54.75 50.0054 54.3549 49.0516 53.6517 48.3483C52.9484 47.6451 51.9946 47.25 51 47.25C50.0054 47.25 49.0516 47.6451 48.3483 48.3483C47.6451 49.0516 47.25 50.0054 47.25 51C47.25 51.9946 47.6451 52.9484 48.3483 53.6517C49.0516 54.3549 50.0054 54.75 51 54.75Z" fill="#2696F0"/>
</svg>
