<svg width="60" height="60" viewBox="0 0 60 60" fill="none" xmlns="http://www.w3.org/2000/svg">
<path d="M16.4999 21C16.1021 21 15.7206 21.158 15.4393 21.4393C15.158 21.7206 14.9999 22.1022 14.9999 22.5C14.9999 22.8978 15.158 23.2794 15.4393 23.5607C15.7206 23.842 16.1021 24 16.4999 24H34.4999C34.8978 24 35.2793 23.842 35.5606 23.5607C35.8419 23.2794 35.9999 22.8978 35.9999 22.5C35.9999 22.1022 35.8419 21.7206 35.5606 21.4393C35.2793 21.158 34.8978 21 34.4999 21H16.4999ZM25.5959 31.5C25.0559 30.408 24.3659 29.4 23.5619 28.5H43.4999C43.8978 28.5 44.2793 28.658 44.5606 28.9393C44.8419 29.2206 44.9999 29.6022 44.9999 30C44.9999 30.3978 44.8419 30.7794 44.5606 31.0607C44.2793 31.342 43.8978 31.5 43.4999 31.5H25.5959ZM26.9999 37.5C26.9999 38.007 26.9699 38.508 26.9189 39H37.4999C37.8978 39 38.2793 38.842 38.5606 38.5607C38.8419 38.2794 38.9999 37.8978 38.9999 37.5C38.9999 37.1022 38.8419 36.7206 38.5606 36.4393C38.2793 36.158 37.8978 36 37.4999 36H26.9189C26.9729 36.492 26.9999 36.993 26.9999 37.5ZM8.99993 19.5V24.768C7.94097 25.1428 6.93312 25.6487 5.99993 26.274V19.5C5.99993 17.5109 6.7901 15.6032 8.19663 14.1967C9.60315 12.7902 11.5108 12 13.4999 12H46.4999C48.4891 12 50.3967 12.7902 51.8032 14.1967C53.2098 15.6032 53.9999 17.5109 53.9999 19.5V40.5C53.9999 42.4891 53.2098 44.3968 51.8032 45.8033C50.3967 47.2098 48.4891 48 46.4999 48H30.3629L27.3629 45H46.4999C47.6934 45 48.838 44.5259 49.6819 43.682C50.5258 42.8381 50.9999 41.6935 50.9999 40.5V19.5C50.9999 18.3065 50.5258 17.1619 49.6819 16.318C48.838 15.4741 47.6934 15 46.4999 15H13.4999C12.3065 15 11.1619 15.4741 10.3179 16.318C9.47403 17.1619 8.99993 18.3065 8.99993 19.5ZM13.4999 48C15.8579 48 18.0359 47.22 19.7879 45.909L27.4379 53.559C27.5772 53.6985 27.7426 53.8091 27.9246 53.8847C28.1066 53.9602 28.3018 53.9992 28.4989 53.9993C28.696 53.9995 28.8911 53.9608 29.0733 53.8855C29.2554 53.8102 29.421 53.6998 29.5604 53.5605C29.6999 53.4212 29.8106 53.2559 29.8861 53.0738C29.9617 52.8918 30.0006 52.6967 30.0008 52.4996C30.0009 52.3025 29.9622 52.1073 29.8869 51.9251C29.8116 51.743 29.7012 51.5775 29.5619 51.438L21.9119 43.788C23.328 41.8943 24.0634 39.5781 23.9991 37.2145C23.9348 34.8508 23.0745 32.578 21.5576 30.7641C20.0407 28.9502 17.956 27.7014 15.6409 27.22C13.3259 26.7385 10.9162 27.0525 8.80184 28.1112C6.68752 29.1699 4.99243 30.9112 3.99103 33.0532C2.98964 35.1953 2.74058 37.6126 3.28417 39.9139C3.82776 42.2151 5.13218 44.2655 6.98622 45.733C8.84026 47.2005 11.1354 47.9993 13.4999 48ZM13.4999 45C11.5108 45 9.60315 44.2098 8.19663 42.8033C6.7901 41.3968 5.99993 39.4891 5.99993 37.5C5.99993 35.5109 6.7901 33.6032 8.19663 32.1967C9.60315 30.7902 11.5108 30 13.4999 30C15.489 30 17.3967 30.7902 18.8032 32.1967C20.2098 33.6032 20.9999 35.5109 20.9999 37.5C20.9999 39.4891 20.2098 41.3968 18.8032 42.8033C17.3967 44.2098 15.489 45 13.4999 45Z" fill="#2696F0"/>
</svg>
