<svg width="60" height="60" viewBox="0 0 60 60" fill="none" xmlns="http://www.w3.org/2000/svg">
<path d="M15 9C12.6131 9 10.3239 9.94821 8.63604 11.636C6.94821 13.3239 6 15.6131 6 18V42C6 44.3869 6.94821 46.6761 8.63604 48.364C10.3239 50.0518 12.6131 51 15 51H28.803C28.3131 50.0409 27.9182 49.0361 27.624 48H15C13.4087 48 11.8826 47.3679 10.7574 46.2426C9.63214 45.1174 9 43.5913 9 42V18C9 16.4087 9.63214 14.8826 10.7574 13.7574C11.8826 12.6321 13.4087 12 15 12H39C40.5913 12 42.1174 12.6321 43.2426 13.7574C44.3679 14.8826 45 16.4087 45 18V27.069C46.0151 27.1619 47.0194 27.3487 48 27.627V18C48 15.6131 47.0518 13.3239 45.364 11.636C43.6761 9.94821 41.3869 9 39 9H15ZM27.069 42C27.2386 40.1409 27.7225 38.3242 28.5 36.627V31.5C28.5 31.1022 28.342 30.7206 28.0607 30.4393C27.7794 30.158 27.3978 30 27 30C26.6022 30 26.2206 30.158 25.9393 30.4393C25.658 30.7206 25.5 31.1022 25.5 31.5V40.5C25.4998 40.7029 25.5407 40.9038 25.6204 41.0904C25.7001 41.2771 25.8168 41.4456 25.9634 41.5858C26.1101 41.7261 26.2837 41.8351 26.4738 41.9062C26.6638 41.9774 26.8663 42.0093 27.069 42ZM37.185 28.257C37.779 28.011 38.385 27.801 39 27.627V19.5C39 19.1022 38.842 18.7206 38.5607 18.4393C38.2794 18.158 37.8978 18 37.5 18C37.1022 18 36.7206 18.158 36.4393 18.4393C36.158 18.7206 36 19.1022 36 19.5V28.803C36.387 28.605 36.78 28.422 37.185 28.257ZM16.5 24C16.1022 24 15.7206 24.158 15.4393 24.4393C15.158 24.7206 15 25.1022 15 25.5V40.5C15 40.8978 15.158 41.2794 15.4393 41.5607C15.7206 41.842 16.1022 42 16.5 42C16.8978 42 17.2794 41.842 17.5607 41.5607C17.842 41.2794 18 40.8978 18 40.5V25.5C18 25.1022 17.842 24.7206 17.5607 24.4393C17.2794 24.158 16.8978 24 16.5 24ZM36.198 34.326C36.4141 35.0959 36.474 35.9012 36.3744 36.6946C36.2748 37.488 36.0176 38.2535 35.6179 38.9461C35.2182 39.6387 34.6842 40.2444 34.0471 40.7276C33.41 41.2108 32.6827 41.5618 31.908 41.76L30.522 42.114C30.4219 43.1281 30.432 44.1501 30.552 45.162L31.602 45.411C32.3974 45.5991 33.146 45.9477 33.8018 46.4354C34.4576 46.9232 35.0069 47.5398 35.4159 48.2474C35.8249 48.955 36.085 49.7387 36.1803 50.5505C36.2756 51.3622 36.204 52.1849 35.97 52.968L35.589 54.237C36.363 54.846 37.2 55.368 38.094 55.788L39.069 54.756C39.6303 54.1617 40.3071 53.6883 41.058 53.3649C41.8088 53.0416 42.6178 52.8751 43.4353 52.8756C44.2528 52.8762 45.0616 53.0438 45.8119 53.3682C46.5623 53.6926 47.2385 54.1669 47.799 54.762L48.81 55.836C49.686 55.431 50.514 54.93 51.276 54.342L50.808 52.674C50.5919 51.9041 50.532 51.0988 50.6316 50.3054C50.7312 49.512 50.9884 48.7465 51.3881 48.0539C51.7878 47.3613 52.3218 46.7556 52.9589 46.2724C53.596 45.7892 54.3233 45.4382 55.098 45.24L56.478 44.886C56.5777 43.8709 56.5676 42.848 56.448 41.835L55.404 41.589C54.6083 41.401 53.8594 41.0522 53.2033 40.5643C52.5472 40.0764 51.9978 39.4595 51.5887 38.7515C51.1797 38.0435 50.9197 37.2594 50.8246 36.4473C50.7296 35.6352 50.8015 34.8123 51.036 34.029L51.414 32.766C50.641 32.1533 49.8006 31.6309 48.909 31.209L47.934 32.241C47.3729 32.8355 46.6962 33.3091 45.9455 33.6327C45.1948 33.9564 44.3859 34.1231 43.5684 34.1229C42.7509 34.1226 41.942 33.9552 41.1915 33.6311C40.441 33.307 39.7647 32.8329 39.204 32.238L38.193 31.164C37.3181 31.5677 36.491 32.0678 35.727 32.655L36.198 34.326ZM43.5 46.5C42.7043 46.5 41.9413 46.1839 41.3787 45.6213C40.8161 45.0587 40.5 44.2957 40.5 43.5C40.5 42.7043 40.8161 41.9413 41.3787 41.3787C41.9413 40.8161 42.7043 40.5 43.5 40.5C44.2957 40.5 45.0587 40.8161 45.6213 41.3787C46.1839 41.9413 46.5 42.7043 46.5 43.5C46.5 44.2957 46.1839 45.0587 45.6213 45.6213C45.0587 46.1839 44.2957 46.5 43.5 46.5Z" fill="#2696F0"/>
</svg>
