<svg width="60" height="60" viewBox="0 0 60 60" fill="none" xmlns="http://www.w3.org/2000/svg">
<path d="M9.00001 26.28V15C8.99701 14.22 9.15601 13.443 9.46801 12.726C9.77439 12.0168 10.2029 11.367 10.734 10.806C11.2611 10.2467 11.8958 9.79973 12.6 9.492C13.32 9.177 14.097 9.012 14.883 9H36.117C36.903 8.994 37.677 9.162 38.391 9.492C39.09 9.816 39.723 10.26 40.266 10.806C40.809 11.346 41.241 11.994 41.532 12.702C41.832 13.431 41.991 14.211 42 15V36H51V42.189C51.003 43.344 50.766 44.484 50.298 45.54C49.3675 47.6545 47.6785 49.3435 45.564 50.274C44.499 50.7429 43.3496 50.9899 42.186 51H35.751C35.5275 50.3681 35.1657 49.7941 34.692 49.32L33.372 48H39V15C39.0022 14.6049 38.9226 14.2137 38.766 13.851C38.6121 13.4968 38.3979 13.172 38.133 12.891C37.8633 12.6064 37.536 12.3824 37.173 12.234C36.8014 12.0788 36.4027 11.9993 36 12H15C14.6083 11.9954 14.2196 12.0698 13.8572 12.2188C13.4949 12.3678 13.1663 12.5882 12.891 12.867C12.6159 13.1448 12.3934 13.47 12.234 13.827C12.0648 14.1941 11.9846 14.596 12 15V24.774C10.9412 25.1492 9.93346 25.6551 9.00001 26.28ZM42.117 48C42.885 48.003 43.641 47.844 44.343 47.532C45.753 46.902 46.878 45.777 47.508 44.367C47.8218 43.6578 47.9892 42.8925 48 42.117V39H42V48H42.117ZM27.738 30H31.5C31.8978 30 32.2794 29.842 32.5607 29.5607C32.842 29.2794 33 28.8978 33 28.5C33 28.1022 32.842 27.7206 32.5607 27.4393C32.2794 27.158 31.8978 27 31.5 27H25.002C26.06 27.8563 26.9825 28.8678 27.738 30ZM19.5 21C19.1022 21 18.7207 20.842 18.4393 20.5607C18.158 20.2794 18 19.8978 18 19.5C18 19.1022 18.158 18.7206 18.4393 18.4393C18.7207 18.158 19.1022 18 19.5 18H31.5C31.8978 18 32.2794 18.158 32.5607 18.4393C32.842 18.7206 33 19.1022 33 19.5C33 19.8978 32.842 20.2794 32.5607 20.5607C32.2794 20.842 31.8978 21 31.5 21H19.5ZM22.8 45.9C20.6753 47.4936 18.0256 48.2227 15.3847 47.9406C12.7438 47.6585 10.3079 46.386 8.56774 44.3796C6.82757 42.3732 5.91241 39.7818 6.00661 37.1276C6.10081 34.4733 7.19736 31.9534 9.07539 30.0754C10.9534 28.1974 13.4734 27.1008 16.1276 27.0066C18.7819 26.9124 21.3732 27.8276 23.3796 29.5677C25.3861 31.3079 26.6585 33.7438 26.9406 36.3847C27.2227 39.0256 26.4936 41.6753 24.9 43.8L32.571 51.429C32.7105 51.5683 32.8211 51.7336 32.8967 51.9157C32.9722 52.0977 33.0112 52.2928 33.0113 52.4899C33.0115 52.687 32.9728 52.8822 32.8975 53.0644C32.8222 53.2465 32.7118 53.412 32.5725 53.5515C32.4332 53.691 32.2679 53.8016 32.0858 53.8772C31.9038 53.9527 31.7087 53.9917 31.5116 53.9918C31.3145 53.992 31.1193 53.9533 30.9371 53.878C30.755 53.8027 30.5895 53.6923 30.45 53.553L22.8 45.9ZM12.333 43.737C13.1523 44.2844 14.0713 44.6651 15.0377 44.8573C16.0041 45.0496 16.9988 45.0496 17.9652 44.8574C18.9316 44.6651 19.8507 44.2845 20.6699 43.7371C21.4892 43.1897 22.1926 42.4862 22.74 41.667C23.2874 40.8477 23.6681 39.9287 23.8603 38.9623C24.0526 37.9959 24.0526 37.0012 23.8604 36.0348C23.6681 35.0684 23.2875 34.1494 22.7401 33.3301C22.1927 32.5108 21.4893 31.8074 20.67 31.26C19.0151 30.154 16.9885 29.7508 15.0363 30.139C13.084 30.5272 11.366 31.675 10.26 33.33C9.15405 34.9849 8.75082 37.0115 9.13902 38.9637C9.52723 40.916 10.6751 42.634 12.33 43.74L12.333 43.737Z" fill="#2696F0"/>
</svg>
