<svg width="184" height="177" viewBox="0 0 184 177" fill="none" xmlns="http://www.w3.org/2000/svg">
<path d="M6.56836 43.1099V113.752H178.265V53.3742L172.133 49.8348V36.275L165.999 32.7356L155.27 38.9295V26.2467L147.605 21.8185L138.344 27.1748V42.5122L130.742 38.1351V30.6198L123.07 26.1955L104.673 36.8137V39.5155L97.9871 43.3537L92.4813 40.0896L86.2913 43.6802V29.554L77.085 24.241L70.9539 27.7804V41.0374L64.8229 37.498L53.2923 44.156V36.212L46.4259 32.24L38.7611 36.6643V43.0037L35.6937 44.7734V38.6857L28.0289 34.2575V25.409L21.8979 21.8696L15.7669 25.409V43.106L11.1656 40.4514L6.56836 43.1099Z" fill="#F0F0F0"/>
<path d="M26.9466 86.2433C-8.9822 106.988 -8.9822 140.62 26.9466 161.357C62.8754 182.094 121.13 182.098 157.055 161.357C192.98 140.616 192.984 106.98 157.055 86.2433C121.126 65.5063 62.8715 65.5024 26.9466 86.2433Z" fill="#FAFAFA"/>
<path d="M34.8324 138.225L37.6836 135.582C37.6836 135.582 37.7976 127.029 35.3633 119.907C31.9419 109.89 24.3125 107.562 21.945 109.029C19.5776 110.496 19.5107 113.634 25.1423 118.782C28.4693 121.818 33.2554 128.633 34.8324 138.225Z" fill="#FC3E4D"/>
<g opacity="0.65">
<path d="M34.8343 138.225L37.6855 135.582C37.6855 135.582 37.7996 127.029 35.3652 119.907C31.9438 109.89 24.3145 107.562 21.947 109.029C19.5795 110.496 19.5127 113.634 25.1442 118.782C28.4713 121.818 33.2573 128.633 34.8343 138.225Z" fill="white"/>
</g>
<path d="M35.2904 133.899H35.2589C35.1966 133.9 35.1363 133.877 35.0908 133.834C35.0453 133.792 35.0182 133.733 35.0151 133.671C34.669 123.8 28.951 113.913 23.8503 110.417C23.7995 110.381 23.7648 110.327 23.7538 110.266C23.7427 110.205 23.7562 110.142 23.7913 110.091C23.827 110.04 23.8813 110.005 23.9424 109.994C24.0035 109.983 24.0665 109.997 24.1177 110.032C29.3088 113.571 35.1292 123.639 35.4831 133.655C35.486 133.712 35.468 133.768 35.4326 133.813C35.3971 133.858 35.3466 133.889 35.2904 133.899Z" fill="white"/>
<path d="M27.6601 144.84C27.2275 145.201 25.6702 144.383 25.2455 144.195C24.5167 143.862 23.8846 143.349 23.4089 142.704C22.8801 141.972 22.589 141.095 22.5752 140.191C22.574 139.713 22.6042 139.234 22.6656 138.76C22.7128 138.292 22.764 137.824 22.8151 137.356C22.8966 136.898 22.8832 136.428 22.7758 135.975C22.5005 135.083 21.596 134.583 20.7465 134.162C19.8223 133.695 18.8352 133.034 18.6465 131.937C18.5567 131.072 18.7558 130.202 19.2128 129.463C19.606 128.708 20.1448 128.012 20.4987 127.225C20.7865 126.67 20.8766 126.033 20.7544 125.42C20.6377 125.052 20.4478 124.711 20.1959 124.417C19.6807 123.768 19.0555 123.202 18.6543 122.479C18.2532 121.755 18.1234 120.795 18.6268 120.139C19.0437 119.6 19.7633 119.411 20.4358 119.352C21.0736 119.319 21.7109 119.425 22.3038 119.663C24.219 120.327 25.5758 122.223 27.5579 122.648C28.3405 122.748 29.1285 122.801 29.9175 122.805C30.704 122.872 31.522 123.12 31.9861 123.749C32.9024 124.988 31.931 126.895 32.6625 128.24C33.3074 129.439 34.6288 129.715 35.5294 130.741C35.9011 131.199 36.1173 131.764 36.1468 132.353C36.2546 133.34 36.1827 134.338 35.9344 135.299C35.6331 136.295 35.272 137.272 34.853 138.225C34.853 138.225 27.727 144.785 27.6601 144.84Z" fill="#FC3E4D"/>
<g opacity="0.3">
<path d="M27.6601 144.84C27.2275 145.202 25.6702 144.384 25.2455 144.195C24.5167 143.862 23.8846 143.349 23.4089 142.704C22.8801 141.972 22.589 141.095 22.5752 140.191C22.574 139.713 22.6042 139.235 22.6656 138.76C22.7128 138.292 22.764 137.824 22.8151 137.356C22.8966 136.898 22.8832 136.428 22.7758 135.976C22.5005 135.083 21.596 134.583 20.7465 134.163C19.8223 133.695 18.8352 133.034 18.6465 131.937C18.5567 131.072 18.7558 130.202 19.2128 129.463C19.606 128.708 20.1448 128.012 20.4987 127.225C20.7865 126.67 20.8766 126.034 20.7544 125.42C20.6377 125.052 20.4478 124.711 20.1959 124.417C19.6807 123.769 19.0555 123.202 18.6543 122.479C18.2532 121.755 18.1234 120.795 18.6268 120.139C19.0437 119.6 19.7633 119.411 20.4358 119.352C21.0736 119.32 21.7109 119.426 22.3038 119.663C24.219 120.327 25.5758 122.223 27.5579 122.648C28.3405 122.748 29.1285 122.801 29.9175 122.805C30.704 122.872 31.522 123.12 31.9861 123.749C32.9024 124.988 31.931 126.895 32.6625 128.24C33.3074 129.439 34.6288 129.715 35.5294 130.741C35.9011 131.2 36.1173 131.764 36.1468 132.354C36.2546 133.34 36.1827 134.338 35.9344 135.299C35.6331 136.295 35.272 137.272 34.853 138.225C34.853 138.225 27.727 144.785 27.6601 144.84Z" fill="white"/>
</g>
<path d="M31.8306 141.288C31.7723 141.296 31.7132 141.281 31.6661 141.246C31.619 141.21 31.5877 141.158 31.5789 141.1C30.4345 132.405 24.7086 123.588 21.2675 121.338C21.2185 121.306 21.1843 121.255 21.1725 121.198C21.1607 121.14 21.1722 121.08 21.2046 121.031C21.2369 120.982 21.2874 120.948 21.3449 120.936C21.4024 120.924 21.4623 120.936 21.5113 120.968C25.0192 123.265 30.8553 132.228 32.0194 141.025C32.0256 141.055 32.0255 141.086 32.0192 141.115C32.013 141.145 32.0005 141.173 31.9828 141.198C31.9651 141.223 31.9424 141.244 31.9162 141.259C31.89 141.275 31.8608 141.285 31.8306 141.288Z" fill="white"/>
<path d="M28.6187 130.985C28.5966 130.989 28.574 130.989 28.5519 130.985C26.4093 130.779 24.2507 130.807 22.1141 131.067C22.0855 131.071 22.0563 131.07 22.0283 131.062C22.0004 131.055 21.9741 131.042 21.9511 131.024C21.9281 131.007 21.9088 130.985 21.8943 130.96C21.8797 130.935 21.8702 130.907 21.8664 130.879C21.8613 130.85 21.8625 130.82 21.8696 130.791C21.8768 130.762 21.8899 130.736 21.908 130.712C21.9262 130.689 21.949 130.67 21.975 130.656C22.001 130.642 22.0296 130.633 22.0591 130.631C24.2335 130.365 26.4304 130.338 28.6109 130.548C28.6395 130.552 28.6672 130.562 28.6922 130.576C28.7172 130.591 28.7391 130.61 28.7566 130.633C28.7741 130.656 28.7869 130.682 28.7943 130.71C28.8017 130.738 28.8035 130.767 28.7997 130.796C28.7942 130.843 28.7736 130.887 28.7409 130.921C28.7083 130.955 28.6654 130.977 28.6187 130.985Z" fill="white"/>
<path d="M146.238 139.798C146.238 139.798 144.759 127.929 149.459 116.595C152.086 110.252 156.439 107.456 159.047 107.291C161.965 107.106 164.777 109.985 162.012 114.118C159.381 118.05 154.579 119.474 151.335 129.888C149.199 136.754 149.274 141.359 149.274 141.359L146.238 139.798Z" fill="#FC3E4D"/>
<path opacity="0.5" d="M146.238 139.798C146.238 139.798 144.759 127.929 149.459 116.595C152.086 110.252 156.439 107.456 159.047 107.291C161.965 107.106 164.777 109.985 162.012 114.118C159.381 118.05 154.579 119.474 151.335 129.888C149.199 136.754 149.274 141.359 149.274 141.359L146.238 139.798Z" fill="white"/>
<path d="M148.172 136.884C148.196 136.883 148.22 136.877 148.241 136.867C148.263 136.856 148.282 136.842 148.298 136.824C148.314 136.806 148.326 136.785 148.333 136.762C148.341 136.739 148.344 136.715 148.341 136.691C147.665 123.745 154.358 113.249 159.325 109.926C159.365 109.898 159.392 109.857 159.402 109.81C159.411 109.763 159.402 109.714 159.376 109.674C159.349 109.634 159.306 109.607 159.259 109.597C159.211 109.588 159.162 109.597 159.121 109.623C154.083 112.993 147.295 123.623 147.98 136.711C147.983 136.759 148.005 136.804 148.041 136.837C148.077 136.869 148.124 136.886 148.172 136.884Z" fill="white"/>
<path d="M149.275 141.332C149.837 138.386 151.615 135.433 155.276 132.354C158.938 129.274 163.928 126.561 163.338 123.658C162.748 120.756 158.914 121.161 156.157 122.601C153.4 124.04 147.069 129.994 147.757 140.557L149.275 141.332Z" fill="#FC3E4D"/>
<path opacity="0.65" d="M149.275 141.332C149.837 138.386 151.615 135.433 155.276 132.354C158.938 129.274 163.928 126.561 163.338 123.658C162.748 120.756 158.914 121.161 156.157 122.601C153.4 124.04 147.069 129.994 147.757 140.557L149.275 141.332Z" fill="white"/>
<path d="M148.696 137.981C148.739 137.98 148.779 137.963 148.81 137.934C148.841 137.905 148.861 137.866 148.865 137.824C149.652 131.583 157.274 124.095 160.663 123.057C160.686 123.05 160.708 123.04 160.727 123.025C160.745 123.01 160.761 122.992 160.772 122.971C160.784 122.95 160.791 122.927 160.793 122.903C160.795 122.879 160.793 122.855 160.785 122.833C160.779 122.809 160.768 122.787 160.753 122.768C160.738 122.749 160.719 122.734 160.698 122.722C160.676 122.711 160.653 122.704 160.629 122.702C160.605 122.7 160.58 122.703 160.557 122.711C157.018 123.796 149.341 131.292 148.504 137.777C148.5 137.8 148.502 137.825 148.508 137.848C148.514 137.871 148.525 137.893 148.539 137.912C148.554 137.931 148.572 137.947 148.593 137.959C148.614 137.971 148.637 137.978 148.661 137.981H148.696Z" fill="white"/>
<path d="M53.4836 163.001C68.1942 163.001 80.1195 156.117 80.1195 147.624C80.1195 139.132 68.1942 132.248 53.4836 132.248C38.773 132.248 26.8477 139.132 26.8477 147.624C26.8477 156.117 38.773 163.001 53.4836 163.001Z" fill="#E0E0E0"/>
<path d="M129.817 162.8C146.1 162.8 159.3 155.18 159.3 145.78C159.3 136.38 146.1 128.759 129.817 128.759C113.534 128.759 100.334 136.38 100.334 145.78C100.334 155.18 113.534 162.8 129.817 162.8Z" fill="#E0E0E0"/>
<path d="M110.553 68.8767C110.712 68.8503 110.875 68.8772 111.018 68.9533C111.16 69.0294 111.273 69.1504 111.339 69.2975C111.457 69.2228 111.532 69.0812 111.666 69.0497C111.799 69.0183 111.972 69.1598 112.059 69.3014C112.404 69.8589 112.565 70.5115 112.517 71.1657C112.469 71.8198 112.215 72.442 111.791 72.9431C111.742 73.0063 111.679 73.0574 111.607 73.0925C111.516 73.1162 111.422 73.1162 111.331 73.0925C110.844 73.0372 110.364 72.9237 109.904 72.7543C109.666 72.6953 109.444 72.5823 109.257 72.4241C109.069 72.2659 108.921 72.0667 108.822 71.8419C108.76 71.4897 108.804 71.1271 108.948 70.7998C109.068 70.3468 109.302 69.9323 109.628 69.5964C109.857 69.4037 110.238 68.9318 110.553 68.8767Z" fill="#9A4A4D"/>
<path d="M106.866 58.9427C103.496 54.1252 103.575 53.1695 104.9 50.6448C105.628 49.2723 109.041 44.4469 112.47 39.6333C115.809 34.9377 118.944 34.5208 121.405 34.1276L120.226 44.7458L113.406 54.1842C113.406 54.1842 117.123 61.9315 117.791 64.1102C118.755 67.2563 117.984 71.1536 115.432 72.9626C112.879 74.7716 112.254 74.9761 110.319 74.4216C108.384 73.8671 107.916 73.6351 107.787 72.9744C107.464 71.3148 107.224 71.0907 108.286 70.2216C108.892 69.7339 109.411 69.2423 109.737 69.0418C109.771 69.0228 109.808 69.0109 109.846 69.0068C109.885 69.0028 109.923 69.0065 109.96 69.0179C109.997 69.0294 110.031 69.0482 110.06 69.0732C110.09 69.0983 110.114 69.1291 110.131 69.1637C110.602 70.1272 109.206 71.3778 109.206 71.3778C109.861 71.5576 110.489 71.822 111.074 72.1643C111.468 70.4732 111.145 69.4704 111.554 68.6052C111.814 68.0547 112.286 67.1265 111.947 66.6389C111.212 65.5535 108.966 61.9512 106.866 58.9427Z" fill="#B16668"/>
<path d="M113.398 54.1882C112.01 55.2776 110.008 55.1557 109.072 54.8607C109.778 55.2698 110.583 55.475 111.398 55.4534C112.213 55.4319 113.006 55.1845 113.689 54.7388" fill="#9A4A4D"/>
<path d="M121.713 33.8878C118.626 34.3676 115.759 34.871 113.289 38.1823C111.582 40.4672 105.168 49.4612 104.378 51.2702C103.587 53.0792 103.634 54.1332 105.326 56.7759C107.099 59.5524 108.287 61.1648 108.287 61.1648C108.287 61.1648 110.084 59.4973 115.609 58.9074L113.588 54.259L121.713 43.0549V33.8878Z" fill="#455A64"/>
<path d="M113.589 54.2668C112.756 55.3444 109.68 55.4152 108.434 55.073C110.007 56.3708 112.846 56.0877 113.884 54.959L113.589 54.2668Z" fill="#37474F"/>
<path d="M117.068 128.103C117.371 131.89 117.567 134.702 117.512 135.354C117.312 137.714 116.085 139.169 115.153 140.14C113.186 142.17 111.767 142.976 109.305 144.726C109.631 145.662 114.7 145.756 116.155 145.084C118.274 144.084 120.324 142.944 122.29 141.67C124.312 140.247 125.212 138.65 125.303 136.404C125.303 136.125 125.197 134.709 125.181 134.584C125.208 134.061 125.433 131.516 125.845 128.012L117.068 128.103Z" fill="#B16668"/>
<path d="M146.872 135.594L147.064 126.671L137.504 127.572L139.537 136.113C139.537 136.113 140.54 148.195 141.012 150.157C142.538 156.493 147.678 153.936 148.287 150.578C148.696 148.344 146.872 135.594 146.872 135.594Z" fill="#B16668"/>
<path d="M104.278 147.723C104.14 147.723 103.987 149.229 104.742 149.842C105.611 150.55 108.14 151.679 111.427 151.144C114.715 150.609 116.453 149.532 117.719 148.391C118.986 147.251 120.795 145.638 122.274 145.245C123.646 144.891 125.872 144.038 126.301 143.593C126.729 143.149 126.607 141.234 126.607 141.234L104.278 147.723Z" fill="#263238"/>
<path d="M125.17 134.584C125.301 134.645 125.418 134.733 125.512 134.842C125.607 134.951 125.678 135.079 125.72 135.217C125.838 135.74 125.862 136.397 126.114 137.27C126.452 138.449 126.731 140.911 126.582 141.894C126.432 142.878 123.455 143.81 122.032 144.407C120.608 145.005 118.913 146.228 117.458 147.514C116.003 148.8 112.739 150.236 110.595 150.334C107.323 150.487 105.176 149.665 104.484 148.505C103.627 147.07 103.981 145.54 107.689 143.668C108.389 143.314 110.835 141.745 111.681 141.179C112.569 140.584 113.406 139.916 114.182 139.181C114.574 138.808 114.945 138.414 115.295 138.001C115.659 137.63 115.967 137.208 116.207 136.747C116.247 136.648 116.274 136.53 116.309 136.424C116.405 136.133 116.477 135.834 116.526 135.531C116.577 135.217 116.601 134.745 116.892 134.556C117.183 134.367 121.886 135.134 122.232 135.645C122.464 136.061 122.585 136.53 122.582 137.006C122.602 137.226 122.602 137.447 122.61 137.667C122.61 137.761 122.582 137.934 122.712 137.891C122.842 137.848 122.964 137.498 123.007 137.399C123.105 137.152 123.164 136.884 123.27 136.636C123.36 136.338 123.509 136.061 123.711 135.822C124.32 135.272 124.93 135.358 125.107 135.17C125.103 135.174 125.154 134.772 125.17 134.584Z" fill="#37474F"/>
<path d="M107.48 143.77C112.231 143.947 113.678 147.703 113.938 149.516C112.871 149.961 111.742 150.237 110.591 150.334C107.319 150.487 105.034 149.669 104.342 148.509C103.536 147.156 104.161 145.159 107.48 143.77Z" fill="#FAFAFA"/>
<path d="M114.449 144.459C114.503 144.454 114.554 144.434 114.595 144.4C114.641 144.358 114.669 144.3 114.672 144.238C114.676 144.177 114.655 144.116 114.615 144.069C113.93 143.283 111.74 141.607 110.021 141.851C109.991 141.856 109.962 141.866 109.936 141.881C109.91 141.897 109.887 141.918 109.868 141.942C109.85 141.967 109.837 141.994 109.829 142.024C109.822 142.054 109.82 142.084 109.825 142.115C109.829 142.145 109.839 142.174 109.855 142.2C109.871 142.226 109.891 142.249 109.916 142.268C109.94 142.286 109.968 142.299 109.998 142.307C110.027 142.314 110.058 142.316 110.088 142.311C111.689 142.087 113.722 143.751 114.265 144.376C114.288 144.402 114.316 144.423 114.348 144.437C114.38 144.452 114.415 144.459 114.449 144.459Z" fill="#F5F5F5"/>
<path d="M116.45 143.196C116.503 143.195 116.554 143.176 116.595 143.141C116.642 143.1 116.67 143.043 116.675 142.981C116.679 142.919 116.659 142.858 116.619 142.811C115.93 142.024 113.74 140.345 112.025 140.589C111.995 140.593 111.966 140.603 111.94 140.619C111.913 140.635 111.891 140.655 111.872 140.68C111.854 140.704 111.841 140.732 111.833 140.762C111.826 140.791 111.824 140.822 111.829 140.852C111.832 140.883 111.841 140.912 111.856 140.938C111.872 140.965 111.892 140.988 111.916 141.006C111.94 141.025 111.968 141.038 111.998 141.045C112.027 141.053 112.058 141.054 112.088 141.049C113.693 140.825 115.726 142.488 116.269 143.117C116.291 143.144 116.318 143.165 116.35 143.178C116.381 143.192 116.415 143.198 116.45 143.196Z" fill="#F5F5F5"/>
<path d="M118.299 141.765C118.353 141.762 118.404 141.741 118.444 141.706C118.491 141.666 118.519 141.609 118.523 141.547C118.528 141.486 118.508 141.426 118.468 141.379C117.78 140.593 115.581 138.914 113.875 139.157C113.814 139.166 113.758 139.198 113.721 139.247C113.684 139.296 113.668 139.358 113.676 139.419C113.684 139.48 113.717 139.535 113.766 139.572C113.815 139.61 113.876 139.626 113.937 139.618C115.538 139.393 117.575 141.057 118.118 141.686C118.141 141.711 118.169 141.731 118.2 141.744C118.231 141.758 118.265 141.765 118.299 141.765Z" fill="#F5F5F5"/>
<path d="M120.112 140.349C120.164 140.345 120.213 140.326 120.254 140.294C120.301 140.254 120.33 140.196 120.335 140.134C120.34 140.073 120.321 140.011 120.281 139.964C119.333 138.843 117.005 137.49 115.291 137.734C115.23 137.742 115.174 137.774 115.137 137.823C115.1 137.872 115.084 137.934 115.092 137.995C115.1 138.056 115.133 138.111 115.182 138.149C115.231 138.186 115.292 138.202 115.354 138.194C116.899 137.974 119.09 139.271 119.927 140.266C119.95 140.293 119.979 140.314 120.01 140.328C120.042 140.342 120.077 140.35 120.112 140.349Z" fill="#F5F5F5"/>
<path d="M140.277 151.514C140.423 153.716 140.761 155.171 141.52 156.453C142.279 157.735 143.679 158.121 145.091 157.727C146.503 157.334 148.312 156.3 148.701 154.4C149.09 152.501 149.311 151.191 148.969 149.154L140.277 151.514Z" fill="#263238"/>
<path d="M146.874 135.594C147.46 135.524 147.334 138.552 147.7 141.493C148.093 144.639 148.541 145.91 148.88 148.509C149.273 151.474 148.825 152.808 147.853 154.613C146.882 156.418 143.398 158.223 141.644 155.671C140.216 153.59 140.133 151.266 140.232 148.301C140.334 145.233 140.027 143.188 139.768 140.86C139.5 138.469 139.02 136.377 139.528 136.121C139.658 136.9 139.83 137.67 140.043 138.43C140.106 138.595 140.334 139.004 140.436 138.383C140.46 138.198 140.401 137.773 140.436 137.596C140.441 137.437 140.493 137.284 140.586 137.155C140.68 137.027 140.81 136.93 140.959 136.876C141.726 136.48 142.577 136.274 143.441 136.275C144.585 136.255 145.572 136.204 146.194 136.538C146.587 136.739 146.587 137.124 146.618 137.498C146.673 137.946 146.681 138.221 146.787 138.131C146.984 137.962 146.874 135.594 146.874 135.594Z" fill="#37474F"/>
<path d="M149.067 150.244C149.194 151.824 148.828 153.405 148.021 154.77C147.049 156.575 143.282 158.388 141.532 155.836C140.659 154.566 140.415 153.055 140.281 151.51C141.296 149.52 147.419 148.572 149.067 150.244Z" fill="#FAFAFA"/>
<path d="M141.523 148.269L141.594 148.246C141.617 148.246 144.307 147.027 146.946 147.636C146.974 147.642 147.004 147.642 147.032 147.636C147.061 147.631 147.088 147.62 147.112 147.604C147.136 147.588 147.157 147.567 147.173 147.543C147.189 147.519 147.2 147.492 147.206 147.463C147.218 147.405 147.207 147.345 147.177 147.295C147.146 147.244 147.097 147.208 147.04 147.192C144.248 146.547 141.503 147.786 141.401 147.837C141.349 147.867 141.311 147.915 141.293 147.971C141.275 148.028 141.278 148.089 141.303 148.144C141.321 148.185 141.353 148.22 141.392 148.242C141.432 148.265 141.478 148.274 141.523 148.269Z" fill="#F5F5F5"/>
<path d="M146.795 145.426C146.837 145.42 146.877 145.402 146.91 145.374C146.942 145.346 146.967 145.31 146.98 145.269C146.997 145.212 146.993 145.15 146.966 145.097C146.94 145.043 146.894 145.002 146.838 144.981C144.211 144.077 141.332 145.512 141.206 145.575C141.154 145.606 141.116 145.655 141.1 145.713C141.084 145.771 141.091 145.833 141.12 145.886C141.133 145.912 141.151 145.935 141.173 145.954C141.195 145.972 141.22 145.986 141.248 145.995C141.275 146.003 141.305 146.006 141.333 146.003C141.362 146 141.39 145.991 141.415 145.976C141.438 145.976 144.258 144.572 146.704 145.414C146.733 145.426 146.764 145.43 146.795 145.426Z" fill="#F5F5F5"/>
<path d="M146.665 143.338C146.707 143.333 146.746 143.316 146.778 143.29C146.81 143.263 146.834 143.228 146.846 143.188C146.867 143.132 146.864 143.07 146.839 143.015C146.814 142.961 146.769 142.918 146.713 142.897C143.822 141.843 141.077 143.409 140.975 143.475C140.925 143.509 140.891 143.561 140.878 143.619C140.866 143.678 140.876 143.739 140.908 143.79C140.922 143.815 140.941 143.836 140.964 143.853C140.987 143.87 141.013 143.882 141.04 143.889C141.068 143.896 141.097 143.897 141.125 143.892C141.153 143.887 141.179 143.876 141.203 143.861C141.227 143.861 143.881 142.351 146.571 143.326C146.601 143.338 146.634 143.342 146.665 143.338Z" fill="#F5F5F5"/>
<path d="M146.52 141.285C146.561 141.28 146.6 141.264 146.632 141.237C146.663 141.21 146.686 141.175 146.697 141.135C146.718 141.08 146.716 141.018 146.692 140.963C146.668 140.909 146.623 140.866 146.568 140.844C143.858 139.814 140.905 141.419 140.795 141.485C140.744 141.518 140.707 141.569 140.693 141.627C140.678 141.686 140.686 141.747 140.716 141.8C140.73 141.825 140.749 141.848 140.771 141.866C140.794 141.883 140.82 141.896 140.848 141.904C140.876 141.911 140.906 141.913 140.934 141.908C140.963 141.904 140.99 141.894 141.015 141.879C141.038 141.879 143.905 140.306 146.422 141.273C146.453 141.285 146.487 141.289 146.52 141.285Z" fill="#EBEBEB"/>
<path d="M143.519 63.8979C144.121 69.8284 143.999 71.2914 144.416 84.4658C144.809 97.2469 144.809 99.1189 144.892 100.657C145.057 104.196 147.074 105.604 147.251 113.929C147.401 121.563 147.133 130.911 147.133 130.911C147.133 130.911 145.741 132.197 142.843 132.354C141.27 132.45 139.698 132.139 138.281 131.449C138.281 131.449 134.403 114.342 133.168 109.084C131.733 102.894 129.405 92.1187 129.405 92.1187C129.405 92.1187 128.225 101.734 127.796 104.829C127.38 107.783 128.39 108.935 127.757 115.553C127.25 120.827 125.747 129.644 125.747 129.644C124.413 130.342 122.927 130.7 121.422 130.686C118.106 130.533 117.06 129.396 117.06 129.396C117.06 129.396 115.204 109.674 115.204 102.127C115.184 94.1401 115.503 75.5032 115.648 63.9019L143.519 63.8979Z" fill="#455A64"/>
<path d="M129.412 92.1226L127.713 78.842C127.713 78.842 123.387 77.5364 120.717 74.5161C120.847 76.7105 124.614 79.6522 126.411 80.1516L128.417 91.9299L127.788 104.833L129.412 92.1226Z" fill="#37474F"/>
<path d="M135.398 65.6715C136.025 66.7949 136.531 67.9813 136.909 69.2109C137.297 70.4281 137.616 71.6663 137.864 72.9194C138.108 74.1739 138.301 75.4363 138.419 76.7066C138.558 77.9757 138.598 79.2538 138.537 80.5291C138.277 79.2785 138.037 78.0358 137.801 76.7931C137.565 75.5504 137.333 74.3116 137.078 73.0767C136.822 71.8419 136.578 70.6109 136.291 69.38C136.004 68.1491 135.737 66.9064 135.398 65.6715Z" fill="#37474F"/>
<path d="M137.041 66.1907C137.653 66.8033 138.206 67.4722 138.693 68.1885C139.184 68.9002 139.626 69.6453 140.014 70.4183C140.401 71.1943 140.727 71.9989 140.989 72.8251C141.261 73.6515 141.426 74.5092 141.481 75.3774L140.407 73.0532C140.042 72.2902 139.68 71.5312 139.294 70.7762C138.909 70.0211 138.535 69.2699 138.158 68.5109C137.78 67.7519 137.391 66.989 137.041 66.1907Z" fill="#37474F"/>
<path d="M134.396 80.8556C134.79 84.8315 135.155 88.8074 135.513 92.7794C135.871 96.7514 136.693 101.152 137.263 105.085C137.834 109.017 140.669 124.485 141.129 128.449C140.343 124.516 137.098 109.159 136.473 105.203C135.848 101.246 135.136 96.8183 134.9 92.8306C134.664 88.8428 134.495 84.8512 134.396 80.8556Z" fill="#37474F"/>
<path d="M119.531 80.6864L119.137 91.108C119.078 92.8423 119.008 94.5805 118.968 96.3148C118.929 98.0491 118.866 99.7873 118.933 101.498C119 103.209 119.491 119.832 119.326 123.316C118.831 119.451 118.319 105.03 118.123 101.53C118.052 98.0137 118.272 94.549 118.516 91.0726C118.76 87.5961 119.078 84.1353 119.531 80.6864Z" fill="#37474F"/>
<path d="M126.145 127.607L125.653 131.26C125.653 131.26 123.837 132.157 120.797 131.96C117.757 131.764 117.057 130.726 117.057 130.726L116.758 127.265C116.758 127.265 117.902 128.158 120.69 128.28C124.277 128.449 126.145 127.607 126.145 127.607Z" fill="#37474F"/>
<path d="M147.289 128.35L147.175 131.996C147.175 131.996 145.736 133.176 142.707 133.459C139.679 133.742 138.338 132.672 138.338 132.672L137.713 129.451C137.713 129.451 139.231 130.096 142.003 129.845C143.835 129.639 145.621 129.134 147.289 128.35Z" fill="#37474F"/>
<path d="M142.217 34.5993C142.217 34.5993 145.147 38.1938 145.198 46.653C145.222 50.621 143.956 54.8683 143.96 59.497C143.96 63.9134 144.353 69.7613 144.353 69.7613C139.787 73.5681 119.97 75.1451 115.381 69.313C115.381 69.313 115.401 62.3168 115.475 54.829C115.534 49.2407 116.01 44.9226 116.604 42.2759C117.56 38.0011 120.501 34.7763 121.716 33.8875C125.629 32.9122 129.295 32.4442 132.118 32.6448C137.046 32.9909 139.976 34.037 142.217 34.5993Z" fill="#F5F5F5"/>
<path d="M130.773 33.0028C131.229 33.0028 131.67 33.0028 132.087 33.046C135.026 33.2553 137.933 33.7827 140.758 34.6191C141.183 34.7371 141.592 34.8511 141.977 34.9494C142.426 35.5826 144.75 39.2164 144.793 46.6452C144.749 48.6325 144.554 50.6137 144.211 52.5717C143.823 54.8584 143.604 57.1704 143.554 59.4892C143.554 63.3983 143.861 68.4793 143.928 69.5687C141.529 71.3934 135.111 72.7502 128.807 72.7502C122.416 72.7502 117.681 71.4445 115.778 69.1636C115.778 68.1254 115.806 61.6404 115.872 54.8251C115.923 49.8464 116.329 45.3002 116.989 42.3546C117.89 38.3354 120.631 35.205 121.885 34.2533C124.789 33.4884 127.772 33.066 130.773 32.9949M130.773 32.6016C127.718 32.6738 124.682 33.1055 121.728 33.8876C120.509 34.7764 117.567 38.0012 116.616 42.276C116.022 44.9227 115.546 49.2407 115.487 54.829C115.412 62.3011 115.393 69.313 115.393 69.313C117.552 72.0659 123.093 73.1631 128.827 73.1631C135.264 73.1631 141.95 71.7749 144.365 69.7614C144.365 69.7614 143.971 63.9135 143.971 59.4971C143.971 54.8684 145.234 50.6211 145.21 46.653C145.159 38.1939 142.229 34.5994 142.229 34.5994C139.991 34.037 137.058 32.991 132.126 32.6331C131.697 32.6016 131.249 32.5859 130.785 32.5898L130.773 32.6016Z" fill="#E0E0E0"/>
<path d="M137.134 13.0527C137.134 13.0527 138.573 13.1235 139.568 14.8696C140.068 15.7505 140.453 17.3669 139.293 22.0467C138.849 23.8755 138.129 25.6259 137.158 27.2379C136.871 27.7624 136.394 28.1567 135.824 28.339V24.7642L135.887 22.2709C135.887 22.2709 133.787 20.5051 133.555 18.7315C133.264 16.4388 134.141 15.1095 134.141 15.1095L137.134 13.0527Z" fill="#263238"/>
<path d="M137.635 13.1668C137.222 11.169 134.551 8.84083 129.525 8.71498C127.819 8.64706 126.125 9.03631 124.619 9.84248C123.113 10.6487 121.85 11.8425 120.96 13.3005C119.595 15.6876 121.676 17.6461 121.676 17.6461L134.241 16.6708L137.635 13.1668Z" fill="#263238"/>
<path d="M139.186 25.7197C137.322 26.6714 136.413 25.2321 136.413 25.2321L136.083 33.7424C132.591 38.5953 122.905 36.8885 126.77 33.239L126.829 30.6552C126.319 30.6501 125.809 30.6107 125.304 30.5373C124.451 30.4524 123.641 30.1213 122.972 29.5844C122.304 29.0474 121.806 28.3278 121.54 27.513C121.222 26.5498 121.031 25.5489 120.974 24.536C120.879 22.7642 120.971 20.9873 121.249 19.2348C121.469 17.8466 121.422 17.1269 121.642 15.9903C121.815 15.1212 122.165 14.1695 122.964 13.7566C124.93 12.7302 126.845 14.083 129.673 15.074C130.853 15.487 133.66 15.6049 134.392 15.2471C133.448 16.3285 133.55 19.6595 135.029 20.977C135.22 21.3208 135.474 21.6262 135.776 21.8775C136.405 22.3809 136.866 21.0202 137.349 20.4814C137.833 19.9427 139.768 19.4236 140.649 21.1343C140.865 21.529 140.999 21.9636 141.042 22.4116C141.085 22.8596 141.037 23.3117 140.9 23.7405C140.763 24.1693 140.541 24.5659 140.246 24.9061C139.951 25.2463 139.591 25.5231 139.186 25.7197Z" fill="#B16668"/>
<path d="M126.828 30.6553C129.023 30.5845 131.083 30.262 132.362 29.6917C133.64 29.1215 134.741 27.3754 135.071 25.6608C135.11 27.0333 134.564 29.4794 132.629 30.5412C130.694 31.603 128.24 31.6738 126.805 31.721L126.828 30.6553Z" fill="#9A4A4D"/>
<path d="M129.49 17.5753L131.382 18.2517C131.469 17.9971 131.453 17.7184 131.337 17.4757C131.22 17.233 131.014 17.0456 130.76 16.9539C130.636 16.9095 130.505 16.8904 130.373 16.8978C130.241 16.9051 130.113 16.9387 129.994 16.9966C129.876 17.0546 129.77 17.1356 129.684 17.235C129.597 17.3343 129.531 17.4501 129.49 17.5753Z" fill="#37474F"/>
<path d="M122.325 17.9409L124.244 17.355C124.209 17.2281 124.149 17.1096 124.067 17.0065C123.985 16.9034 123.883 16.8177 123.768 16.7547C123.652 16.6916 123.525 16.6523 123.394 16.6393C123.263 16.6262 123.131 16.6395 123.005 16.6786C122.751 16.7602 122.538 16.9373 122.411 17.1727C122.284 17.4081 122.253 17.6834 122.325 17.9409Z" fill="#37474F"/>
<path d="M130.654 19.8878C130.656 20.0587 130.606 20.2261 130.513 20.3688C130.419 20.5116 130.284 20.6232 130.127 20.6895C129.97 20.7558 129.796 20.7737 129.628 20.741C129.461 20.7084 129.306 20.6266 129.185 20.5061C129.064 20.3855 128.982 20.2317 128.948 20.0642C128.915 19.8967 128.932 19.723 128.998 19.5652C129.063 19.4074 129.174 19.2727 129.316 19.1782C129.459 19.0837 129.626 19.0337 129.797 19.0344C130.023 19.0344 130.241 19.1242 130.402 19.2841C130.562 19.4441 130.653 19.6611 130.654 19.8878Z" fill="#263238"/>
<path d="M124.611 19.5927C124.613 19.7646 124.565 19.9333 124.471 20.0773C124.377 20.2213 124.242 20.3341 124.083 20.4011C123.925 20.4682 123.75 20.4865 123.582 20.4539C123.413 20.4212 123.258 20.3389 123.136 20.2176C123.014 20.0963 122.931 19.9415 122.897 19.7728C122.864 19.6041 122.882 19.4293 122.948 19.2707C123.014 19.112 123.126 18.9768 123.27 18.8821C123.413 18.7875 123.582 18.7377 123.754 18.7393C123.981 18.7393 124.198 18.8291 124.359 18.989C124.519 19.1489 124.61 19.366 124.611 19.5927Z" fill="#263238"/>
<path d="M127.524 18.4995L126.993 23.612L124.205 22.6878C124.983 21.0604 126.118 19.6289 127.524 18.4995Z" fill="#9A4A4D"/>
<path d="M126.508 25.1063L129.304 24.4377C129.385 24.8178 129.316 25.2146 129.112 25.5452C128.907 25.8757 128.583 26.1144 128.207 26.2114C128.022 26.2545 127.831 26.2598 127.645 26.2272C127.458 26.1945 127.28 26.1244 127.122 26.0212C126.963 25.9179 126.827 25.7837 126.721 25.6265C126.616 25.4692 126.543 25.2923 126.508 25.1063Z" fill="#9A4A4D"/>
<path d="M127.34 26.1445C127.452 25.7737 127.689 25.4533 128.011 25.2381C128.333 25.0229 128.72 24.9262 129.106 24.9647C129.176 24.9717 129.246 24.9849 129.314 25.004C129.271 25.2939 129.143 25.5646 128.946 25.7822C128.749 25.9997 128.493 26.1545 128.209 26.2271C127.918 26.294 127.613 26.265 127.34 26.1445Z" fill="#FFA8A7"/>
<path d="M142.206 35.1108C146.606 35.6693 148.545 37.0772 150.397 42.461C151.298 45.0801 152.501 48.5645 153.484 51.7735C153.457 51.6831 155.03 50.7117 155.179 50.5937L157.095 49.2763C158.274 48.4898 159.454 47.5459 160.186 46.3189C160.917 45.0919 160.854 43.9043 160.945 42.579C161.027 41.3992 161.295 40.2626 161.338 39.0946C161.362 38.0918 162.447 38.4064 162.872 39.5705C163.342 41.1002 163.591 42.6894 163.611 44.2897L165.07 49.469C165.07 49.469 156.969 61.267 153.197 62.4468H153.154H153.127C151.829 62.8912 150.177 62.5097 148.887 60.6889C146.606 57.472 144.467 52.1196 142.894 48.4072C141.321 44.6947 139.929 38.0761 142.206 35.1108Z" fill="#B16668"/>
<path d="M142.216 34.5995C142.216 34.5995 145.417 35.1855 147.167 36.6327C148.917 38.0799 150.199 41.1238 151.379 44.7458C152.559 48.3677 153.585 51.5729 153.585 51.5729L156.468 49.7127C156.468 49.7127 155.854 51.0459 156.468 53.3111C157.081 55.5763 159.488 56.4218 160.007 56.2567C158.836 57.7408 157.567 59.1453 156.208 60.4607C154.521 61.9905 153.188 62.9422 151.631 62.6984C150.073 62.4545 148.878 61.5815 147.258 58.5769C145.637 55.5724 141.429 46.2008 141.429 46.2008C141.429 46.2008 139.188 37.7771 142.216 34.5995Z" fill="#455A64"/>
<path d="M153.302 50.6212L153.601 51.5729C150.892 53.614 150.168 55.0494 150.062 58.109C149.2 54.5263 151.183 52.0409 153.302 50.6212Z" fill="#37474F"/>
<path d="M162.215 30.5529L163.882 31.5164V62.9383L162.215 61.9748V30.5529Z" fill="#455A64"/>
<path d="M165.548 30.5529L163.881 31.5164V62.9383L165.548 61.9748V30.5529Z" fill="#37474F"/>
<path d="M165.55 30.5527L163.882 29.5892L162.215 30.5527L163.882 31.5162L165.55 30.5527Z" fill="#263238"/>
<path d="M176.662 26.3803C176.662 18.5819 171.188 9.10414 164.435 5.20687C161.061 3.24054 158.009 3.07537 155.783 4.34955L154.667 4.99844C152.456 6.27262 151.088 9.00976 151.088 12.9031C151.088 20.7016 156.562 30.1793 163.315 34.0805C166.685 36.0272 169.737 36.2081 171.947 34.9378L173.068 34.2889C175.289 33.0147 176.662 30.2776 176.662 26.3803Z" fill="#455A64"/>
<path d="M171.969 34.9342C176.743 32.178 176.743 23.2405 171.969 14.9718C167.195 6.7031 159.455 2.23432 154.681 4.99053C149.907 7.74673 149.907 16.6842 154.681 24.9529C159.455 33.2216 167.195 37.6904 171.969 34.9342Z" fill="#F5F5F5"/>
<path d="M157.864 4.31404C159.543 4.31404 161.36 4.86854 163.255 5.96575C169.961 9.83549 175.411 19.2818 175.411 27.0212C175.411 32.3185 172.875 35.6102 168.785 35.6102C167.106 35.6102 165.293 35.0557 163.393 33.9624C156.688 30.0769 151.237 20.6385 151.237 12.903C151.237 7.60568 153.778 4.31404 157.864 4.31404ZM157.864 4.17639C153.852 4.17639 151.1 7.37365 151.1 12.903C151.1 20.7014 156.574 30.1792 163.326 34.0804C165.293 35.213 167.141 35.7478 168.785 35.7478C172.796 35.7478 175.549 32.5506 175.549 27.0212C175.549 19.2228 170.075 9.74504 163.326 5.84777C161.36 4.71517 159.508 4.17639 157.864 4.17639Z" fill="#E0E0E0"/>
<path d="M168.785 34.9298C167.247 34.9298 165.501 34.3871 163.735 33.3567C157.219 29.5971 151.938 20.4143 151.938 12.9068C151.938 8.03035 154.215 5.0022 157.88 5.0022C159.67 5.08221 161.41 5.62412 162.929 6.57526C169.446 10.3388 174.727 19.5177 174.727 27.0251C174.727 31.8977 172.45 34.9298 168.785 34.9298Z" fill="#FC3E4D"/>
<path d="M155.477 18.1846L171.172 27.2493V21.7436L155.477 12.6788V18.1846Z" fill="#F5F5F5"/>
<path d="M165.535 40.9272C166.344 40.884 167.138 41.1544 167.753 41.6823C168.335 42.107 169.499 42.693 169.255 43.5857C169.154 43.8267 169.083 44.0788 169.043 44.3368C169.056 44.6102 169.126 44.8779 169.247 45.1234C169.308 45.2446 169.343 45.3771 169.349 45.5125C169.356 45.6479 169.335 45.7832 169.286 45.9099C169.176 46.0671 169.055 46.2169 168.925 46.3582C168.794 46.5857 168.742 46.8494 168.775 47.1094C168.809 47.3701 168.821 47.6332 168.811 47.8959C168.748 48.4583 168.252 48.6824 167.804 48.9302C167.218 49.2251 166.624 49.4847 166.01 49.7443C165.023 50.1729 163.517 49.3746 163.336 48.3049C163.315 48.2411 163.319 48.1717 163.346 48.1105C163.374 48.0493 163.424 48.0008 163.486 47.9746C163.541 47.9431 163.769 47.829 163.828 47.8526C163.435 47.7032 163.022 47.6796 162.727 47.3453C162.702 47.3178 162.681 47.2874 162.664 47.2549C162.652 47.2031 162.652 47.1493 162.664 47.0976C162.675 46.9748 162.71 46.8556 162.769 46.7473C162.828 46.6391 162.909 46.5441 163.006 46.4683C163.103 46.4033 163.205 46.348 163.313 46.3032C163.356 46.2835 163.557 46.1891 163.458 46.1459C163.183 46.0358 162.904 45.9256 162.628 45.8077C162.463 45.7329 162.282 45.6582 162.235 45.4655C162.22 45.3766 162.227 45.2852 162.257 45.1999C162.287 45.1147 162.337 45.0383 162.404 44.9779C162.688 44.7359 163.046 44.5973 163.419 44.5846C163.029 44.4439 162.667 44.2363 162.349 43.9711C162.29 43.9193 162.247 43.8508 162.227 43.7745C162.218 43.6996 162.233 43.6237 162.271 43.5582C162.358 43.3573 162.508 43.1903 162.699 43.0823C162.979 42.971 163.282 42.9318 163.58 42.9683C163.965 42.988 164.351 42.988 164.736 42.9683C164.803 42.9683 165.554 42.9093 165.554 42.8228L165.535 40.9272Z" fill="#B16668"/>
<path d="M163.879 44.6278C164.591 44.8939 165.341 45.0427 166.101 45.0683C166.834 44.8773 167.543 44.6014 168.213 44.2463C167.489 44.4036 166.801 44.7497 166.085 44.8795C165.345 44.844 164.608 44.7599 163.879 44.6278Z" fill="#9A4A4D"/>
<path d="M163.729 46.201C164.419 46.5192 165.156 46.725 165.911 46.8106C166.656 46.6758 167.383 46.4554 168.078 46.1538C167.347 46.2521 166.635 46.5471 165.911 46.6218C165.175 46.5295 164.446 46.3889 163.729 46.201Z" fill="#9A4A4D"/>
<path d="M163.939 47.8604C164.4 48.0802 164.888 48.2376 165.391 48.3284C166.244 48.2733 167.019 47.8643 167.805 47.5654C167.019 47.7188 166.209 48.0688 165.402 48.1475C164.915 48.0924 164.431 47.9312 163.939 47.8604Z" fill="#9A4A4D"/>
<path d="M58.1328 142.221L59.8081 141.446L58.1564 141.01L58.1328 142.221Z" fill="#263238"/>
<path d="M74.7658 145.151C74.7658 145.151 54.9766 136.719 54.7289 137.973C54.6734 138.222 54.6734 138.48 54.7289 138.729L54.6738 138.658L55.0396 141.017C55.9335 141.701 56.9994 142.123 58.1188 142.237C58.1188 142.122 58.1188 141.426 58.1424 141.029C58.7495 141.264 59.3329 141.557 59.8846 141.902C61.1549 142.689 61.9689 144.077 63.3178 145.682C64.2971 146.861 66.0471 147.4 68.6387 147.754C71.427 148.128 73.8849 147.628 74.577 146.924C75.1433 146.35 74.8641 145.304 74.7658 145.151Z" fill="#263238"/>
<path d="M74.2199 144.718C74.0272 144.529 73.3232 143.794 72.3676 142.996C71.5339 142.3 70.5586 141.423 69.5125 140.703C69.0096 140.374 68.5348 140.005 68.0928 139.598C67.7456 139.253 67.4174 138.889 67.1096 138.508C66.1733 137.33 65.3726 136.051 64.7225 134.694C64.4079 134.057 63.8494 132.657 64.0067 130.061C64.2506 126.128 64.5927 124.709 64.6084 122.149L55.17 123.348C55.4453 124.768 55.7403 127.93 55.8858 129.542C56.1021 131.992 56.4875 132.224 55.4689 134.654C55.17 135.374 54.7256 136.066 54.6824 136.837C54.6195 138.088 55.6656 139.173 56.8375 139.787C57.8049 140.298 58.9218 140.518 59.8617 141.061C60.8121 141.669 61.6469 142.442 62.3275 143.342C62.9921 144.128 63.5073 145.092 64.4629 145.654C65.4972 146.283 66.4843 146.48 67.6838 146.708C69.1123 146.95 70.5644 147.021 72.0097 146.92C74.0744 146.787 75.6042 146.091 74.2199 144.718Z" fill="#FFBDA7"/>
<path d="M73.0835 143.338C72.2301 142.661 71.0228 141.694 69.5638 140.604C69.0608 140.439 68.5294 140.376 68.0016 140.421C67.4738 140.465 66.9605 140.616 66.4924 140.864C63.5547 142.311 63.0513 144.372 63.0513 144.372C63.5666 145.315 64.4283 146.02 65.4542 146.338C68.8481 147.738 74.928 147.302 74.9869 145.831C75.0263 144.911 74.1178 144.167 73.0835 143.338ZM55.6579 134.135C55.4441 134.623 55.2052 135.1 54.9422 135.563C54.423 136.511 54.3247 137.454 54.9736 138.402C55.827 139.657 56.877 140.042 57.9506 140.31C58.8906 137.521 56.8377 134.741 55.6579 134.135Z" fill="#37474F"/>
<path d="M43.4789 140.679C43.5497 141.635 43.4475 144.482 43.6559 146.61C43.8486 148.545 44.4228 151.553 43.9469 153.846C43.4711 156.139 41.2806 158.75 38.0715 156.748C36.0816 155.509 35.24 153.948 34.8743 151.168C34.6186 149.237 35.4327 146.515 36.1248 144.089C36.935 141.269 37.226 139.763 37.226 139.763L43.4789 140.679Z" fill="#263238"/>
<path d="M36.5288 126.632C36.5288 129.251 36.8631 133.581 37.0046 136.463C37.0729 138.028 36.9899 139.595 36.7569 141.143C36.3636 143.007 35.9704 145.595 35.6872 146.806C35.2939 148.497 35.0068 149.559 35.7541 151.415C35.815 151.564 35.8943 151.704 35.99 151.832C36.9928 153.342 39.4468 154.412 40.2098 154.192C40.3898 154.362 40.6103 154.484 40.8506 154.545C41.0908 154.606 41.3426 154.605 41.5823 154.542C41.6688 154.526 41.7541 154.505 41.8379 154.479C41.925 154.451 42.0104 154.418 42.0935 154.381C42.3906 154.235 42.6538 154.028 42.8658 153.774C43.0779 153.52 43.2342 153.224 43.3244 152.906C43.3695 152.77 43.405 152.63 43.4306 152.489C43.7356 150.985 43.7848 149.44 43.5761 147.919C43.5093 146.81 43.4699 145.229 43.5171 143.526C43.5643 141.824 45.216 132.908 45.8531 127.556L36.5288 126.632Z" fill="#FFBDA7"/>
<path d="M35.3 149.02C37.172 148.234 42.8625 147.998 43.8221 150.247C43.9243 152.402 43.8221 153.787 42.2844 155.706C40.2552 158.282 37.3961 155.753 36.2714 154.133C35.1466 152.513 35.0837 150.188 35.3 149.02Z" fill="#37474F"/>
<path d="M42.8752 62.2501C40.2718 66.2693 37.8847 70.5323 37.5897 79.7229C37.1964 91.8316 38.5139 102.591 38.3762 104.066C38.2386 105.541 37.5897 107.932 36.461 115.168C35.3324 122.404 36.6223 136.448 36.6223 136.448C36.6223 136.448 37.4639 138.111 40.4252 138.485C43.178 138.827 44.4601 137.651 44.4601 137.651C44.4601 137.651 49.1242 118.306 50.3591 113.969C51.5939 109.631 53.4659 94.1126 53.4659 94.1126L53.926 102.348C53.926 102.348 52.9074 106.327 53.4501 112.738C53.9929 119.148 55.971 131.54 55.971 131.54C55.971 131.54 57.1901 132.786 60.1042 132.72C62.7706 132.664 64.1352 131.308 64.1352 131.308C64.1352 131.308 67.1004 106.984 67.4308 99.7559C67.7611 92.5277 67.8555 74.4728 65.9167 63.6737L42.8752 62.2501Z" fill="#37474F"/>
<path d="M55.2714 79.0623L53.4859 94.1126L53.9461 102.348L54.1781 93.8452L56.7422 80.2303C58.622 79.8882 63.4985 76.9151 63.9626 73.9813C61.2883 77.7567 55.2714 79.0623 55.2714 79.0623ZM43.5992 123.022C42.9805 126.805 42.4181 130.597 41.9121 134.399C42.738 130.647 43.5114 126.886 44.2324 123.116C44.9678 119.349 45.6481 115.585 46.3246 111.794C47.001 108.003 47.6066 99.4335 47.8976 95.611C48.1886 91.7884 48.3735 87.9659 48.5111 84.1394C48.0589 87.9462 47.6617 91.757 47.2605 95.5441C46.8594 99.3313 46.1555 107.893 45.5184 111.668C44.8813 115.443 44.2009 119.234 43.5992 123.022ZM63.9311 95.5677C63.9311 97.2273 63.9626 98.8987 63.8603 100.539C63.7581 102.179 63.5614 103.846 63.3962 105.502L62.9007 110.476C62.5651 113.793 62.2715 117.115 62.0198 120.442C62.5887 117.151 63.0961 113.852 63.5418 110.543C63.9862 107.232 64.4109 103.932 64.6862 100.586C64.8277 97.2155 64.6862 93.9003 64.5092 90.5575C64.3322 87.2147 64.0569 83.8956 63.6597 80.5803L63.8682 90.5772C63.8878 92.2407 63.9272 93.9042 63.9311 95.5677Z" fill="#263238"/>
<path d="M44.9655 18.2515C41.9255 19.274 41.2766 22.2588 41.2098 27.3752C41.1822 29.3612 41.257 31.1231 39.5777 32.4877C38.6811 33.2074 37.6114 33.7422 36.8563 34.6035C35.59 36.035 35.4799 38.4929 36.8996 39.7749C36.3725 39.9904 35.9137 40.3449 35.5723 40.8006C35.2309 41.2564 35.0195 41.7962 34.9608 42.3626C34.8674 43.5068 35.1993 44.6451 35.8928 45.5599C37.2574 47.4672 39.9159 48.1869 42.1851 47.77C42.7396 49.288 44.3559 50.2476 45.9644 50.3459C47.5728 50.4442 49.1577 49.8072 50.4948 48.8948C51.3403 50.5032 53.4718 51.0224 55.1432 50.7628C56.0018 50.6319 56.8224 50.3185 57.5497 49.8436C58.2769 49.3687 58.8939 48.7435 59.359 48.0099C59.411 47.9027 59.4912 47.8116 59.591 47.7464C59.6718 47.7124 59.7593 47.6976 59.8467 47.7032C60.9989 47.6757 62.0922 47.6717 63.1265 47.1369C64.068 46.7113 64.8767 46.0386 65.4664 45.1902C65.8499 44.5886 66.0696 43.8972 66.1035 43.1846C66.1737 42.5876 66.0713 41.983 65.8086 41.4424C66.7839 40.6558 66.8743 38.4103 66.5637 37.2069C66.253 36.0035 65.4546 34.981 64.5973 34.0804C63.6903 33.2286 62.8415 32.3168 62.0568 31.3512C61.4431 30.5143 61.1425 29.4886 61.2074 28.4528C61.2074 27.8432 60.9242 26.7303 61.345 26.2072C61.345 26.2072 63.1973 23.9106 63.0872 21.4605C63.0315 19.755 62.4088 18.1168 61.3176 16.8048C60.2265 15.4929 58.7291 14.5821 57.0623 14.2165C53.2909 13.2688 46.4835 13.6581 44.9655 18.2515Z" fill="#263238"/>
<path d="M59.7564 38.5243C57.6092 40.4159 58.5098 47.1762 61.5773 51.2308C64.9279 55.6393 67.1223 59.1983 69.2617 61.5343C71.5426 64.0316 72.4825 64.9007 75.9079 63.3158C81.1934 60.8697 87.8514 55.3955 90.0222 53.8538C90.7577 53.2715 91.3711 52.5499 91.8273 51.7302C92.2206 50.8021 92.1183 49.697 92.138 48.9026C92.1773 47.4593 92.2599 46.0239 92.2796 44.5767C92.2796 43.9239 92.4801 43.1845 92.0908 42.6104C92.0121 42.4924 91.8194 42.3587 91.6975 42.3862C91.6975 42.3862 91.6975 41.7766 91.7172 41.4974C91.7369 40.9822 91.6779 40.0266 91.0801 39.8339C90.5806 39.6766 90.1756 40.8485 90.1756 40.8485C90.1756 40.8485 90.5138 39.7159 90.3368 39.1771C90.1166 38.5007 89.5739 38.0917 89.1964 38.4968C88.9464 38.7911 88.7543 39.13 88.63 39.4957C88.5178 39.4572 88.3982 39.4447 88.2804 39.459C88.1626 39.4733 88.0495 39.5141 87.9497 39.5783C87.3519 39.9086 87.1081 40.6204 86.9154 41.2339C86.6833 41.9565 86.5264 42.7011 86.4474 43.4559C86.4261 44.2254 86.3139 44.9897 86.1131 45.7329C85.9516 46.2254 85.6358 46.6528 85.2126 46.952C84.7052 47.2942 84.3828 48.0492 84.5401 49.2644C84.5991 49.7363 84.6109 50.7431 83.321 51.3881C80.6074 52.7488 75.0112 54.9275 75.0073 54.7387C75.0073 54.7387 70.7404 48.7492 67.9993 44.3801C66.615 42.2132 64.7548 39.1221 59.7564 38.5243Z" fill="#FFBDA7"/>
<path d="M89.6089 48.3639C89.4785 48.2198 89.335 48.0882 89.1803 47.9706C88.7952 47.6724 88.3404 47.4774 87.8589 47.4043C87.8156 47.4043 87.8314 47.4829 87.8589 47.4947C88.4296 47.6845 88.939 48.024 89.3336 48.4779C89.8921 49.1425 90.0258 49.9802 90.0966 50.8375C90.0966 50.869 90.1241 50.9083 90.1477 50.8886C90.1713 50.869 90.1477 50.8886 90.1477 50.865C90.2885 50.3096 90.2667 49.7253 90.0848 49.1819C89.9752 48.8835 89.8142 48.6066 89.6089 48.3639Z" fill="#F0997A"/>
<path d="M92.2992 42.9329C92.2127 42.693 92.0868 42.3823 91.7565 42.3272L91.7801 41.3244C91.7957 40.9565 91.7341 40.5895 91.5992 40.2469C91.5226 40.0663 91.3921 39.9139 91.2256 39.8103C91.1345 39.7517 91.0262 39.7256 90.9184 39.7363C90.8106 39.747 90.7095 39.7939 90.6317 39.8693C90.5423 39.9541 90.4631 40.0492 90.3958 40.1525C90.4155 40.0227 90.439 39.8929 90.4469 39.7592C90.4874 39.3654 90.3778 38.9708 90.1402 38.6541C90.0248 38.4861 89.8598 38.3582 89.6682 38.2884C89.5659 38.2583 89.4567 38.2603 89.3555 38.2941C89.2543 38.3278 89.1658 38.3917 89.1019 38.4772C88.869 38.7569 88.6891 39.0767 88.571 39.421C88.3641 39.3896 88.1525 39.4159 87.9596 39.4971C87.7667 39.5783 87.6 39.7112 87.4778 39.8811C87.2208 40.2179 87.0312 40.6012 86.9193 41.0098C86.6645 41.8042 86.4996 42.6247 86.4277 43.4559C86.5308 42.6322 86.7247 41.8224 87.0058 41.0413C87.1208 40.6478 87.3089 40.2796 87.5603 39.9558C87.6505 39.85 87.7551 39.7573 87.871 39.6805C87.9278 39.6423 87.9901 39.6131 88.0559 39.594C88.1296 39.5765 88.2045 39.5647 88.28 39.5586C88.353 39.5444 88.4283 39.5466 88.5004 39.565C88.5724 39.5833 88.6396 39.6174 88.6969 39.6648C88.7939 39.774 88.852 39.9123 88.862 40.0581C88.862 40.0974 88.862 40.1328 88.862 40.1682C88.8717 40.4206 88.8479 40.6732 88.7913 40.9193C88.6528 41.4214 88.5503 41.9326 88.4845 42.4491C88.4137 42.9707 88.373 43.496 88.3626 44.0222V45.5953L88.4059 44.0222C88.4328 43.5055 88.4893 42.9908 88.575 42.4806C88.6561 41.9693 88.7744 41.4646 88.9289 40.9705C88.9972 40.714 89.0303 40.4494 89.0272 40.1839C89.033 40.0484 89.0051 39.9136 88.9461 39.7914C88.8871 39.6693 88.7988 39.5636 88.689 39.4839C88.8027 39.1661 88.9732 38.8715 89.1924 38.6148C89.2396 38.5509 89.3051 38.5027 89.3802 38.4768C89.4553 38.4508 89.5366 38.4482 89.6132 38.4693C89.7737 38.5328 89.911 38.644 90.0065 38.7878C90.219 39.0762 90.3133 39.435 90.2699 39.7907C90.2553 39.9731 90.229 40.1543 90.1913 40.3334C90.1559 40.5064 90.1087 40.6834 90.0733 40.8603C90.0161 41.2237 89.9807 41.59 89.9671 41.9576C89.9475 42.3272 89.9317 42.6969 89.9199 43.0705C89.9199 43.798 89.8885 44.5295 89.9199 45.261C89.9199 44.5295 89.9514 43.802 90.0025 43.0744C90.0261 42.7559 90.0536 42.4373 90.0812 42.1188L90.1402 41.5643L90.1756 41.2851C90.1756 41.2418 90.1756 41.1946 90.1756 41.1474C90.1857 41.1126 90.1936 41.0771 90.1992 41.0413C90.1992 40.9901 90.1992 40.939 90.2267 40.8879C90.2739 40.7292 90.3413 40.5772 90.4273 40.4356C90.5036 40.2915 90.6003 40.159 90.7143 40.0424C90.9424 39.8025 91.2767 40.062 91.3986 40.353C91.5506 40.7951 91.6122 41.2632 91.5795 41.7295C91.5795 41.9851 91.5559 42.2368 91.5363 42.4885C91.5166 42.7402 91.4969 43.0076 91.4773 43.275C91.4419 43.798 91.4183 44.3172 91.4222 44.8481C91.4222 44.9346 91.4222 45.025 91.4222 45.1116C91.4765 44.2404 91.5762 43.3728 91.7211 42.5121C91.808 42.5445 91.8852 42.5986 91.9453 42.6694C92.0218 42.7769 92.0827 42.8948 92.1262 43.0194C92.1979 43.2871 92.2245 43.5649 92.2048 43.8413C92.1576 44.4037 92.1498 44.9818 92.134 45.5442L92.075 48.9498L92.2402 45.5442C92.2638 44.9739 92.2795 44.4155 92.3307 43.8452C92.3766 43.5418 92.3659 43.2324 92.2992 42.9329Z" fill="#F0997A"/>
<path d="M86.0416 44.9543C85.7585 43.7194 84.9208 43.2986 84.4686 43.6132C84.0163 43.9279 84.4686 45.3829 84.4686 46.3661C84.4686 47.3493 84.1225 52.0685 86.3523 52.8078L86.8714 47.4633C86.4978 47.2077 86.2579 45.9099 86.0416 44.9543Z" fill="#FFBDA7"/>
<path d="M86.8701 47.4791C86.6573 47.2474 86.5059 46.9662 86.4297 46.6611C86.3314 46.3622 86.2527 46.0594 86.174 45.7565C86.0207 45.1548 85.9499 44.506 85.5606 44.0301C85.4769 43.9094 85.369 43.8076 85.2437 43.7311C85.1184 43.6545 84.9785 43.605 84.833 43.5857C84.767 43.5821 84.701 43.5925 84.6393 43.6162C84.5776 43.6399 84.5217 43.6764 84.4751 43.7234C84.4016 43.8412 84.3634 43.9777 84.365 44.1166C84.365 44.7223 84.5027 45.3397 84.5499 45.9689C84.4899 47.2173 84.5188 48.4685 84.6364 49.7128C84.708 50.3286 84.8669 50.9311 85.1083 51.5022C85.215 51.7943 85.3802 52.0614 85.5939 52.2873C85.8076 52.5132 86.0653 52.693 86.351 52.8157C86.0545 52.7048 85.7836 52.5347 85.5551 52.3156C85.3265 52.0965 85.1451 51.8331 85.0218 51.5415C84.7636 50.9654 84.5914 50.3546 84.5105 49.7285C84.3687 48.4859 84.3188 47.2346 84.3611 45.9846C84.3257 45.3672 84.1841 44.7537 84.2077 44.1048C84.2067 43.9321 84.2589 43.7632 84.3572 43.6211C84.4181 43.5551 84.4934 43.504 84.5773 43.4719C84.6612 43.4399 84.7515 43.4277 84.8409 43.4363C85.0059 43.4581 85.1645 43.5145 85.3061 43.602C85.4478 43.6894 85.5693 43.8058 85.6628 43.9436C86.41 45.0408 86.1269 46.4448 86.8701 47.4791Z" fill="#F0997A"/>
<path d="M39.7286 68.1452C38.6629 65.825 40.9635 63.6109 41.3292 60.1619C41.5809 57.8023 40.0393 52.0056 40.0393 52.0056C40.0393 52.0056 45.0063 48.3403 43.5787 39.252L50.3862 38.0997C56.2576 37.7575 59.738 38.5323 59.738 38.5323C61.3111 39.7475 64.064 41.6391 65.8612 44.5099C68.5865 48.8359 67.4578 52.3123 64.9527 55.2264C64.9331 55.7888 64.8702 58.7422 66.4393 64.7278C66.6634 65.5772 67.2258 67.0873 66.5337 67.8739C62.6325 72.3335 46.6895 73.9734 39.7286 68.1452Z" fill="#FC3E4D"/>
<path d="M43.6008 39.252C39.2002 39.8104 37.2614 41.2183 35.4091 46.606C34.5085 49.2252 33.3051 52.7095 32.322 55.9186C32.3495 55.8281 30.7764 54.8568 30.627 54.7388L28.7118 53.4213C27.532 52.6348 26.3522 51.687 25.6207 50.46C24.8892 49.2331 24.9521 48.0493 24.8617 46.724C24.7791 45.5442 24.5117 44.4037 24.4684 43.2397C24.4448 42.2368 23.3594 42.5515 22.9347 43.7155C22.4644 45.2453 22.2154 46.8344 22.1953 48.4347L21.688 47.9589L20.7363 53.614C20.7363 53.614 28.8376 65.412 32.609 66.5918H32.6523H32.6759C33.9776 67.0362 35.6293 66.6508 36.9192 64.8339C39.2002 61.617 41.3396 56.2647 42.9126 52.5522C44.4857 48.8398 45.8778 42.2211 43.6008 39.252Z" fill="#FFBDA7"/>
<path d="M32.68 54.7662L32.3457 55.8399C35.0553 57.877 35.6373 59.1905 35.7553 62.2501C36.6048 58.6674 34.7997 56.1859 32.68 54.7662Z" fill="#F0997A"/>
<path d="M23.5913 32.1143L21.9238 33.0778V67.0717L23.5913 66.1082V32.1143Z" fill="#455A64"/>
<path d="M20.2559 32.1143L21.9233 33.0778V67.0717L20.2559 66.1082V32.1143Z" fill="#37474F"/>
<path d="M20.2559 32.1144L21.9233 31.1548L23.5908 32.1144L21.9233 33.0779L20.2559 32.1144Z" fill="#263238"/>
<path d="M27.4806 6.12711L26.3676 5.48608L17.2989 10.7205L10.8887 22.9746V35.0636L17.2989 39.9087L18.4119 40.5536L27.4806 35.3193L33.8908 23.0651V10.9761L27.4806 6.12711Z" fill="#455A64"/>
<path d="M27.4809 6.1272L18.4122 11.3655L12.002 23.6158V35.7048L18.4122 40.5537L27.4809 35.3194L33.8912 23.0652V10.9762L27.4809 6.1272Z" fill="#F5F5F5"/>
<path d="M27.4691 6.29237L33.7614 11.043V23.0337L27.3826 35.225L18.424 40.3886L12.1317 35.6379V23.6472L18.5066 11.456L27.4691 6.29237ZM27.4691 6.1272L18.4122 11.3655L12.002 23.6158V35.7048L18.4122 40.5537L27.4809 35.3154L33.8912 23.0652V10.9762L27.4809 6.1272H27.4691Z" fill="#E0E0E0"/>
<path d="M12.8242 35.2957V23.8163L19.03 11.9554L27.4183 7.11035L33.0735 11.3852V22.8646L26.8638 34.7255L18.4755 39.5706L12.8242 35.2957Z" fill="#FC3E4D"/>
<path d="M19.1193 22.4477L20.2991 21.7791V29.967L21.3924 29.3377V21.1499L22.5486 20.4814V19.0184L19.139 20.9847L19.1193 22.4477ZM18.0378 27.4776C17.8818 27.2035 17.6701 26.965 17.4165 26.7776C17.2571 26.6633 17.0887 26.562 16.9131 26.4747C16.734 26.3879 16.5695 26.2738 16.4254 26.1365C16.2845 25.9908 16.1743 25.8182 16.1013 25.6291C16.0284 25.4399 15.9942 25.238 16.0007 25.0354C15.9963 24.7679 16.0389 24.5016 16.1265 24.2489C16.199 23.9947 16.361 23.7753 16.5827 23.6314C16.7715 23.5253 16.917 23.5213 17.0153 23.6314C17.1853 23.858 17.2753 24.1347 17.2709 24.418L18.317 23.5606C18.3066 23.2151 18.2221 22.8758 18.0693 22.5657C18.0197 22.4571 17.9474 22.3605 17.8571 22.2825C17.7668 22.2044 17.6608 22.1468 17.5462 22.1134C17.1957 22.0558 16.8366 22.1392 16.5473 22.3455C16.1312 22.5883 15.7813 22.9301 15.5288 23.3404C15.0874 24.0478 14.8569 24.8663 14.8642 25.7C14.8503 26.1185 14.9338 26.5345 15.108 26.9152C15.2977 27.2419 15.5601 27.5204 15.8748 27.7293L16.8462 28.3939C16.9792 28.5144 17.0835 28.6631 17.1515 28.8291C17.2196 28.9952 17.2496 29.1743 17.2395 29.3535C17.246 29.5929 17.2086 29.8314 17.1294 30.0574C17.0327 30.376 16.8319 30.653 16.5591 30.8439C16.4963 30.8982 16.416 30.928 16.333 30.928C16.25 30.928 16.1697 30.8982 16.1069 30.8439C15.877 30.5509 15.7585 30.1858 15.7726 29.8136L14.7344 30.5136C14.7409 30.9336 14.8221 31.3491 14.9743 31.7406C15.0212 31.8766 15.0948 32.002 15.1907 32.1093C15.2866 32.2167 15.4028 32.3039 15.5327 32.3659C15.7125 32.4186 15.9021 32.4287 16.0864 32.3952C16.2708 32.3618 16.4448 32.2857 16.5945 32.1732C16.8148 32.0472 17.0183 31.8939 17.2002 31.717C17.522 31.3965 17.7772 31.0156 17.9513 30.5962C18.2207 29.9761 18.3548 29.3058 18.3446 28.6298C18.3372 28.3449 18.2827 28.0632 18.1833 27.7961C18.1419 27.6868 18.0933 27.5804 18.0378 27.4776ZM30.6971 14.9717C30.3824 14.7082 29.9577 14.7279 29.4268 15.0346L27.7043 16.0296V25.6804L28.7976 25.0511V21.4252L29.4268 21.0634C29.9622 20.7299 30.3886 20.2475 30.6538 19.6752C30.9736 19.0841 31.145 18.4241 31.1532 17.7521V16.3521C31.1336 15.6875 30.9881 15.2313 30.6971 14.9717ZM30.0796 18.3931C30.0755 18.638 30.0121 18.8782 29.8948 19.0931C29.8043 19.2959 29.6585 19.469 29.474 19.5926L28.8172 19.9859V16.8869L29.474 16.4936C29.6628 16.3835 29.8122 16.3757 29.9263 16.4622C29.9914 16.5291 30.0408 16.6097 30.0708 16.6982C30.1007 16.7866 30.1105 16.8807 30.0993 16.9734L30.0796 18.3931ZM26.2335 17.4336C26.0526 17.3065 25.8357 17.241 25.6148 17.2466C25.3939 17.2523 25.1806 17.3289 25.0065 17.465C24.4765 17.7974 24.0533 18.2752 23.7874 18.8414C23.4629 19.4339 23.2887 20.0969 23.2801 20.7724V26.0422C23.2532 26.2891 23.2844 26.539 23.3711 26.7718C23.4578 27.0046 23.5977 27.2139 23.7795 27.3832C23.9604 27.5096 24.1769 27.5751 24.3975 27.5701C24.6181 27.5652 24.8314 27.4901 25.0065 27.3557C25.537 27.021 25.9612 26.5422 26.2296 25.9753C26.5547 25.3829 26.7302 24.72 26.7408 24.0444V18.7746C26.7685 18.5269 26.737 18.2761 26.6488 18.0429C26.5606 17.8098 26.4183 17.6009 26.2335 17.4336ZM25.6672 24.6854C25.6633 24.9383 25.5986 25.1865 25.4784 25.409C25.3765 25.6261 25.214 25.8092 25.0104 25.936C24.9234 25.9881 24.8247 26.0178 24.7233 26.0225C24.6396 26.0217 24.5583 25.9941 24.4913 25.9438C24.4166 25.8776 24.3588 25.7946 24.3226 25.7016C24.2863 25.6086 24.2727 25.5083 24.2829 25.409V20.1235C24.2859 19.8688 24.3521 19.6188 24.4756 19.396C24.5786 19.1806 24.741 18.9992 24.9436 18.8729C25.0183 18.8183 25.1085 18.7888 25.2012 18.7888C25.2938 18.7888 25.384 18.8183 25.4587 18.8729C25.5334 18.9391 25.5913 19.0222 25.6275 19.1152C25.6637 19.2082 25.6773 19.3085 25.6672 19.4078V24.6854Z" fill="#F5F5F5"/>
<path d="M20.2562 45.0684C19.4471 45.0286 18.6534 45.3002 18.0382 45.8274C17.4562 46.2482 16.2921 46.8381 16.5359 47.7269C16.6371 47.969 16.7084 48.2226 16.7483 48.482C16.7325 48.755 16.663 49.0223 16.5438 49.2685C16.4838 49.3899 16.4494 49.5224 16.4426 49.6577C16.4359 49.793 16.4569 49.9282 16.5045 50.055C16.6161 50.2115 16.7369 50.3612 16.8663 50.5033C16.9965 50.7308 17.049 50.9945 17.0157 51.2545C16.9776 51.5148 16.9658 51.7783 16.9803 52.041C17.0432 52.6073 17.5387 52.8511 17.9831 53.0753C18.573 53.3702 19.1629 53.6298 19.7804 53.8933C20.7675 54.318 22.2697 53.5236 22.4546 52.4539C22.4757 52.3902 22.4721 52.3208 22.4444 52.2596C22.4167 52.1984 22.367 52.1498 22.3051 52.1236C22.2501 52.0921 22.022 51.9742 21.963 51.9978C22.3563 51.8522 22.7495 51.8286 23.0641 51.4944C23.0896 51.4661 23.1108 51.4343 23.1271 51.4C23.1388 51.3495 23.1388 51.2971 23.1271 51.2466C23.1159 51.124 23.0798 51.0049 23.0209 50.8967C22.9621 50.7885 22.8818 50.6934 22.7849 50.6174C22.6884 50.5524 22.5856 50.497 22.4782 50.4522C22.4349 50.4286 22.2304 50.3382 22.3327 50.2949C22.608 50.1809 22.8872 50.0747 23.1585 49.9528C23.3276 49.882 23.5085 49.8073 23.5518 49.6146C23.567 49.5256 23.5595 49.4342 23.53 49.349C23.5004 49.2637 23.4497 49.1873 23.3827 49.1269C23.1123 48.8724 22.7651 48.7148 22.3956 48.6786C22.7856 48.5408 23.1479 48.3344 23.4653 48.069C23.5247 48.0172 23.5672 47.9487 23.5872 47.8724C23.5962 47.7963 23.5811 47.7192 23.5439 47.6522C23.4574 47.4516 23.3066 47.2856 23.1153 47.1802C22.8355 47.065 22.5303 47.0256 22.2304 47.0662C21.8372 47.0662 21.4439 47.0662 21.0742 47.0662C21.0074 47.0662 20.2602 47.0072 20.2602 46.9168L20.2562 45.0684Z" fill="#FFBDA7"/>
<path d="M21.9217 48.7847C21.2092 49.049 20.4591 49.1976 19.6997 49.2251C18.9671 49.0313 18.2587 48.7556 17.5879 48.4032C18.3115 48.5605 18.9997 48.9066 19.7155 49.0364C20.4554 48.9989 21.1923 48.9148 21.9217 48.7847Z" fill="#F0997A"/>
<path d="M22.0761 50.3499C21.3855 50.6676 20.6487 50.8734 19.8935 50.9595C19.1486 50.8235 18.4216 50.6031 17.7266 50.3027C18.458 50.4011 19.1698 50.696 19.8935 50.7707C20.6291 50.6765 21.3581 50.5359 22.0761 50.3499Z" fill="#F0997A"/>
<path d="M21.8598 52.0016C21.4058 52.2263 20.9246 52.3915 20.4284 52.4932C19.575 52.4381 18.8002 52.0252 18.0098 51.7263C18.8199 51.8797 19.6104 52.2297 20.4166 52.3084C20.9003 52.2533 21.3879 52.096 21.8756 52.0213L21.8598 52.0016Z" fill="#F0997A"/>
<path d="M44.0271 26.8446C44.68 26.058 46.0367 25.7159 46.7249 26.7462C47.1536 27.3833 47.2834 28.4648 47.9047 28.2918C48.298 28.1817 48.4081 27.7255 48.2469 26.8996C48.2469 26.9429 48.7424 26.6361 48.7778 26.6047C49.2418 26.2114 49.1278 25.5822 49.2733 25.0316C49.4345 24.4299 49.9065 23.9698 50.1896 23.4271C50.6261 22.5737 50.4374 21.5237 50.2525 20.6231C50.17 20.2298 50.111 19.7697 50.3902 19.4866C50.6184 19.3033 50.9089 19.2159 51.2003 19.2427C52.1076 19.3118 53.006 19.4699 53.8824 19.7146C54.7658 19.9584 55.7025 19.9282 56.5684 19.6281C56.9263 19.4748 57.2448 19.2349 57.5909 19.0658C57.9276 18.8678 58.3201 18.7863 58.7078 18.8337C59.0462 18.9171 59.3543 19.0943 59.5965 19.345C60.7763 20.4422 61.1696 22.1922 61.496 23.7299C61.6692 24.8895 61.7442 26.0617 61.7202 27.2339C61.8775 32.2362 61.0084 33.479 59.9741 34.3599C59.0853 35.1189 57.6931 35.5397 56.0414 35.5397L56.0925 38.383C56.0925 38.383 58.5308 42.8269 57.4139 45.4618C57.4139 45.4618 53.5914 43.9163 51.2554 42.0286C48.3885 39.7083 47.8969 38.5757 47.8969 38.5757L47.7828 30.7104C47.7828 30.7104 46.603 32.4643 44.8294 31.1548C43.3822 30.0772 43.0479 28.0086 44.0271 26.8446Z" fill="#FFBDA7"/>
<path d="M56.0496 35.5555C52.9034 35.6105 49.8399 34.3088 48.6719 31.493C48.6719 31.493 48.8056 33.3689 50.009 34.5094C52.404 36.7785 56.0692 36.5465 56.0692 36.5465L56.0496 35.5555Z" fill="#F0997A"/>
<path d="M52.7231 25.358C52.7033 25.5136 52.7305 25.6715 52.8012 25.8116C52.8718 25.9516 52.9827 26.0673 53.1197 26.1438C53.2566 26.2203 53.4132 26.2541 53.5695 26.2409C53.7258 26.2277 53.8746 26.1681 53.9967 26.0697C54.1189 25.9713 54.2088 25.8386 54.255 25.6887C54.3012 25.5389 54.3015 25.3786 54.2559 25.2285C54.2103 25.0784 54.1208 24.9454 53.9991 24.8466C53.8773 24.7477 53.7288 24.6875 53.5725 24.6737C53.3699 24.6558 53.1683 24.7171 53.0099 24.8447C52.8515 24.9723 52.7487 25.1562 52.7231 25.358Z" fill="#263238"/>
<path d="M58.4539 25.4681C58.498 25.6181 58.5859 25.7515 58.7062 25.8513C58.8265 25.9511 58.9738 26.0128 59.1294 26.0286C59.2849 26.0443 59.4416 26.0133 59.5794 25.9395C59.7173 25.8658 59.83 25.7526 59.9033 25.6145C59.9765 25.4764 60.0069 25.3196 59.9907 25.1641C59.9744 25.0087 59.9122 24.8616 59.8119 24.7416C59.7117 24.6217 59.5779 24.5343 59.4278 24.4907C59.2777 24.4471 59.118 24.4492 58.9691 24.4968C58.7733 24.5593 58.6098 24.6959 58.5136 24.8775C58.4173 25.059 58.3959 25.271 58.4539 25.4681Z" fill="#263238"/>
<path d="M53.7579 22.6642L51.8938 23.3917C51.8043 23.1389 51.8156 22.8613 51.9255 22.6167C52.0353 22.3721 52.2353 22.1792 52.4837 22.0782C52.6056 22.0296 52.736 22.0062 52.8672 22.0096C52.9983 22.013 53.1274 22.043 53.2466 22.0978C53.3657 22.1526 53.4725 22.2311 53.5604 22.3284C53.6483 22.4258 53.7155 22.54 53.7579 22.6642Z" fill="#263238"/>
<path d="M58.3652 22.4556L60.2844 22.9669C60.3463 22.7059 60.3053 22.4311 60.1698 22.1997C60.0343 21.9682 59.8147 21.7979 59.5568 21.7242C59.4305 21.691 59.2987 21.6837 59.1694 21.7028C59.0402 21.7219 58.9161 21.767 58.8048 21.8353C58.6934 21.9037 58.597 21.9939 58.5215 22.1005C58.446 22.2071 58.3928 22.3279 58.3652 22.4556Z" fill="#263238"/>
<path d="M57.304 30.5137L54.5512 29.7587C54.4587 30.1359 54.5154 30.5342 54.7096 30.8706C54.9038 31.2069 55.2204 31.4553 55.5933 31.5638C55.7747 31.6093 55.9633 31.6181 56.1481 31.5897C56.3329 31.5614 56.5102 31.4964 56.6696 31.3986C56.8289 31.3008 56.9671 31.1721 57.0761 31.0202C57.185 30.8682 57.2625 30.696 57.304 30.5137Z" fill="#B16668"/>
<path d="M56.4427 31.5126C56.3439 31.1376 56.1175 30.8087 55.8024 30.5826C55.4873 30.3565 55.1032 30.2473 54.7163 30.2738C54.6448 30.2814 54.5739 30.2933 54.5039 30.3092C54.539 30.6003 54.6592 30.8747 54.8495 31.0978C55.0398 31.321 55.2917 31.483 55.5736 31.5637C55.8609 31.6441 56.1668 31.6261 56.4427 31.5126Z" fill="#F0997A"/>
<path d="M56.6092 28.6771L59.0357 27.4619C57.0693 24.5635 55.7598 23.7219 55.7598 23.7219L56.6092 28.6771Z" fill="#F0997A"/>
</svg>
