<svg width="60" height="60" viewBox="0 0 60 60" fill="none" xmlns="http://www.w3.org/2000/svg">
<path d="M54 30C53.9996 25.178 52.5467 20.4679 49.8306 16.4837C47.1145 12.4994 43.2612 9.42562 38.7729 7.663C34.2846 5.90038 29.3694 5.53063 24.6679 6.60194C19.9665 7.67324 15.6967 10.1359 12.4151 13.669C9.1335 17.2021 6.99227 21.6418 6.27044 26.4095C5.54862 31.1771 6.27968 36.0517 8.36835 40.3978C10.457 44.744 13.8064 48.3602 17.9801 50.7752C22.1538 53.1902 26.9581 54.292 31.767 53.937C31.2899 52.9943 30.9052 52.0077 30.618 50.991C26.4136 51.1153 22.2686 49.9742 18.7203 47.7154C15.1719 45.4567 12.3836 42.1844 10.7167 38.3225C9.04969 34.4606 8.58089 30.1871 9.37099 26.0556C10.1611 21.9242 12.1736 18.1252 15.148 15.1509C18.1223 12.1766 21.9212 10.1641 26.0527 9.37396C30.1841 8.58387 34.4576 9.05267 38.3195 10.7196C42.1814 12.3866 45.4537 15.1749 47.7125 18.7232C49.9712 22.2716 51.1124 26.4165 50.988 30.621C52.017 30.909 53.001 31.293 53.937 31.767C53.979 31.182 54 30.594 54 30ZM31.974 38.67C31.7701 38.297 31.4647 37.9894 31.0932 37.7829C30.7216 37.5763 30.2992 37.4792 29.8748 37.5029C29.4503 37.5265 29.0413 37.6699 28.695 37.9164C28.3487 38.1629 28.0793 38.5025 27.918 38.8958C27.7568 39.2891 27.7102 39.7201 27.7838 40.1387C27.8573 40.5574 28.048 40.9467 28.3337 41.2615C28.6193 41.5762 28.9883 41.8037 29.3979 41.9174C29.8075 42.0311 30.241 42.0265 30.648 41.904C30.978 40.77 31.422 39.687 31.974 38.667V38.67ZM31.476 19.23C31.4092 18.8612 31.2068 18.5307 30.9085 18.3037C30.6102 18.0766 30.2378 17.9695 29.8645 18.0034C29.4912 18.0372 29.1441 18.2096 28.8915 18.4866C28.639 18.7636 28.4993 19.1252 28.5 19.5V33L28.524 33.27C28.5908 33.6388 28.7933 33.9693 29.0915 34.1963C29.3898 34.4234 29.7623 34.5305 30.1356 34.4966C30.5089 34.4628 30.856 34.2903 31.1085 34.0133C31.361 33.7363 31.5007 33.3748 31.5 33V19.5L31.476 19.23ZM34.905 44.76C35.6797 44.5618 36.407 44.2108 37.0441 43.7276C37.6812 43.2444 38.2153 42.6387 38.6149 41.9461C39.0146 41.2535 39.2718 40.488 39.3714 39.6946C39.4711 38.9012 39.4111 38.0959 39.195 37.326L38.73 35.655C39.492 35.07 40.317 34.569 41.193 34.164L42.207 35.238C42.7677 35.8329 43.4441 36.307 44.1946 36.6311C44.9451 36.9552 45.7539 37.1226 46.5714 37.1228C47.3889 37.1231 48.1978 36.9563 48.9485 36.6327C49.6993 36.3091 50.3759 35.8355 50.937 35.241L51.909 34.212C52.803 34.632 53.643 35.154 54.414 35.766L54.036 37.032C53.802 37.8151 53.7304 38.6377 53.8257 39.4495C53.921 40.2612 54.1811 41.045 54.5901 41.7526C54.9991 42.4602 55.5484 43.0768 56.2042 43.5645C56.8601 44.0523 57.6086 44.4009 58.404 44.589L59.451 44.835C59.5714 45.8479 59.5815 46.8709 59.481 47.886L58.101 48.24C57.3261 48.4378 56.5985 48.7886 55.961 49.2717C55.3236 49.7548 54.7892 50.3604 54.3892 51.0531C53.9892 51.7457 53.7318 52.5113 53.632 53.3048C53.5322 54.0984 53.592 54.9039 53.808 55.674L54.276 57.342C53.514 57.93 52.686 58.431 51.81 58.836L50.799 57.762C50.2385 57.1669 49.5624 56.6926 48.812 56.3682C48.0616 56.0438 47.2528 55.8762 46.4353 55.8756C45.6178 55.8751 44.8088 56.0416 44.058 56.3649C43.3072 56.6883 42.6303 57.1616 42.069 57.756L41.094 58.791C40.2026 58.37 39.3622 57.8486 38.589 57.237L38.97 55.968C39.2041 55.1849 39.2756 54.3622 39.1803 53.5505C39.0851 52.7387 38.8249 51.955 38.4159 51.2474C38.0069 50.5398 37.4576 49.9232 36.8018 49.4354C36.146 48.9477 35.3974 48.5991 34.602 48.411L33.552 48.162C33.4323 47.15 33.4222 46.1281 33.522 45.114L34.905 44.76ZM49.5 46.5C49.5 45.7043 49.184 44.9413 48.6213 44.3787C48.0587 43.8161 47.2957 43.5 46.5 43.5C45.7044 43.5 44.9413 43.8161 44.3787 44.3787C43.8161 44.9413 43.5 45.7043 43.5 46.5C43.5 47.2956 43.8161 48.0587 44.3787 48.6213C44.9413 49.1839 45.7044 49.5 46.5 49.5C47.2957 49.5 48.0587 49.1839 48.6213 48.6213C49.184 48.0587 49.5 47.2956 49.5 46.5Z" fill="#2696F0"/>
</svg>
