<svg width="60" height="60" viewBox="0 0 60 60" fill="none" xmlns="http://www.w3.org/2000/svg">
<g clip-path="url(#clip0_1165_22604)">
<path d="M54.1833 46.3833C52.5761 44.9506 51.169 43.3081 49.9999 41.5C48.7236 39.0042 47.9587 36.2787 47.7499 33.4833V25.25C47.761 20.8594 46.1683 16.6158 43.2712 13.3166C40.374 10.0174 36.3718 7.88976 32.0166 7.33333V5.18333C32.0166 4.59322 31.7822 4.02728 31.3649 3.61002C30.9476 3.19275 30.3817 2.95833 29.7916 2.95833C29.2015 2.95833 28.6355 3.19275 28.2183 3.61002C27.801 4.02728 27.5666 4.59322 27.5666 5.18333V7.36666C23.2503 7.96321 19.2965 10.1038 16.4375 13.3918C13.5784 16.6799 12.0078 20.8927 12.0166 25.25V33.4833C11.8078 36.2787 11.0429 39.0042 9.76659 41.5C8.61806 43.3039 7.23358 44.9462 5.64992 46.3833C5.47214 46.5395 5.32965 46.7318 5.23195 46.9473C5.13424 47.1628 5.08355 47.3967 5.08325 47.6333V49.9C5.08325 50.342 5.25885 50.7659 5.57141 51.0785C5.88397 51.3911 6.30789 51.5667 6.74992 51.5667H53.0833C53.5253 51.5667 53.9492 51.3911 54.2618 51.0785C54.5743 50.7659 54.7499 50.342 54.7499 49.9V47.6333C54.7496 47.3967 54.6989 47.1628 54.6012 46.9473C54.5035 46.7318 54.361 46.5395 54.1833 46.3833ZM8.54992 48.2333C10.1006 46.7353 11.4659 45.0567 12.6166 43.2333C14.2243 40.2191 15.1623 36.8934 15.3666 33.4833V25.25C15.3005 23.2967 15.6281 21.3501 16.33 19.5261C17.0319 17.7021 18.0936 16.038 19.452 14.6328C20.8104 13.2277 22.4377 12.1103 24.2369 11.3471C26.0361 10.584 27.9705 10.1907 29.9249 10.1907C31.8793 10.1907 33.8137 10.584 35.613 11.3471C37.4122 12.1103 39.0395 13.2277 40.3978 14.6328C41.7562 16.038 42.818 17.7021 43.5198 19.5261C44.2217 21.3501 44.5494 23.2967 44.4833 25.25V33.4833C44.6875 36.8934 45.6256 40.2191 47.2333 43.2333C48.3839 45.0567 49.7492 46.7353 51.2999 48.2333H8.54992Z" fill="#2696F0"/>
<path d="M30.0001 57.1333C31.05 57.1092 32.0575 56.7145 32.8444 56.019C33.6314 55.3236 34.147 54.3723 34.3001 53.3333H25.5334C25.6909 54.4005 26.2307 55.3742 27.0523 56.0732C27.8739 56.7722 28.9215 57.1489 30.0001 57.1333Z" fill="#2696F0"/>
</g>
<defs>
<clipPath id="clip0_1165_22604">
<rect width="60" height="60" fill="white"/>
</clipPath>
</defs>
</svg>
